<svg xmlns="http://www.w3.org/2000/svg" id="Layer_2" width="66.08" height="66.08" viewBox="0 0 66.08 66.08"><defs><style>.cls-1{fill:#fefdfe;}</style></defs><g id="Layer_1-2"><path class="cls-1" d="m35.66,29.91c1.34-.16,2.39-.62,3.16-1.39.77-.77,1.15-1.78,1.15-3.03s-.33-2.17-.99-2.92c-.66-.75-1.64-1.2-2.95-1.36-.78-.09-3-.13-6.69-.13h-4.49v8.96h5.13c3.05,0,4.94-.04,5.68-.13Z"></path><path class="cls-1" d="m38.1,37.04c-1.07-.37-3.38-.56-6.94-.56h-6.32v10.36h7.24c2.82,0,4.61-.08,5.37-.24,1.16-.21,2.11-.73,2.84-1.55.73-.82,1.1-1.92,1.1-3.29,0-1.16-.28-2.15-.85-2.96s-1.38-1.4-2.44-1.77Z"></path><path class="cls-1" d="m55.15,0H10.93C4.89,0,0,4.89,0,10.93v44.22c0,6.04,4.89,10.93,10.93,10.93h44.22c6.04,0,10.93-4.89,10.93-10.93V10.93c0-6.04-4.89-10.93-10.93-10.93Zm-6.9,47.28c-.82,1.67-1.94,3-3.36,3.99-1.42,1-3.17,1.61-5.25,1.84-1.3.14-4.45.23-9.44.26h-13.19V14.63h15.49c3.07,0,5.35.13,6.86.38,1.51.26,2.85.79,4.04,1.6,1.19.81,2.18,1.89,2.97,3.24.79,1.35,1.19,2.86,1.19,4.53,0,1.81-.49,3.48-1.47,5-.98,1.52-2.3,2.65-3.98,3.41,2.36.69,4.18,1.86,5.44,3.52,1.27,1.66,1.9,3.6,1.9,5.84,0,1.76-.41,3.48-1.23,5.14Z"></path></g></svg>