<svg xmlns="http://www.w3.org/2000/svg" xmlns:xlink="http://www.w3.org/1999/xlink" id="Layer_1" x="0px" y="0px" viewBox="0 0 1771 2500" style="enable-background:new 0 0 1771 2500;" xml:space="preserve"><style type="text/css">	.st0{fill:#FFFFFF;}</style><path class="st0" d="M164.8,0.1h112.7v111.3h103.1V0.1h112.7v337.1H380.5V224.3H277.4v112.9H164.8L164.8,0.1L164.8,0.1z  M641.3,111.9h-99.2V0.1h311.1v111.8H754v225.3H641.4L641.3,111.9z M902.6,0.1h117.5l72.3,118.4l72.2-118.4h117.5v337.1h-112.2 V170.1L1092.4,290h-1.9l-77.6-119.9v167.1H902.6L902.6,0.1L902.6,0.1z M1338.2,0.1h112.7v225.7h158.4v111.4h-271.2V0.1z"></path><path class="st0" d="M0,491.4l161.2,1807.7l723.2,200.8l725.2-201.1L1771,491.4H0z M1434.8,920.4l-10.1,112.4l-4.4,49.8H885.5h-0.8 H571.9l20.3,227h293.4l0,0l454.9,0h59.7l-5.4,59.5l-52.1,583.7l-3.3,37.5l-453.8,125.8v0l-1,0.3l-454.2-126.1l-31.1-348.1h222.6 l15.8,176.8l246.9,66.7l0.2-0.1v0l247.3-66.7l25.7-287.5H885.5h-0.8H389.4l-54.5-611l-5.3-59.5h555.2v0l555.4,0L1434.8,920.4z"></path></svg>