<svg xmlns="http://www.w3.org/2000/svg" xmlns:xlink="http://www.w3.org/1999/xlink" id="Layer_1" x="0px" y="0px" viewBox="0 0 2500 2500" style="enable-background:new 0 0 2500 2500;" xml:space="preserve"><style type="text/css">	.st0{fill:none;}	.st1{fill:#FFFFFF;}</style><path class="st0" d="M0,0h2500v2500H0V0z"></path><path class="st1" d="M891.2,357v-94.1h137.3V159.9H788.2v291h240.2V357H891.2z M1275.3,262.9h96V159.9h-240.2v102.9 c32.1,32.1,48.9,47.5,95.4,94c-27.2,0-95.4,0.1-95.4,0.1v93.9h240.2V357L1275.3,262.9L1275.3,262.9z M1615.8,262.9h96V159.9h-240.2 v102.9c32.1,32.1,48.9,47.5,95.4,94c-27.2,0-95.4,0.1-95.4,0.1v93.9h240.2V357L1615.8,262.9L1615.8,262.9z"></path><path class="st1" d="M471.8,589.2l145.9,1580.7l632.3,170.2l632.3-170.2l145.9-1580.7H471.8z M1714.8,1101.4L1714.8,1101.4 l-465.4,199l-1.1,0.5h450.1l-51.5,591.9l-396.8,115.8l-0.7-0.2v0.2l-398.9-117.9l-25.7-298.1h0.7v0h197.3l12.9,154.4l212,53.5 l1.8-0.5v0.2l219.5-61.8l15-248.8l-234.5-0.8v0l-437.5-1.4l-15-186.6h0l452.5-188.5l26.4-11H779.7l-23.6-190.9h978L1714.8,1101.4z"></path></svg>