<svg xmlns="http://www.w3.org/2000/svg" id="Layer_2" width="1322.2" height="1127.49" viewBox="0 0 1322.2 1127.49"><defs><style>.cls-1{fill:#fff;}.cls-2{fill:none;}</style></defs><g id="Layer_1-2"><path class="cls-1" d="m1064.6,843.05c-15.12,34.94-33.02,67.1-53.76,96.66-28.27,40.31-51.42,68.21-69.26,83.7-27.65,25.43-57.28,38.46-89.01,39.2-22.78,0-50.25-6.48-82.22-19.63-32.08-13.09-61.56-19.57-88.52-19.57s-58.59,6.48-91.02,19.57c-32.48,13.15-58.65,20-78.65,20.68-30.43,1.3-60.75-12.1-91.02-40.25-19.32-16.85-43.49-45.74-72.44-86.66-31.06-43.7-56.6-94.38-76.6-152.16-21.43-62.41-32.17-122.84-32.17-181.34,0-67.02,14.48-124.82,43.49-173.25,22.8-38.91,53.12-69.6,91.08-92.13,37.96-22.53,78.97-34.01,123.13-34.75,24.17,0,55.86,7.48,95.24,22.17,39.27,14.74,64.49,22.22,75.54,22.22,8.27,0,36.28-8.74,83.76-26.17,44.91-16.16,82.81-22.85,113.85-20.22,84.13,6.79,147.34,39.96,189.38,99.71-75.24,45.59-112.47,109.45-111.73,191.36.68,63.81,23.83,116.9,69.32,159.06,20.62,19.57,43.64,34.69,69.26,45.43-5.56,16.11-11.42,31.54-17.65,46.36h0ZM871.65,83.75c0,50.01-18.27,96.71-54.69,139.93-43.95,51.38-97.11,81.07-154.75,76.39-.73-6-1.16-12.31-1.16-18.95,0-48.01,20.9-99.39,58.02-141.4,18.53-21.27,42.1-38.96,70.68-53.07,28.52-13.9,55.49-21.58,80.86-22.9.74,6.69,1.05,13.37,1.05,20.01h0Z"></path><rect class="cls-2" width="1322.2" height="1127.49"></rect></g></svg>