<svg xmlns="http://www.w3.org/2000/svg" id="Layer_2" data-name="Layer 2" viewBox="0 0 512 397.78"><defs><style>      .cls-1 {        fill: #19afe6;        stroke-width: 0px;      }    </style></defs><g id="Layer_1-2" data-name="Layer 1"><g><path class="cls-1" d="m256.89,196.12c-1.33-3.49-4.67-5.79-8.41-5.78-3.73,0-7.06,2.28-8.4,5.77l-24.94,65.48c-1.48,3.87.47,8.2,4.34,9.68,3.87,1.47,8.2-.47,9.68-4.34l4.37-11.48h29.72l4.32,11.46c1.13,3,3.99,4.85,7.02,4.85.88,0,1.77-.16,2.65-.48,3.88-1.46,5.83-5.79,4.37-9.67l-24.71-65.48Zm-17.65,44.32l9.21-24.19,9.13,24.19h-18.34Z"></path><path class="cls-1" d="m348.58,190.34h-.07c-4.14.04-7.47,3.43-7.43,7.57l.42,43.09-32.66-47.3c-1.86-2.7-5.27-3.87-8.4-2.9-3.13.98-5.27,3.88-5.27,7.16v66.29c0,4.14,3.36,7.5,7.5,7.5s7.5-3.36,7.5-7.5v-42.23l31.15,45.11c2.24,3.23,5.95,4.61,9.47,3.51,3.6-1.12,5.92-4.51,5.92-8.7l-.62-64.18c-.04-4.12-3.39-7.43-7.5-7.43h0Z"></path><path class="cls-1" d="m397.59,191.32h-18.25c-1.99,0-3.9.79-5.31,2.2-1.41,1.41-2.2,3.32-2.19,5.31v63.39c.07,2.33.6,4.71,2.35,6.37,1.41,1.4,3.32,2.18,5.31,2.18.55,0,13.56-.05,18.76-.14,19.04-.33,32.86-16.98,32.86-39.58,0-23.76-13.48-39.73-33.53-39.73h0Zm.4,64.31c-2.53.04-7.09.08-11.05.1-.02-7.62-.08-41.49-.09-49.41h10.74c13.66,0,18.53,12.77,18.53,24.73s-5.6,24.36-18.12,24.58h0Z"></path><path class="cls-1" d="m126.39,226.1c2.56-3.69,4.07-8.16,4.07-12.98,0-12.56-10.22-22.78-22.78-22.78h-19.29c-4.14,0-7.5,3.36-7.5,7.5v66.42c0,1.99.79,3.91,2.21,5.32,1.4,1.4,3.31,2.18,5.29,2.18.03,0,17.77-.08,22.66-.08,13.99,0,25.38-11.38,25.38-25.38,0-8.23-3.94-15.56-10.04-20.2h0Zm-18.71-20.76c4.29,0,7.78,3.49,7.78,7.78s-3.49,7.78-7.78,7.78c-1.39,0-11.79.02-11.79.02v-15.58h11.79Zm3.37,51.34c-2.78,0-9.69.02-15.16.05v-20.78c1.6,0,15.16-.02,15.16-.02,5.72,0,10.38,4.65,10.38,10.38s-4.65,10.38-10.38,10.38h0Z"></path><path class="cls-1" d="m202.95,215.1c0-13.65-11.55-24.76-25.74-24.76h-17.65c-4.16,0-7.52,3.36-7.52,7.5v66.42c0,4.14,3.36,7.5,7.5,7.5s7.5-3.36,7.5-7.5v-20.92l22.78,25.88c1.48,1.68,3.55,2.55,5.63,2.55,1.76,0,3.53-.62,4.95-1.87,3.11-2.74,3.41-7.48.68-10.58l-17.74-20.15c11.24-2.65,19.61-12.42,19.61-24.05h0Zm-25.74,9.76c-2.34,0-6.42.02-10.07.04-.02-3.57-.05-15.82-.06-19.56h10.13c5.82,0,10.74,4.47,10.74,9.76s-4.92,9.76-10.74,9.76h0Z"></path><path class="cls-1" d="m188.21,89.97c0-3.45,2.81-6.26,6.27-6.26s6.26,2.81,6.26,6.26c0,4.14,3.36,7.5,7.5,7.5s7.5-3.36,7.5-7.5c0-11.73-9.54-21.26-21.26-21.26s-21.27,9.54-21.27,21.26c0,4.14,3.36,7.5,7.5,7.5s7.5-3.36,7.5-7.5Z"></path><path class="cls-1" d="m311.26,89.97c0-3.45,2.81-6.26,6.27-6.26s6.27,2.81,6.27,6.26c0,4.14,3.36,7.5,7.5,7.5s7.5-3.36,7.5-7.5c0-11.73-9.54-21.26-21.27-21.26s-21.27,9.54-21.27,21.26c0,4.14,3.36,7.5,7.5,7.5s7.5-3.36,7.5-7.5Z"></path><path class="cls-1" d="m256,120.21c7.76,0,15.15-3.36,20.25-9.22,2.72-3.12,2.4-7.86-.73-10.58-3.12-2.72-7.86-2.4-10.58.73-2.26,2.59-5.52,4.08-8.95,4.08s-6.69-1.49-8.95-4.08c-2.72-3.12-7.46-3.45-10.58-.73-3.12,2.72-3.45,7.46-.73,10.58,5.11,5.86,12.49,9.22,20.26,9.22h0Z"></path><path class="cls-1" d="m486.89,231.05l24.02-57.88c1.83-4.41,1.34-9.43-1.31-13.4-2.65-3.98-7.09-6.35-11.87-6.35h-6.05c1.22-7.38,1.84-14.6,1.83-21.54-.05-35.28-13.84-68.42-38.82-93.33C429.74,13.68,396.64,0,361.44,0h-.2c-41.87.06-80.49,19.58-105.35,52.71C230.96,19.7,192.37.32,150.57.32h-.2c-28.8.04-56.16,9.19-79.11,26.46-3.31,2.49-3.97,7.19-1.48,10.5,2.49,3.31,7.19,3.97,10.5,1.49,20.34-15.3,44.59-23.41,70.12-23.45h.18c40.37,0,77.36,20.41,98.99,54.61,1.38,2.17,3.77,3.49,6.34,3.49,2.59,0,4.98-1.33,6.35-3.51,21.56-34.32,58.57-54.84,99.01-54.9h.18c31.2,0,60.55,12.13,82.65,34.16,22.14,22.08,34.36,51.46,34.41,82.73.01,6.88-.69,14.09-2.05,21.52H35.5c-1.31-7.19-1.99-14.19-2-20.86-.04-25.68,8.09-50.07,23.5-70.53,2.49-3.31,1.83-8.01-1.48-10.5-3.31-2.49-8.01-1.83-10.5,1.48-17.39,23.09-26.56,50.61-26.52,79.58.01,6.72.62,13.7,1.78,20.83h-6c-4.78,0-9.22,2.37-11.87,6.35s-3.15,8.98-1.31,13.4l24.02,57.89L1.1,288.93c-1.83,4.41-1.34,9.42,1.31,13.4,2.65,3.98,7.09,6.35,11.87,6.35h102.19c33.71,32.5,72.73,61.42,110.2,81.6,9.29,5,19.46,7.5,29.64,7.5s20.47-2.53,29.8-7.59c37.24-20.2,76.02-49.08,109.52-81.51h102.1c4.78,0,9.22-2.37,11.87-6.35,2.65-3.98,3.14-8.98,1.31-13.4l-24.02-57.88Zm-151.86,62.63c-4.14,0-7.5,3.36-7.5,7.5s3.36,7.5,7.5,7.5h38.7c-29.75,27.1-62.87,51.02-94.77,68.33-14.13,7.66-31.02,7.69-45.17.07-32.11-17.29-65.43-41.24-95.36-68.39h161.6c4.14,0,7.5-3.36,7.5-7.5s-3.36-7.5-7.5-7.5H15.37l24.8-59.76c.76-1.84.76-3.91,0-5.75l-24.8-59.76h481.27l-24.8,59.76c-.76,1.84-.76,3.91,0,5.75l24.8,59.76h-161.61Z"></path></g></g></svg>