<svg xmlns="http://www.w3.org/2000/svg" id="Layer_2" data-name="Layer 2" viewBox="0 0 436.64 512"><defs><style>      .cls-1 {        fill: #19afe6;        stroke-width: 0px;      }    </style></defs><g id="Layer_1-2" data-name="Layer 1"><g><path class="cls-1" d="m428.71,88.41C358.27,69.11,287.41,39.05,223.8,1.5c-3.38-2-7.57-2-10.95,0C147.4,40.13,80.37,68.56,7.92,88.41c-4.68,1.28-7.92,5.53-7.92,10.39v110.05c0,113.32,52.28,188.33,96.14,231.31,47.22,46.27,102.22,71.85,122.18,71.85s74.97-25.58,122.18-71.85c43.86-42.97,96.13-117.98,96.13-231.31v-110.05c0-4.85-3.24-9.11-7.92-10.39Zm-13.62,120.43c0,105.84-48.76,175.84-89.67,215.92-46.43,45.49-96.07,65.7-107.11,65.7s-60.68-20.2-107.11-65.7c-40.91-40.08-89.67-110.08-89.67-215.92v-101.87c69.28-19.67,133.8-47.12,196.78-83.72,61.41,35.63,129.15,64.45,196.77,83.72v101.87Z"></path><path class="cls-1" d="m122.86,105.77c-2.18-5.54-8.43-8.25-13.97-6.07-19.24,7.58-38.99,14.56-58.69,20.74-4.49,1.41-7.55,5.57-7.55,10.28v41.59c0,5.95,4.82,10.77,10.77,10.77s10.77-4.82,10.77-10.77v-33.72c17.68-5.72,35.34-12.05,52.6-18.85,5.54-2.18,8.25-8.43,6.07-13.97Z"></path><path class="cls-1" d="m143.32,107.81c1.45,0,2.91-.29,4.32-.9l.2-.09c5.45-2.39,7.9-8.73,5.51-14.18-2.39-5.45-8.77-7.91-14.21-5.53l-.17.07c-5.45,2.38-7.91,8.72-5.53,14.17,1.77,4.05,5.73,6.45,9.89,6.45Z"></path><path class="cls-1" d="m346.64,347.28c-4.98-3.25-11.65-1.85-14.91,3.12-8.88,13.58-19.29,26.59-30.95,38.66-9.59,9.92-19.99,19.17-30.89,27.49-4.73,3.61-5.64,10.36-2.03,15.1,2.12,2.78,5.33,4.24,8.57,4.24,2.28,0,4.57-.72,6.52-2.21,11.77-8.97,22.98-18.94,33.32-29.64,12.61-13.04,23.88-27.12,33.5-41.85,3.26-4.98,1.85-11.65-3.12-14.91Z"></path><path class="cls-1" d="m244.88,433.44l-.62.36c-5.15,2.98-6.91,9.57-3.93,14.72,2,3.45,5.61,5.38,9.33,5.38,1.83,0,3.69-.47,5.39-1.45l.71-.42c5.13-3.01,6.86-9.6,3.85-14.74-3.01-5.13-9.61-6.85-14.74-3.85Z"></path><path class="cls-1" d="m144.91,234.02c-6.61-6.61-15.41-10.25-24.76-10.25s-18.15,3.64-24.77,10.25c-13.65,13.66-13.65,35.88,0,49.53l63.6,63.59c6.61,6.61,15.41,10.25,24.76,10.25s18.15-3.64,24.76-10.26l132.76-132.76c13.65-13.66,13.65-35.88,0-49.53-6.61-6.61-15.41-10.25-24.76-10.25s-18.15,3.64-24.77,10.25l-107.99,107.99-38.83-38.83Zm162.06-53.93c2.55-2.54,5.93-3.95,9.53-3.95s6.99,1.4,9.54,3.95c5.26,5.26,5.26,13.81,0,19.07l-132.76,132.76c-2.54,2.55-5.93,3.95-9.53,3.95s-6.99-1.4-9.54-3.95l-63.59-63.59c-5.26-5.26-5.26-13.81,0-19.07,2.55-2.54,5.93-3.95,9.54-3.95s6.99,1.4,9.53,3.95l46.44,46.45c2.02,2.02,4.76,3.15,7.62,3.15s5.6-1.13,7.61-3.15l115.61-115.61Z"></path></g></g></svg>