<svg xmlns="http://www.w3.org/2000/svg" id="Layer_2" data-name="Layer 2" viewBox="0 0 462.04 511"><defs><style>      .cls-1 {        fill: #19afe6;        stroke-width: 0px;      }    </style></defs><g id="Layer_1-2" data-name="Layer 1"><g><path class="cls-1" d="m451.33,266.96c-23.48-23.38-50.63-1.5-50.63-1.5v-123.06c0-4.13-3.35-7.49-7.48-7.49s-7.49,3.35-7.49,7.49v133.59s-35.69,28.14-51.03,35.01V89.43c0-10.3,8.38-18.68,18.68-18.68h13.68c10.3,0,18.68,8.38,18.68,18.68v22.33c0,4.14,3.35,7.49,7.49,7.49s7.48-3.35,7.48-7.49v-22.33c0-18.55-15.09-33.65-33.65-33.65h-13.68c-18.55,0-33.65,15.09-33.65,33.65v227.51c-4.46,1.25-9.04,2.1-13.7,2.55v-157.81c0-18.65-15.17-33.82-33.81-33.82h-13.35c-18.64,0-33.81,15.17-33.81,33.82v76.27l-13.7,7.27v-25.38c0-16.79-13.66-30.44-30.44-30.44h-20.09c-16.79,0-30.44,13.66-30.44,30.44v68.36l-24.44,12.97-68.63,19.61c-11.94,3.41-21.91,11.23-28.07,22.02-6.16,10.79-7.84,23.35-4.71,35.37l7.68,29.54c1.04,4,5.12,6.4,9.13,5.36,4-1.04,6.4-5.13,5.36-9.13l-7.68-29.53c-4.45-17.13,5.39-34.36,22.41-39.22l62.75-17.93,47.16,125.87c3.16,8.43,2.66,32.48-22.29,41.34l-47.42,10.77c-16.53,3.75-32.81-6.16-37.08-22.56l-9.63-37.04c-1.04-4-5.13-6.4-9.13-5.36-4,1.04-6.4,5.13-5.36,9.13l9.63,37.04c5.41,20.81,23.9,34.56,44.48,34.56,15.12,0,57.82-11.95,57.82-11.95,12.99-2.95,24.07-11.37,30.39-23.1,5.22-9.68,6.76-20.81,4.53-31.42l164.05-40.16c13.57-3.33,26.45-9.77,37.24-18.64l79.84-65.6c24.34-21.59,10.06-46.05,2.9-53.18Zm-192.46-124.12h13.35c10.39,0,18.84,8.46,18.84,18.85v158.18l-47.23-.02c-4.34-.04-1.34-2.9-1.1-3.1l13.6-11.02c12.69-10.28,20.98-24.57,24.63-42.49,2.32-11.36-2.02-22.74-11.31-29.69-8.68-6.49-19.84-7.73-29.63-3.45v-68.42c0-10.39,8.45-18.85,18.84-18.85Zm-113.51,77.01c0-8.53,6.94-15.47,15.47-15.47h20.09c8.53,0,15.47,6.94,15.47,15.47v33.33l-51.03,27.09v-60.41h0Zm293.56,88.73l-79.84,65.6c-9.07,7.45-19.89,12.87-31.29,15.66l-165.26,40.46-44.44-118.61,126.9-67.36c5.16-2.74,11.03-2.28,15.71,1.21s6.77,8.99,5.61,14.71c-2.94,14.42-9.47,25.81-19.39,33.84l-13.6,11.02c-5.58,4.51-7.63,11.8-5.24,18.57,2.39,6.76,8.58,11.13,15.75,11.13l54.54.02h.04c19.42,0,38.07-5.9,53.96-17.07l60.95-42.86c8.53-6,20.02-4.94,27.31,2.52,4.2,4.29,12.42,17.03-1.7,31.15Z"></path><path class="cls-1" d="m122.68,447.92c0-16.26-13.23-29.49-29.49-29.49s-29.49,13.23-29.49,29.49,13.23,29.49,29.49,29.49,29.49-13.23,29.49-29.49Zm-44.01,0c0-8.01,6.51-14.52,14.52-14.52s14.52,6.51,14.52,14.52-6.51,14.52-14.52,14.52-14.52-6.51-14.52-14.52Z"></path><path class="cls-1" d="m39.36,235.02l108.81-109.65,24.48,12.66c8.77,4.53,19.44,2.98,26.55-3.86l59.23-57.01s-1.63,29.28,23.03,29.28c12.69,0,23.03-10.33,23.03-23.03V23.03c0-.07,0-.14,0-.22-.08-15.75-11.6-22.81-23.02-22.81h-59.86c-12.7,0-23.03,10.33-23.03,23.03,0,25.31,25.76,23.03,25.76,23.03l-45.19,43.49-24.83-12.84c-8.98-4.65-19.8-2.94-26.92,4.23L6.67,202.58c-8.94,9.01-8.89,23.62.12,32.57,4.34,4.31,19.17,13.26,32.56-.12Zm-22.06-21.89l120.72-121.65c1.56-1.57,4.06-4.31,9.42-1.48l29.59,15.31c2.85,1.47,6.32.97,8.63-1.26l62.43-60.09c2.2-2.12,2.89-5.36,1.75-8.19-1.14-2.83-3.89-4.69-6.94-4.69h-21.3c-4.44,0-8.05-3.61-8.05-8.06s3.61-8.05,8.05-8.05h59.86c2.2,0,8.05,0,8.05,8.01,0,.07,0,.13,0,.2v60.23c0,4.44-3.61,8.05-8.05,8.05s-8.06-3.61-8.06-8.05v-23.85c0-3-1.79-5.72-4.55-6.89-2.76-1.18-5.96-.58-8.12,1.5l-71.91,69.22c-2.49,2.39-6.22,2.94-9.29,1.35l-29.36-15.19c-2.9-1.5-6.45-.94-8.75,1.38L28.73,224.48c-4.91,4.91-9.88,1.55-11.4.04-3.15-3.13-3.17-8.24-.04-11.39Z"></path></g></g></svg>