<svg xmlns="http://www.w3.org/2000/svg" id="Layer_2" data-name="Layer 2" viewBox="0 0 480 480"><defs><style>      .cls-1 {        fill: #19afe6;        stroke-width: 0px;      }    </style></defs><g id="Layer_1-2" data-name="Layer 1"><g><path class="cls-1" d="m200,80h80v16h-80v-16Z"></path><path class="cls-1" d="m200,112h80v16h-80v-16Z"></path><path class="cls-1" d="m440,416v-64c0-3.55-2.34-6.68-5.76-7.68l-186.24-54.32v-98h56c4.42,0,8-3.58,8-8V56c0-2.12-.84-4.16-2.34-5.66L261.66,2.34c-1.5-1.5-3.53-2.34-5.66-2.34h-80c-4.42,0-8,3.58-8,8v176c0,4.42,3.58,8,8,8h56v98l-186.24,54.32c-3.42,1-5.76,4.13-5.76,7.68v64c0,3.55,2.34,6.68,5.76,7.68l192,56c.74.22,1.48.32,2.24.32s1.5-.1,2.24-.32l192-56c3.42-1,5.76-4.13,5.76-7.68ZM264,27.31l20.69,20.69h-20.69v-20.69Zm-80-11.31h64v40c0,4.42,3.58,8,8,8h40v112h-112V16Zm48,290.66v42.02l-18.34-18.34-11.31,11.31,32,32c1.56,1.56,3.61,2.34,5.66,2.34s4.1-.78,5.66-2.34l32-32-11.31-11.31-18.34,18.34v-42.02l155.43,45.34-163.43,47.66-163.43-47.66,155.43-45.34Zm-176,56l176,51.34v47.34l-176-51.34v-47.34Zm192,98.67v-47.34l176-51.34v47.34l-176,51.34Z"></path><path class="cls-1" d="m200,48h32v16h-32v-16Z"></path><path class="cls-1" d="m8,192h56c0,22.06,17.94,40,40,40h24c13.23,0,24,10.77,24,24v12.69l-18.34-18.34-11.31,11.31,32,32c1.56,1.56,3.61,2.34,5.66,2.34s4.1-.78,5.66-2.34l32-32-11.31-11.31-18.34,18.34v-12.69c0-22.06-17.94-40-40-40h-24c-13.23,0-24-10.77-24-24h56c4.42,0,8-3.58,8-8V56c0-2.12-.84-4.16-2.34-5.66L93.66,2.34c-1.5-1.5-3.53-2.34-5.66-2.34H8C3.58,0,0,3.58,0,8v176c0,4.42,3.58,8,8,8h0ZM96,27.31l20.69,20.69h-20.69v-20.69ZM16,16h64v40c0,4.42,3.58,8,8,8h40v112H16V16Z"></path><path class="cls-1" d="m32,80h80v16H32v-16Z"></path><path class="cls-1" d="m32,112h80v16H32v-16Z"></path><path class="cls-1" d="m32,144h80v16H32v-16Z"></path><path class="cls-1" d="m32,48h32v16H32v-16Z"></path><path class="cls-1" d="m480,184V56c0-2.12-.84-4.16-2.34-5.66L429.66,2.34c-1.5-1.5-3.53-2.34-5.66-2.34h-80c-4.42,0-8,3.58-8,8v176c0,4.42,3.58,8,8,8h56c0,13.23-10.77,24-24,24h-24c-22.06,0-40,17.94-40,40v12.69l-18.34-18.34-11.31,11.31,32,32c1.56,1.56,3.61,2.34,5.66,2.34s4.1-.78,5.66-2.34l32-32-11.31-11.31-18.34,18.34v-12.69c0-13.23,10.77-24,24-24h24c22.06,0,40-17.94,40-40h56c4.42,0,8-3.58,8-8Zm-48-156.69l20.69,20.69h-20.69v-20.69Zm-80,148.69V16h64v40c0,4.42,3.58,8,8,8h40v112h-112Z"></path><path class="cls-1" d="m368,80h80v16h-80v-16Z"></path><path class="cls-1" d="m368,112h80v16h-80v-16Z"></path><path class="cls-1" d="m368,144h80v16h-80v-16Z"></path><path class="cls-1" d="m368,48h32v16h-32v-16Z"></path><path class="cls-1" d="m200,144h16v16h-16v-16Z"></path><path class="cls-1" d="m232,144h16v16h-16v-16Z"></path><path class="cls-1" d="m264,144h16v16h-16v-16Z"></path></g></g></svg>