<svg xmlns="http://www.w3.org/2000/svg" id="Layer_2" data-name="Layer 2" viewBox="0 0 480.04 480"><defs><style>      .cls-1 {        fill: #19afe6;        stroke-width: 0px;      }    </style></defs><g id="Layer_1-2" data-name="Layer 1"><g id="Online_Shopping-Shopping-Smartphone-Shopping_Bag-Commerce" data-name="Online Shopping-Shopping-Smartphone-Shopping Bag-Commerce"><path class="cls-1" d="m128,32h16v16h-16v-16Z"></path><path class="cls-1" d="m160,32h64v16h-64v-16Z"></path><path class="cls-1" d="m312,344c-.03,22.08-17.92,39.97-40,40H125.86l27.5-47.63c-.87,2.45-1.33,5.03-1.36,7.63,0,13.25,10.75,24,24,24h32c13.25,0,24-10.75,24-24s-10.75-24-24-24h-32c-7.73.01-14.97,3.76-19.46,10.06,6.89-16.23-.68-34.97-16.91-41.85-14.85-6.3-32.07-.53-40.13,13.45l-27.2,47.14c-.2-1.59-.3-3.18-.3-4.78V56c.03-22.08,17.92-39.97,40-40h160c14.28.03,27.47,7.65,34.64,20l13.85-8C310.45,10.71,291.99.05,272,0H112c-30.91.04-55.96,25.09-56,56v154.4c-5.09,2.37-9.19,6.45-11.58,11.53l-36.31,78.78C2.73,312.26-.04,324.86,0,337.6v142.4h16v-142.4c-.04-10.42,2.23-20.72,6.62-30.17l33.38-72.42v108.98c0,9.55,2.44,18.95,7.11,27.29,1.8,4.03,6.53,5.84,10.57,4.04,1.55-.69,2.84-1.86,3.68-3.33l36-62.35c4.47-7.62,14.27-10.18,21.89-5.71,7.55,4.43,10.14,14.1,5.82,21.71l-36,62.35c-1.46,2.52-1.43,5.63.07,8.13l17.14,28.48c3.74,6.23,5.71,13.36,5.72,20.62v34.69h16v-34.69c0-10.17-2.77-20.15-8-28.86l-9.85-16.37h145.85c30.91-.04,55.96-25.09,56-56v-40h-16v40Zm-136-8h32c4.42,0,8,3.58,8,8s-3.58,8-8,8h-32c-4.42,0-8-3.58-8-8s3.58-8,8-8Z"></path><path class="cls-1" d="m456.88,94.56c-40.49-57.95-120.29-72.11-178.24-31.62-48.77,34.08-67.64,97.27-45.52,152.5l-27.04,45.84c-1.59,2.69-1.47,6.07.32,8.64,1.83,2.56,4.98,3.84,8.08,3.28l52.24-9.76c17.74,15.9,39.58,26.52,63.04,30.64,7.37,1.27,14.84,1.91,22.32,1.92,70.69-.02,127.98-57.34,127.96-128.04,0-26.27-8.09-51.89-23.16-73.4h0Zm5.44,92.88c-10.74,60.92-68.83,101.59-129.75,90.85-21.75-3.83-41.88-14.01-57.85-29.25-1.5-1.39-3.47-2.16-5.52-2.16-.48-.01-.96.01-1.44.08l-38.96,7.28,20.16-34.08c1.27-2.22,1.45-4.91.48-7.28-8.92-20.19-11.62-42.59-7.76-64.32,10.74-60.93,68.83-101.62,129.76-90.88,60.93,10.74,101.62,68.83,90.88,129.76Z"></path><path class="cls-1" d="m408,120h-24v-8c0-17.67-14.33-32-32-32s-32,14.33-32,32v8h-24c-4.42,0-8,3.58-8,8v96c.04,13.24,10.76,23.96,24,24h80c13.24-.04,23.96-10.76,24-24v-96c0-4.42-3.58-8-8-8Zm-72-8c0-8.84,7.16-16,16-16s16,7.16,16,16v8h-32v-8Zm64,112c0,4.42-3.58,8-8,8h-80c-4.42,0-8-3.58-8-8v-8h96v8Zm0-24h-96v-64h16v16h16v-16h32v16h16v-16h16v64Z"></path><path class="cls-1" d="m162.34,106.34l-12.32,12.32c-18.48-12.23-43.37-7.17-55.6,11.31-12.23,18.48-7.17,43.37,11.31,55.6s43.37,7.17,55.6-11.31c8.89-13.43,8.89-30.86,0-44.29l12.32-12.32-11.31-11.31Zm-10.34,45.66c0,13.25-10.75,24-24,24s-24-10.75-24-24,10.75-24,24-24c3.56.01,7.08.83,10.28,2.4l-23.94,23.94,11.31,11.31,23.94-23.93c1.57,3.2,2.39,6.72,2.4,10.28h0Z"></path><path class="cls-1" d="m184,128h32v16h-32v-16Z"></path><path class="cls-1" d="m184,160h32v16h-32v-16Z"></path></g></g></svg>