<svg xmlns="http://www.w3.org/2000/svg" id="Layer_2" data-name="Layer 2" viewBox="0 0 512.04 512.03"><defs><style>      .cls-1 {        fill: #19afe6;        stroke-width: 0px;      }    </style></defs><g id="Layer_1-2" data-name="Layer 1"><g><path class="cls-1" d="m502.43,215.19c-38.8-22.03-82.37-34.29-126.97-35.74v-102.6c0-18.85-15.28-34.13-34.13-34.13h-62.11c-3.02-5.26-8.62-8.52-14.69-8.53h-34.99C224.86,11.09,202.34-3.83,179.24.86c-16.79,3.41-29.91,16.53-33.32,33.32h-34.99c-6.07.02-11.67,3.27-14.69,8.53h-62.11C15.28,42.72,0,58,0,76.85v366.93c0,18.85,15.28,34.13,34.13,34.13h281.28c12.53,12.53,26.75,23.23,42.27,31.79,5.78,3.11,12.72,3.11,18.5,0,116.52-63.6,133.54-241.54,135.82-276.57.49-7.32-3.22-14.27-9.57-17.95Zm-144.03-138.33v102.6c-5.82.19-11.53.52-17.07,1.05v-86.58c0-9.43-7.64-17.07-17.07-17.07h-42.67v-17.07h59.73c9.43,0,17.07,7.64,17.07,17.07Zm-247.47-25.6h42.67c4.71,0,8.53-3.82,8.53-8.53,0-14.14,11.46-25.6,25.6-25.6s25.6,11.46,25.6,25.6c0,4.71,3.82,8.53,8.53,8.53h42.67v34.13H110.93v-34.13Zm153.6,51.2c6.07-.02,11.67-3.27,14.69-8.53h45.04v88.75c-32.66,5.13-64.11,16.13-92.84,32.49-6.31,3.68-10,10.63-9.51,17.92,1.55,24.33,10.24,117.57,54.46,193.59H51.2V93.92h45.04c3.02,5.26,8.62,8.52,14.69,8.53h153.6ZM34.13,460.85c-9.43,0-17.07-7.64-17.07-17.07V76.85c0-9.43,7.64-17.07,17.07-17.07h59.73v17.07h-42.67c-9.43,0-17.07,7.64-17.07,17.07v332.8c0,9.43,7.64,17.07,17.07,17.07h235.9c3.98,5.87,8.25,11.56,12.8,17.07H34.13Zm460.8-228.8c-2.12,33.45-18.26,203.37-126.92,262.66-.67.35-1.47.35-2.13,0-108.67-59.3-124.81-229.21-126.94-262.68-.06-.87.37-1.7,1.13-2.13,78.65-44.78,175.08-44.78,253.72,0,.76.43,1.2,1.26,1.13,2.13l.02.02Z"></path><path class="cls-1" d="m466.1,234.91c-63-28.69-135.33-28.69-198.33,0-6.76,3.01-10.82,10.03-10.06,17.39,13.33,130.73,67.55,191.21,98.69,215.62h0c6.17,4.85,14.85,4.85,21.02,0,31.14-24.41,85.33-84.88,98.69-215.62.76-7.35-3.27-14.36-10-17.39Zm-99.17,219.6h0c-29.01-22.74-79.54-79.48-92.16-204.01,58.57-26.73,125.86-26.7,184.41.08-12.72,124.44-63.23,181.18-92.25,203.93Z"></path><path class="cls-1" d="m91.37,164.68c-3.39-3.27-8.79-3.18-12.07.21-3.19,3.31-3.19,8.55,0,11.86l8.53,8.53c3.33,3.33,8.73,3.33,12.07,0l34.13-34.13c3.27-3.39,3.18-8.79-.21-12.07-3.31-3.19-8.55-3.19-11.86,0l-28.1,28.1-2.5-2.5Z"></path><path class="cls-1" d="m170.67,170.72h119.47c4.71,0,8.53-3.82,8.53-8.53s-3.82-8.53-8.53-8.53h-119.47c-4.71,0-8.53,3.82-8.53,8.53s3.82,8.53,8.53,8.53Z"></path><path class="cls-1" d="m121.97,207.35l-28.1,28.1-2.5-2.5c-3.39-3.27-8.79-3.18-12.07.21-3.19,3.31-3.19,8.55,0,11.86l8.53,8.53c3.33,3.33,8.73,3.33,12.07,0l34.13-34.13c3.27-3.39,3.18-8.79-.21-12.07-3.31-3.19-8.55-3.19-11.86,0h0Z"></path><path class="cls-1" d="m170.67,238.98h25.6c4.71,0,8.53-3.82,8.53-8.53s-3.82-8.53-8.53-8.53h-25.6c-4.71,0-8.53,3.82-8.53,8.53s3.82,8.53,8.53,8.53Z"></path><path class="cls-1" d="m121.97,275.62l-28.1,28.1-2.5-2.5c-3.39-3.27-8.79-3.18-12.07.21-3.19,3.31-3.19,8.55,0,11.86l8.53,8.53c3.33,3.33,8.73,3.33,12.07,0l34.13-34.13c3.27-3.39,3.18-8.79-.21-12.07-3.31-3.19-8.55-3.19-11.86,0Z"></path><path class="cls-1" d="m170.67,307.25h34.13c4.71,0,8.53-3.82,8.53-8.53s-3.82-8.53-8.53-8.53h-34.13c-4.71,0-8.53,3.82-8.53,8.53s3.82,8.53,8.53,8.53Z"></path><path class="cls-1" d="m121.97,343.88l-28.1,28.1-2.5-2.5c-3.39-3.27-8.79-3.18-12.07.21-3.19,3.31-3.19,8.55,0,11.86l8.53,8.53c3.33,3.33,8.73,3.33,12.07,0l34.13-34.13c3.27-3.39,3.18-8.79-.21-12.07-3.31-3.19-8.55-3.19-11.86,0Z"></path><path class="cls-1" d="m338.83,335.35c-3.39-3.27-8.79-3.18-12.07.21-3.19,3.31-3.19,8.55,0,11.86l17.07,17.07c1.6,1.6,3.77,2.5,6.03,2.5h.61c2.47-.18,4.74-1.43,6.22-3.41l51.2-68.27c2.83-3.77,2.07-9.12-1.7-11.95-3.77-2.83-9.12-2.07-11.95,1.7,0,0,0,0,0,.01l-45.29,60.4-10.11-10.11Z"></path><path class="cls-1" d="m170.67,375.52h51.2c4.71,0,8.53-3.82,8.53-8.53s-3.82-8.53-8.53-8.53h-51.2c-4.71,0-8.53,3.82-8.53,8.53s3.82,8.53,8.53,8.53Z"></path></g></g></svg>