<svg xmlns="http://www.w3.org/2000/svg" id="Layer_2" data-name="Layer 2" viewBox="0 0 512 464.4"><defs><style>      .cls-1 {        fill: #19afe6;        stroke-width: 0px;      }    </style></defs><g id="Layer_1-2" data-name="Layer 1"><g><path class="cls-1" d="m499.5,29.11h-27.5c-4.14,0-7.5,3.36-7.5,7.5s3.36,7.5,7.5,7.5h25v405.29H110c-4.14,0-7.5,3.36-7.5,7.5s3.36,7.5,7.5,7.5h389.5c6.89,0,12.5-5.61,12.5-12.5V41.61c0-6.89-5.61-12.5-12.5-12.5Z"></path><path class="cls-1" d="m74,449.4H15V44.11h80.57c1.13,1.38,2.61,2.6,4.39,3.57l39.36,21.44c5.2,2.83,13.58,4.97,19.51,4.97h244.22c8.81,0,15.98-7.16,15.98-15.95v-14.02h17.98c4.14,0,7.5-3.36,7.5-7.5s-3.36-7.5-7.5-7.5h-17.98v-13.16c0-8.79-7.17-15.95-15.98-15.95h-244.22c-5.93,0-14.31,2.14-19.51,4.97l-39.36,21.43c-1.4.77-2.62,1.68-3.62,2.71H12.5c-6.89,0-12.5,5.61-12.5,12.5v410.29c0,6.89,5.61,12.5,12.5,12.5h61.5c4.14,0,7.5-3.36,7.5-7.5s-3.36-7.5-7.5-7.5ZM369.84,15h33.2c.52,0,.98.45.98.95v42.18c0,.51-.46.95-.98.95h-33.2V15Zm-200.1,0h185.1v14.54h-185.1v-14.54Zm0,29.54h185.1v14.54h-185.1v-14.54Zm-32.24-21.51l8.99-4.89c2-1.09,5.27-2.12,8.25-2.68v43.17c-2.98-.57-6.25-1.59-8.25-2.68l-8.99-4.89v-28.02Zm-15,8.17v11.67l-10.71-5.84,10.71-5.84Z"></path><path class="cls-1" d="m255.99,425.02c28.32,0,52.97-18.33,61.34-45.62,1.21-3.96-1.01-8.15-4.97-9.37-3.96-1.21-8.16,1.01-9.37,4.97-6.43,20.94-25.31,35.02-47,35.02-27.14,0-49.22-22.34-49.22-49.8s22.08-49.8,49.22-49.8c20.85,0,39.5,13.36,46.43,33.25,1.36,3.91,5.64,5.98,9.55,4.62,3.91-1.36,5.98-5.63,4.62-9.55-9.02-25.91-33.37-43.32-60.59-43.32-35.41,0-64.22,29.07-64.22,64.8s28.81,64.8,64.22,64.8Z"></path><path class="cls-1" d="m239.34,351.71v-5.9c0-4.14-3.36-7.5-7.5-7.5s-7.5,3.36-7.5,7.5v5.9c0,4.14,3.36,7.5,7.5,7.5s7.5-3.36,7.5-7.5Z"></path><path class="cls-1" d="m287.63,351.71v-5.9c0-4.14-3.36-7.5-7.5-7.5s-7.5,3.36-7.5,7.5v5.9c0,4.14,3.36,7.5,7.5,7.5s7.5-3.36,7.5-7.5Z"></path><path class="cls-1" d="m239.36,386.32h33.25c4.14,0,7.5-3.36,7.5-7.5s-3.36-7.5-7.5-7.5h-33.25c-4.14,0-7.5,3.36-7.5,7.5s3.36,7.5,7.5,7.5Z"></path><path class="cls-1" d="m113.45,425.02c35.41,0,64.21-29.07,64.21-64.8s-28.8-64.8-64.21-64.8-64.21,29.07-64.21,64.8,28.8,64.8,64.21,64.8Zm0-114.61c27.14,0,49.21,22.34,49.21,49.8s-22.07,49.8-49.21,49.8-49.21-22.34-49.21-49.8,22.08-49.8,49.21-49.8Z"></path><path class="cls-1" d="m89.3,359.21c4.14,0,7.5-3.36,7.5-7.5v-5.9c0-4.14-3.36-7.5-7.5-7.5s-7.5,3.36-7.5,7.5v5.9c0,4.14,3.36,7.5,7.5,7.5Z"></path><path class="cls-1" d="m137.59,359.21c4.14,0,7.5-3.36,7.5-7.5v-5.9c0-4.14-3.36-7.5-7.5-7.5s-7.5,3.36-7.5,7.5v5.9c0,4.14,3.36,7.5,7.5,7.5Z"></path><path class="cls-1" d="m87.89,373.91c0,13.1,11.46,23.75,25.56,23.75s25.55-10.66,25.55-23.75c0-4.14-3.36-7.5-7.5-7.5s-7.5,3.36-7.5,7.5c0,4.83-4.73,8.75-10.55,8.75s-10.56-3.93-10.56-8.75c0-4.14-3.36-7.5-7.5-7.5s-7.5,3.36-7.5,7.5Z"></path><path class="cls-1" d="m398.55,425.02c35.41,0,64.21-29.07,64.21-64.8s-28.8-64.8-64.21-64.8-64.21,29.07-64.21,64.8,28.8,64.8,64.21,64.8Zm0-114.61c27.14,0,49.21,22.34,49.21,49.8s-22.08,49.8-49.21,49.8-49.21-22.34-49.21-49.8,22.08-49.8,49.21-49.8Z"></path><path class="cls-1" d="m374.41,359.21c4.14,0,7.5-3.36,7.5-7.5v-5.9c0-4.14-3.36-7.5-7.5-7.5s-7.5,3.36-7.5,7.5v5.9c0,4.14,3.36,7.5,7.5,7.5Z"></path><path class="cls-1" d="m422.7,359.21c4.14,0,7.5-3.36,7.5-7.5v-5.9c0-4.14-3.36-7.5-7.5-7.5s-7.5,3.36-7.5,7.5v5.9c0,4.14,3.36,7.5,7.5,7.5Z"></path><path class="cls-1" d="m373,386.96c0,4.14,3.36,7.5,7.5,7.5s7.5-3.36,7.5-7.5c0-4.82,4.73-8.75,10.55-8.75s10.56,3.93,10.56,8.75c0,4.14,3.36,7.5,7.5,7.5s7.5-3.36,7.5-7.5c0-13.1-11.47-23.75-25.56-23.75s-25.55,10.65-25.55,23.75Z"></path><path class="cls-1" d="m59.73,172.96h52c5.79,0,10.5-4.71,10.5-10.5v-43.29l2.96-2.98c2.92-2.94,2.9-7.69-.04-10.61-1.51-1.5-3.5-2.22-5.47-2.17-1.93-2.23-4.77-3.66-7.95-3.66h-52c-5.79,0-10.5,4.71-10.5,10.5v52.21c0,5.79,4.71,10.5,10.5,10.5Zm4.5-58.21h41.24l-18.39,18.53-6.06-6.11c-2.91-2.94-7.66-2.96-10.61-.04-2.94,2.92-2.96,7.67-.04,10.61l9.27,9.34c1.98,2,4.62,3.1,7.44,3.1h0c2.82,0,5.45-1.1,7.43-3.09l12.72-12.81v23.68h-43v-43.21Z"></path><path class="cls-1" d="m145.8,131.58h89.36c4.14,0,7.5-3.36,7.5-7.5s-3.36-7.5-7.5-7.5h-89.36c-4.14,0-7.5,3.36-7.5,7.5s3.36,7.5,7.5,7.5Z"></path><path class="cls-1" d="m145.8,156.14h50.89c4.14,0,7.5-3.36,7.5-7.5s-3.36-7.5-7.5-7.5h-50.89c-4.14,0-7.5,3.36-7.5,7.5s3.36,7.5,7.5,7.5Z"></path><path class="cls-1" d="m49.23,257.72c0,5.79,4.71,10.5,10.5,10.5h52c5.79,0,10.5-4.71,10.5-10.5v-52.21c0-5.79-4.71-10.5-10.5-10.5h-52c-5.79,0-10.5,4.71-10.5,10.5v52.21Zm15-47.71h43v43.2h-43v-43.2Z"></path><path class="cls-1" d="m145.8,226.84h89.36c4.14,0,7.5-3.36,7.5-7.5s-3.36-7.5-7.5-7.5h-89.36c-4.14,0-7.5,3.36-7.5,7.5s3.36,7.5,7.5,7.5Z"></path><path class="cls-1" d="m204.18,243.89c0-4.14-3.36-7.5-7.5-7.5h-50.89c-4.14,0-7.5,3.36-7.5,7.5s3.36,7.5,7.5,7.5h50.89c4.14,0,7.5-3.36,7.5-7.5Z"></path><path class="cls-1" d="m279.84,172.96h52c5.79,0,10.5-4.71,10.5-10.5v-52.21c0-5.79-4.71-10.5-10.5-10.5h-52c-5.79,0-10.5,4.71-10.5,10.5v52.21c0,5.79,4.71,10.5,10.5,10.5Zm4.5-58.21h43v43.21h-43v-43.21Z"></path><path class="cls-1" d="m358.41,124.08c0,4.14,3.36,7.5,7.5,7.5h89.36c4.14,0,7.5-3.36,7.5-7.5s-3.36-7.5-7.5-7.5h-89.36c-4.14,0-7.5,3.36-7.5,7.5Z"></path><path class="cls-1" d="m365.91,156.14h50.89c4.14,0,7.5-3.36,7.5-7.5s-3.36-7.5-7.5-7.5h-50.89c-4.14,0-7.5,3.36-7.5,7.5s3.36,7.5,7.5,7.5Z"></path><path class="cls-1" d="m342.34,257.72v-52.21c0-5.79-4.71-10.5-10.5-10.5h-52c-5.79,0-10.5,4.71-10.5,10.5v52.21c0,5.79,4.71,10.5,10.5,10.5h52c5.79,0,10.5-4.71,10.5-10.5Zm-15-4.5h-43v-43.21h43v43.21Z"></path><path class="cls-1" d="m455.27,211.84h-89.36c-4.14,0-7.5,3.36-7.5,7.5s3.36,7.5,7.5,7.5h89.36c4.14,0,7.5-3.36,7.5-7.5s-3.36-7.5-7.5-7.5Z"></path><path class="cls-1" d="m416.8,251.39c4.14,0,7.5-3.36,7.5-7.5s-3.36-7.5-7.5-7.5h-50.89c-4.14,0-7.5,3.36-7.5,7.5s3.36,7.5,7.5,7.5h50.89Z"></path></g></g></svg>