<svg xmlns="http://www.w3.org/2000/svg" id="Layer_2" data-name="Layer 2" viewBox="0 0 512.01 512"><defs><style>      .cls-1 {        fill: #19afe6;        stroke-width: 0px;      }    </style></defs><g id="Layer_1-2" data-name="Layer 1"><g id="_Group_" data-name="&amp;lt;Group&amp;gt;"><path id="_6" data-name="6" class="cls-1" d="m280.93.13c25.81,2.49,50.46,8.75,73.39,18.24.15.06.3.13.43.19,23.75,9.88,45.67,23.16,65.11,39.24,3.42,2.82,3.9,7.86,1.08,11.27-.16.2-.34.39-.52.56l-41.52,41.45c-3.05,3.04-7.97,3.11-11.12.22-12.7-9.84-26.78-18.03-41.92-24.29-.13-.06-.26-.11-.39-.16-14.74-6.06-30.52-10.25-46.98-12.25-4.09-.5-7.08-3.96-7.06-7.96h-.02V8.02c0-4.43,3.6-8.02,8.04-8.02.5,0,1,.04,1.48.13h0Zm67.25,33.02c-19.14-7.91-39.5-13.44-60.69-16.2v42.71c15.32,2.43,30.1,6.64,44.11,12.4.13.06.28.09.41.17,14.4,5.94,27.97,13.56,40.45,22.58l30.27-30.2c-16.53-12.67-34.71-23.24-54.14-31.32-.15-.05-.28-.09-.41-.15h0Zm-114.9,41.47c-16.55,2.04-32.37,6.28-47.17,12.4-15.28,6.32-29.52,14.66-42.4,24.68-3.23,2.5-7.78,2.17-10.58-.65l-.02.02-41.52-41.43c-3.14-3.13-3.14-8.21,0-11.34.27-.28.56-.52.87-.76,19.52-16.08,41.47-29.35,65.22-39.17.15-.06.28-.11.43-.17C181.16,8.71,205.92,2.49,231.82.06c4.4-.39,8.3,2.85,8.7,7.25.02.24.04.48.04.72h.02v58.61c0,4.17-3.22,7.62-7.3,7.98h0Zm-53.24-2.39c14.11-5.84,29.01-10.1,44.48-12.56V16.95c-21.06,2.74-41.29,8.21-60.3,16.03-.14.06-.26.11-.39.17-19.61,8.12-37.92,18.74-54.54,31.48l30.27,30.21c12.48-9.02,26.05-16.64,40.49-22.61h0Zm-68.51,71.68c-9.86,12.72-18.08,26.76-24.33,41.81-6.16,14.84-10.42,30.7-12.46,47.31-.5,4.08-3.97,7.04-7.96,7.04H8.02c-4.44,0-8.02-3.58-8.02-8.01,0-.52.04-1,.13-1.48,2.49-25.72,8.76-50.32,18.27-73.2v-.04c9.9-23.83,23.27-45.84,39.5-65.4,2.82-3.41,7.89-3.87,11.29-1.06.2.15.39.33.57.5l41.53,41.44c3.04,3.04,3.12,7.95.22,11.08h0Zm-39.15,35.73c5.98-14.38,13.61-27.93,22.64-40.38l-30.26-30.2c-12.76,16.59-23.41,34.86-31.55,54.42-7.93,19.09-13.46,39.4-16.23,60.56h42.81c2.47-15.44,6.74-30.3,12.59-44.4Zm381.98-87.39c16.1,19.46,29.38,41.38,39.24,65.11,9.6,23.13,15.92,47.98,18.35,73.98.39,4.39-2.86,8.28-7.26,8.67-.24.02-.48.04-.71.04v.02h-58.74c-4.2,0-7.64-3.21-8-7.28-2.04-16.51-6.28-32.28-12.41-47.03h-.02c-6.35-15.3-14.71-29.52-24.74-42.34-2.51-3.22-2.18-7.76.65-10.56l-.02-.02,41.53-41.45c3.14-3.13,8.23-3.13,11.36,0,.28.28.54.57.76.87h0Zm24.44,71.19c-8.11-19.53-18.78-37.8-31.55-54.38l-30.27,30.2c9.06,12.47,16.7,26,22.66,40.36h-.02l.02.04c5.85,14.08,10.12,28.95,12.59,44.38h42.81c-2.77-21.16-8.32-41.49-16.23-60.6h0Zm33.08,116.91c-6.31,65.2-37.03,123.25-82.92,164.91-45.67,41.47-106.36,66.74-172.96,66.74s-127.27-25.27-172.94-66.74C36.98,403.41,6.18,345.08.06,279.57c-.39-4.4,2.84-8.28,7.24-8.67.24-.02.48-.04.72-.04v-.03h58.74c4.17,0,7.61,3.2,7.98,7.28,5.63,45.22,27.84,85.32,60.36,113.98,32.18,28.38,74.51,45.6,120.88,45.6s88.71-17.23,120.9-45.6c32.57-28.72,54.8-68.89,60.38-114.2.5-4.08,3.97-7.06,7.97-7.04v-.02h58.74c4.42,0,8.03,3.59,8.03,8.02,0,.53-.05,1.03-.14,1.5h0Zm-93.72,153.07c41.15-37.38,69.31-88.75,76.87-146.54h-42.81c-7.41,46.38-30.96,87.41-64.72,117.19-35.05,30.91-81.1,49.66-131.5,49.66s-96.44-18.75-131.49-49.66c-33.76-29.78-57.32-70.8-64.72-117.19H16.98c7.56,57.8,35.72,109.16,76.87,146.54,42.8,38.86,99.69,62.56,162.15,62.56s119.36-23.7,162.16-62.56h0Z"></path><path id="_5" data-name="5" class="cls-1" d="m311.82,233.3c6.13,15.38,5.44,31.78-.62,45.86-6.08,14.06-17.55,25.84-33,31.98-15.43,6.11-31.87,5.43-45.97-.63-14.1-6.07-25.9-17.51-32.06-32.91-6.13-15.4-5.46-31.8.62-45.86,6.07-14.08,17.55-25.85,33-31.98,15.43-6.12,31.87-5.45,45.96.61,14.1,6.07,25.91,17.52,32.06,32.94h0Zm-15.38,39.52c4.47-10.34,4.99-22.37.5-33.63v-.02c-4.5-11.25-13.15-19.62-23.53-24.07-10.36-4.46-22.42-4.98-33.71-.5-11.29,4.48-19.69,13.12-24.14,23.46-4.47,10.36-5,22.41-.5,33.66s13.15,19.64,23.52,24.08c10.38,4.47,22.45,4.97,33.72.5,11.29-4.48,19.69-13.12,24.14-23.48Z"></path><path id="_4" data-name="4" class="cls-1" d="m287.09,206.69l101.58-20.77c3.82-.78,7.54-.02,10.68,1.8,3.06,1.78,5.53,4.63,6.89,8.08,1.37,3.43,1.54,7.17.56,10.56-1.02,3.47-3.21,6.56-6.52,8.64l-88.51,54.84c-3.77,2.33-8.71,1.18-11.05-2.58-1.06-1.67-1.4-3.58-1.14-5.38.56-3.78.64-7.65.19-11.53-.45-3.78-1.38-7.54-2.83-11.17-1.44-3.59-3.36-6.97-5.66-10.02-2.32-3.13-5.03-5.9-8.02-8.23-3.49-2.74-4.08-7.77-1.36-11.25,1.34-1.68,3.21-2.7,5.2-2.98h0Zm104.25-5l-87.21,17.84.02.02c3.05,4.08,5.65,8.68,7.67,13.75,2,5.04,3.29,10.16,3.88,15.23l75.64-46.84Z"></path><path id="_3" data-name="3" class="cls-1" d="m281.4,245.38c2.8,7,2.49,14.47-.26,20.87-2.76,6.39-8,11.75-15.04,14.55-7.02,2.78-14.5,2.48-20.91-.28-6.41-2.74-11.77-7.96-14.58-14.99l-.04-.09c-2.77-6.99-2.46-14.4.3-20.77,2.76-6.39,8-11.75,15.04-14.55l.08-.04c7.02-2.76,14.45-2.45,20.84.3,6.41,2.75,11.78,7.98,14.58,15h0Zm-15.03,14.53c1.15-2.67,1.3-5.76.15-8.66-1.16-2.85-3.38-5-6.06-6.16-2.5-1.09-5.38-1.28-8.13-.35-.34.17-.69.32-1.04.42-2.62,1.18-4.59,3.3-5.67,5.82-1.09,2.5-1.28,5.37-.35,8.1.17.35.32.7.43,1.07,1.21,2.6,3.32,4.56,5.83,5.63,2.68,1.15,5.78,1.3,8.68.15,2.86-1.14,5.01-3.37,6.16-6.04h0Z"></path><path id="_2" data-name="2" class="cls-1" d="m138.75,232.51c-.84,4.34-5.07,7.17-9.42,6.33-4.34-.85-7.19-5.06-6.33-9.4.96-4.89,2.24-9.84,3.84-14.86,1.56-4.92,3.4-9.71,5.46-14.34,1.8-4.02,6.54-5.84,10.59-4.04,4.02,1.8,5.84,6.52,4.04,10.56-1.87,4.17-3.49,8.4-4.84,12.64-1.32,4.16-2.43,8.52-3.34,13.1h0Zm38.14-66.46c-3.32,2.93-8.38,2.62-11.31-.68s-2.62-8.36.68-11.26c5.8-5.12,12.06-9.75,18.74-13.84,6.48-3.98,13.46-7.46,20.89-10.42,26.31-10.45,53.95-12.1,79.66-6.36,26.44,5.93,50.85,19.68,69.6,39.75,3,3.24,2.82,8.3-.41,11.3-3.25,3.02-8.32,2.83-11.34-.41-16.53-17.7-38.04-29.83-61.38-35.04-22.66-5.08-47.02-3.63-70.22,5.6-6.46,2.56-12.63,5.65-18.44,9.23-5.94,3.64-11.44,7.69-16.47,12.14h0Z"></path><path id="_1" data-name="1" class="cls-1" d="m219.72,341.68h72.54c7.54,0,14.4,3.08,19.36,8.02,4.93,4.93,8.02,11.76,8.02,19.29s-3.08,14.3-8.02,19.25l-.02.02.02.02c-4.96,4.95-11.81,8-19.36,8h-72.54c-7.5,0-14.34-3.06-19.3-8l-.03-.04c-4.96-4.95-8.03-11.76-8.03-19.25s3.06-14.36,8.03-19.29c.16-.16.33-.33.52-.48,4.91-4.68,11.55-7.55,18.82-7.55h0Zm72.53,16.03h-72.54c-2.95,0-5.64,1.15-7.67,3-.1.11-.19.22-.3.31-2.04,2.06-3.33,4.88-3.33,7.97s1.26,5.93,3.31,7.97c2.06,2.04,4.88,3.3,7.98,3.3h72.54c3.11,0,5.93-1.28,7.99-3.32l.02.02c2.04-2.04,3.31-4.88,3.31-7.97s-1.28-5.92-3.32-7.97c-2.06-2.03-4.88-3.31-7.99-3.31h0Z"></path></g></g></svg>