<svg xmlns="http://www.w3.org/2000/svg" id="Layer_2" data-name="Layer 2" viewBox="0 0 510.93 511.02"><defs><style>      .cls-1 {        fill: #19afe6;        stroke-width: 0px;      }    </style></defs><g id="Layer_1-2" data-name="Layer 1"><g><g><path class="cls-1" d="m396.8,288.66v-66.28l-29.67-13.07-15.79-27.34,3.51-32.23-57.39-33.15-26.18,19.15h-31.65l-26.18-19.15-57.39,33.15,3.51,32.23-15.79,27.34-29.67,13.07v66.28l29.67,13.08,15.79,27.34-3.51,32.23,57.39,33.15,26.22-19.18h31.56l26.22,19.18,57.39-33.15-3.51-32.23,15.79-27.34,29.67-13.08Zm-60.9,37.17l2.98,27.39-40.45,23.36-22.29-16.3h-41.36l-22.29,16.3-40.45-23.36,2.98-27.39-20.69-35.84-25.21-11.11v-46.72l25.21-11.11,20.7-35.84-2.98-27.39,40.45-23.37,22.24,16.27h41.46l22.24-16.27,40.45,23.37-2.98,27.39,20.7,35.84,25.21,11.11v46.72l-25.21,11.11-20.7,35.84Z"></path><path class="cls-1" d="m464.32,107.89l32.21-32.21-120.31-5.59,5.59,120.3,28.32-28.31c95.26,165.25-86.12,343.49-250.59,247.3l6.32,41.85-49.22,19.69c97.81,62.33,229.92,51.58,314.11-29.18l-10.28-10.92c-70.09,67.6-181.14,84.71-268.5,42.12l30.5-12.2-3.8-25.17c185.12,75.77,350.67-134.97,233.87-297.1l-17.31,17.31-3.25-69.94,69.95,3.25-17.32,17.32c73.35,90.22,67.37,230.72-13.84,314.12l10.92,10.28c82.73-85.14,92.67-227.21,22.65-322.92h0Z"></path><path class="cls-1" d="m143.45,439.77l-8.25-120.16-31.92,33.36C-.18,181.91,195.16-2.95,361.39,108.37l-5.68-50.96,45.48-12.79C302.42-22.38,166.99-13.74,80.15,69.29l10.28,10.92C161.51,11.62,274.8-4.89,362.62,39.89l-23.22,6.53,3.8,34.14C154.62-9.94-24.56,209.8,101.46,376.57l21.1-22.06,4.79,69.86-70-1.71,12.76-13.35C-7.02,319.37-2.6,175.45,80.16,90.5l-10.92-10.28C-15.1,166.95-23.57,312.66,50.34,408.31l-27.29,28.53,120.4,2.93Z"></path><path class="cls-1" d="m255.46,173.01c-45.49,0-82.5,37.01-82.5,82.5,4.53,109.45,160.49,109.42,165,0,0-45.49-37.01-82.5-82.5-82.5h0Zm0,150c-37.22,0-67.5-30.28-67.5-67.5,3.71-89.55,131.31-89.52,135,0,0,37.22-30.28,67.5-67.5,67.5h0Z"></path><path class="cls-1" d="m240.2,271.99l-21.36-18.34-9.77,11.38,31.71,27.23,60.2-57.94-10.4-10.81-50.37,48.48Z"></path></g><g><path class="cls-1" d="m420.77,125.51l10.61-10.61,10.61,10.61-10.61,10.61-10.61-10.61Z"></path><path class="cls-1" d="m74.82,392.45l10.61-10.61,10.61,10.61-10.61,10.61-10.61-10.61Z"></path></g></g></g></svg>