<svg xmlns="http://www.w3.org/2000/svg" id="Layer_2" data-name="Layer 2" viewBox="0 0 512 512"><defs><style>      .cls-1 {        fill: #19afe6;        stroke-width: 0px;      }    </style></defs><g id="Layer_1-2" data-name="Layer 1"><g><path class="cls-1" d="m415.18,280.88v-29.32c0-4.83-3.92-8.75-8.75-8.75s-8.75,3.92-8.75,8.75v27.68c-64.38-1.19-119.8,54.13-118.64,118.51l-62.23-.02-.18-68.01c0-7.87-9.33-14.08-16.31-14.9-5.78-.68-11.38,1.32-15.43,5.49-9.98,10.26-28,7.41-34.39-5.31-3.89-7.75-2.68-16.95,3.31-25.34,13.14-9.36,24.92-5.42,31.08.88,4.01,4.11,9.56,6.13,15.22,5.55,7-.72,16.53-6.87,16.53-14.81v-64.65l57.85.06c1.09.28,1.86.5,2.3.71-.14.45-.38,1.1-.87,2.02-23.51,24.31-5.13,65.66,28.24,65.66,9.15,0,18.02-3.12,25.12-8.99,17.21-14.22,18.71-40.74,3.19-56.73-.48-.93-.74-1.61-.87-2.07.44-.21.86-.47,1.92-.74l72.66-.02c4.83,0,8.48-3.92,8.48-8.75V33.91c0-18.73-15.18-33.91-33.9-33.91H34.45C15.43,0,0,15.43,0,34.45v346.32c0,19.23,15.73,34.96,34.96,34.96h131.33v-.87c4.38-1.09,6.49-4.18,6.49-8.13,0-4.83-3.65-8.5-8.48-8.5H34.45c-9.36,0-16.95-7.59-16.95-16.95v-164.66h69.25c7.86,0,13.87-9.96,14.61-16.73.62-5.71-1.35-11.32-5.4-15.34-4.16-4.13-6.45-9.67-6.45-15.59,0-13.03,12.2-23.86,25.31-21.27,8.1,1.61,14.84,8.58,16.37,16.96,1.36,7.43-.83,14.66-6.02,19.83-4,3.99-5.99,9.48-5.46,15.09.65,6.79,6.6,17.05,14.52,17.05h29.39c4.83,0,8.75-3.92,8.75-8.75s-3.92-8.75-8.75-8.75h-26.1c-.23-1.09-.37-.78-.39-1.08-.05-.51.22-.92.39-1.09,9.2-9.16,13.27-22.42,10.88-35.42-2.84-15.51-14.97-27.98-30.19-30.99-23.86-4.73-46.22,14.24-46.22,38.41,0,10.62,4.13,20.56,11.63,28,.25.25.37.73.33,1.12-.03.3-.16-.04-.38,1.05H17.5V34.46c0-9.36,7.59-16.96,16.96-16.96h164.65v64.82c0,6.82,4.49,14.65,10.82,17.49,6.37,2.86,16.07,1.01,20.9-4.06,3.99-4.2,9.31-6.51,14.98-6.51,13.62,0,23.08,13.19,20.61,26.15-1.59,8.35-8.38,15.26-16.51,16.82-7.13,1.36-14.06-.85-19.06-6.08-4.83-5.05-14.43-6.95-20.81-4.15-6.5,2.86-10.99,10.85-11.02,17.8l.08,138.4c0,.31-.65.46-.92.49-.43.04-.7-.21-.85-.36-13.87-14.21-44.04-17.37-57.18.3-10.3,13.84-12.29,30.38-5.33,44.24,11.76,23.4,44.4,28.38,62.61,9.65.23-.23.45-.35.77-.3.31.04.89.2.89.48l-.03,72.75c0,5.39,4.33,9.78,9.72,9.85l71.86-.02c9.37,54.86,57.29,96.75,114.83,96.75,64.24,0,116.5-52.22,116.5-116.39,0-57.48-41.92-105.35-96.82-114.72Zm-197.92-142.4c.44.14,1.07.33,1.91.77,9,8.78,21.62,12.56,34.04,10.18,15.25-2.92,27.48-15.29,30.42-30.76,4.48-23.59-13.39-46.94-37.81-46.94-10.04,0-19.46,3.87-26.67,10.94-.85.44-1.44.68-1.88.82-.2-.44-.65-1.12-.65-2.13V17.5h164.11c9.35,0,16.4,7.61,16.4,16.96v164.59h-64.62c-6.76.01-14.53,4.78-17.29,10.99-2.85,6.39-.97,16.11,4.09,20.96,9.03,8.68,8.5,23.58-1.2,31.6-5.12,4.23-11.64,5.85-18.36,4.55-16.46-3.16-22.71-24.55-10.71-36.12,5.03-4.86,6.93-14.46,4.13-20.85-2.81-6.41-10.76-11.09-17.66-11.12l-58.89-.17-.09-58.07c.26-1.05.52-1.89.73-2.34h0Zm178.25,356.02c-54.59,0-98.99-44.36-98.99-98.89s44.41-98.89,98.99-98.89,99,44.36,99,98.89-44.41,98.89-99,98.89Z"></path><path class="cls-1" d="m309.61,394.44v12.65l55,28.17.79.31v-20.56l-28.47-14.25,28.47-14.24v-20.56l-55.38,28.37-.42.11Z"></path><path class="cls-1" d="m371.67,435.42h19.69l30.27-78.5.42-1.36h-19.8l-30.58,79.86Z"></path><path class="cls-1" d="m425.57,365.98v20.55l28.66,14.23-28.66,14.23v20.56l55.79-28.36v-12.85l-55.79-28.36Z"></path></g></g></svg>