<svg xmlns="http://www.w3.org/2000/svg" id="Layer_2" data-name="Layer 2" viewBox="0 0 512 512"><defs><style>      .cls-1 {        fill: #19afe6;        stroke-width: 0px;      }    </style></defs><g id="Layer_1-2" data-name="Layer 1"><g><path class="cls-1" d="m494.47,386.65h-90.28c-9.67,0-17.53,7.86-17.53,17.53v37.64h-15.81c-4.14,0-7.5,3.36-7.5,7.5s3.36,7.5,7.5,7.5h15.81v37.64c0,9.67,7.86,17.53,17.53,17.53h90.28c9.67,0,17.53-7.86,17.53-17.53v-90.28c0-9.67-7.86-17.53-17.53-17.53Zm2.53,107.82c0,1.4-1.14,2.53-2.53,2.53h-90.28c-1.4,0-2.53-1.14-2.53-2.53v-90.28c0-1.4,1.14-2.53,2.53-2.53h90.28c1.4,0,2.53,1.14,2.53,2.53v90.28Z"></path><path class="cls-1" d="m494.47,125.35c9.67,0,17.53-7.86,17.53-17.53V17.53C512,7.86,504.14,0,494.47,0h-90.28C394.52,0,386.65,7.86,386.65,17.53v37.64h-67.98V17.53C318.67,7.86,310.81,0,301.14,0h-90.28C201.19,0,193.33,7.86,193.33,17.53v37.64h-67.98V17.53c0-9.67-7.87-17.53-17.54-17.53H17.53C7.86,0,0,7.86,0,17.53v90.28C0,117.48,7.86,125.35,17.53,125.35h27.64c4.14,0,7.5-3.36,7.5-7.5s-3.36-7.5-7.5-7.5h-27.64c-1.4,0-2.53-1.14-2.53-2.54V17.53c0-1.4,1.13-2.53,2.53-2.53h90.28c1.4,0,2.54,1.13,2.54,2.53v90.28c0,1.4-1.14,2.54-2.54,2.54h-27.64c-4.14,0-7.5,3.36-7.5,7.5s3.36,7.5,7.5,7.5h27.64c9.67,0,17.54-7.87,17.54-17.54v-37.64h67.98v37.64c0,9.67,7.86,17.53,17.53,17.53h90.28c9.67,0,17.53-7.86,17.53-17.53v-37.64h67.98v37.64c0,9.67,7.86,17.53,17.53,17.53h37.64v67.98h-37.64c-9.67,0-17.54,7.86-17.54,17.53v37.64h-22.26v-6.7c0-7.44-6.06-13.5-13.5-13.5h-6.55c-1.62-5.18-3.7-10.21-6.21-15.02l4.67-4.67c5.26-5.26,5.26-13.83,0-19.09l-20.2-20.2c-5.26-5.26-13.83-5.26-19.09,0l-4.63,4.63c-4.81-2.52-9.83-4.6-15.01-6.24v-6.6c0-7.44-6.06-13.5-13.5-13.5h-28.57c-7.44,0-13.5,6.06-13.5,13.5v6.55c-5.18,1.62-10.21,3.7-15.02,6.21l-4.67-4.67c-5.26-5.26-13.83-5.26-19.09,0l-20.2,20.2c-5.26,5.26-5.26,13.83,0,19.09l4.63,4.63c-2.52,4.81-4.6,9.82-6.23,14.99h-6.6c-7.44,0-13.5,6.06-13.5,13.5v6.89h-22.26v-37.64c0-9.67-7.86-17.53-17.53-17.53H17.53C7.86,193.33,0,201.19,0,210.86v90.28C0,310.81,7.86,318.67,17.53,318.67h37.64v67.98H17.53C7.86,386.65,0,394.52,0,404.19v27.64c0,4.14,3.36,7.5,7.5,7.5s7.5-3.36,7.5-7.5v-27.64c0-1.4,1.14-2.54,2.53-2.54h90.28c1.4,0,2.54,1.14,2.54,2.54v90.28c0,1.4-1.14,2.53-2.54,2.53H17.53c-1.4,0-2.53-1.14-2.53-2.53v-27.64c0-4.14-3.36-7.5-7.5-7.5s-7.5,3.36-7.5,7.5v27.64c0,9.67,7.86,17.53,17.53,17.53h90.28c9.67,0,17.54-7.86,17.54-17.53v-37.64h67.98v37.64c0,9.67,7.86,17.53,17.53,17.53h90.28c9.67,0,17.53-7.86,17.53-17.53v-37.64h17.17c4.14,0,7.5-3.36,7.5-7.5s-3.36-7.5-7.5-7.5h-17.17v-37.64c0-9.67-7.86-17.53-17.53-17.53h-90.28c-9.67,0-17.53,7.86-17.53,17.53v37.64h-67.98v-37.64c0-9.67-7.87-17.54-17.54-17.54h-37.64v-67.98h37.64c9.67,0,17.53-7.86,17.53-17.53v-37.64h22.26v6.7c0,7.44,6.06,13.5,13.5,13.5h6.55c1.62,5.18,3.7,10.21,6.21,15.02l-4.67,4.67c-5.26,5.26-5.26,13.83,0,19.09l20.2,20.2c5.26,5.26,13.83,5.26,19.09,0l4.63-4.63c4.81,2.52,9.83,4.6,15.01,6.23v6.6c0,7.44,6.06,13.5,13.5,13.5h28.57c7.44,0,13.5-6.06,13.5-13.5v-6.55c5.18-1.62,10.21-3.7,15.02-6.21l4.67,4.67c5.26,5.26,13.83,5.26,19.09,0l20.2-20.2c2.55-2.55,3.95-5.94,3.95-9.55s-1.4-7-3.95-9.55l-4.63-4.63c2.52-4.81,4.6-9.83,6.23-15.01h6.6c7.44,0,13.5-6.06,13.5-13.5v-6.87h22.26v37.64c0,9.67,7.87,17.53,17.54,17.53h27.64c4.14,0,7.5-3.36,7.5-7.5s-3.36-7.5-7.5-7.5h-27.64c-1.4,0-2.54-1.14-2.54-2.53v-90.28c0-1.4,1.14-2.53,2.54-2.53h90.28c1.39,0,2.53,1.13,2.53,2.53v90.28c0,1.4-1.14,2.53-2.53,2.53h-27.64c-4.14,0-7.5,3.36-7.5,7.5s3.36,7.5,7.5,7.5h27.64c9.67,0,17.53-7.86,17.53-17.53v-90.28c0-9.67-7.86-17.53-17.53-17.53h-37.64v-67.98h37.64Zm-190.8-17.53c0,1.4-1.14,2.53-2.53,2.53h-90.28c-1.4,0-2.53-1.14-2.53-2.53V17.53c0-1.4,1.14-2.53,2.53-2.53h90.28c1.4,0,2.53,1.14,2.53,2.53v90.28Zm-95.35,296.37c0-1.4,1.14-2.53,2.53-2.53h90.28c1.4,0,2.53,1.14,2.53,2.53v90.28c0,1.4-1.14,2.53-2.53,2.53h-90.28c-1.4,0-2.53-1.14-2.53-2.53v-90.28Zm-97.98-103.04c0,1.4-1.14,2.53-2.53,2.53H17.53c-1.4,0-2.53-1.14-2.53-2.53v-90.28c0-1.4,1.14-2.53,2.53-2.53h90.28c1.4,0,2.53,1.14,2.53,2.53v90.28Zm239.04-32.27h-10.79c-3.45,0-6.46,2.36-7.28,5.71-1.88,7.65-4.91,14.95-9.01,21.68-1.8,2.95-1.34,6.76,1.1,9.2l7.6,7.6-18.08,18.08-7.63-7.63c-2.44-2.44-6.23-2.9-9.19-1.11-6.74,4.08-14.04,7.1-21.7,8.96-3.36.82-5.73,3.83-5.73,7.29v10.74h-25.57v-10.78c0-3.45-2.36-6.46-5.71-7.28-7.65-1.88-14.95-4.91-21.68-9.01-2.95-1.8-6.76-1.34-9.2,1.1l-7.6,7.6-18.08-18.08,7.63-7.63c2.44-2.44,2.9-6.23,1.11-9.19-4.08-6.74-7.1-14.04-8.96-21.7-.82-3.36-3.83-5.73-7.29-5.73h-10.74v-25.59h10.79c3.45,0,6.46-2.36,7.28-5.71,1.88-7.63,4.91-14.92,9.01-21.66,1.8-2.95,1.34-6.76-1.1-9.2l-7.6-7.6,18.08-18.08,7.63,7.63c2.44,2.44,6.24,2.9,9.19,1.11,6.74-4.08,14.04-7.1,21.7-8.96,3.36-.82,5.73-3.83,5.73-7.29v-10.74h25.57v10.78c0,3.45,2.36,6.46,5.71,7.28,7.65,1.88,14.95,4.91,21.68,9.01,2.95,1.8,6.76,1.34,9.2-1.1l7.6-7.6,18.08,18.08-7.63,7.63c-2.44,2.44-2.9,6.24-1.11,9.19,4.08,6.74,7.1,14.04,8.96,21.7.82,3.36,3.83,5.73,7.29,5.73h10.74v25.57h0Zm52.26-161.05V17.53c0-1.4,1.14-2.53,2.53-2.53h90.28c1.4,0,2.53,1.14,2.53,2.53v90.28c0,1.4-1.14,2.53-2.53,2.53h-90.28c-1.4,0-2.53-1.14-2.53-2.53Z"></path><path class="cls-1" d="m256,196.73c-32.68,0-59.27,26.59-59.27,59.27s26.59,59.27,59.27,59.27,59.27-26.59,59.27-59.27-26.59-59.27-59.27-59.27Zm0,103.53c-24.41,0-44.27-19.86-44.27-44.27s19.86-44.27,44.27-44.27,44.27,19.86,44.27,44.27-19.86,44.27-44.27,44.27Z"></path><path class="cls-1" d="m64.01,89.43l34.52-44.3c2.55-3.27,1.96-7.98-1.31-10.53-3.27-2.55-7.98-1.96-10.53,1.31l-28.98,37.19-15.14-17.05c-2.75-3.1-7.49-3.38-10.59-.63-3.1,2.75-3.38,7.49-.63,10.59l21.13,23.79c1.43,1.61,3.47,2.52,5.61,2.52.08,0,.16,0,.24,0,2.23-.07,4.31-1.13,5.68-2.89Z"></path><path class="cls-1" d="m288.44,34.5c-3.27-2.55-7.98-1.96-10.53,1.31l-28.98,37.19-15.15-17.05c-2.75-3.1-7.49-3.38-10.59-.63-3.1,2.75-3.38,7.49-.63,10.59l21.13,23.79c1.43,1.61,3.47,2.52,5.61,2.52.08,0,.16,0,.24,0,2.23-.07,4.31-1.13,5.68-2.89l34.52-44.3c2.55-3.27,1.96-7.98-1.3-10.52Z"></path><path class="cls-1" d="m481.76,34.5c-3.27-2.55-7.98-1.96-10.53,1.31l-28.98,37.19-15.14-17.05c-2.75-3.1-7.49-3.38-10.59-.63-3.1,2.75-3.38,7.49-.63,10.59l21.13,23.79c1.43,1.61,3.47,2.52,5.61,2.52.08,0,.16,0,.24,0,2.23-.07,4.31-1.13,5.67-2.89l34.52-44.3c2.55-3.27,1.96-7.98-1.31-10.52h0Z"></path><path class="cls-1" d="m448.55,282.76l34.52-44.3c2.55-3.27,1.96-7.98-1.31-10.52-3.27-2.55-7.98-1.96-10.53,1.31l-28.98,37.19-15.14-17.05c-2.75-3.1-7.49-3.38-10.59-.63-3.1,2.75-3.38,7.49-.63,10.59l21.13,23.79c1.43,1.61,3.47,2.52,5.61,2.52.08,0,.16,0,.24,0,2.23-.07,4.31-1.13,5.68-2.89Z"></path></g></g></svg>