<svg xmlns="http://www.w3.org/2000/svg" id="Layer_2" data-name="Layer 2" viewBox="0 0 512 512"><defs><style>      .cls-1 {        fill: #19afe6;        stroke-width: 0px;      }    </style></defs><g id="Layer_1-2" data-name="Layer 1"><g><path class="cls-1" d="m43.56,434.34h83.19c6.89,0,12.5-5.61,12.5-12.5v-27.36c0-4.14-3.36-7.5-7.5-7.5s-7.5,3.36-7.5,7.5v24.86H46.06v-155.84h17.31c3.17,9.23,11.87,15.53,21.78,15.53s18.61-6.3,21.78-15.53h17.31v95.99c0,4.14,3.36,7.5,7.5,7.5s7.5-3.36,7.5-7.5v-98.49c0-6.89-5.61-12.5-12.5-12.5h-21.68c-5.72,0-10.7,3.9-12.12,9.49-.9,3.56-4.1,6.04-7.78,6.04s-6.88-2.48-7.79-6.04c-1.42-5.59-6.41-9.49-12.12-9.49h-21.68c-6.89,0-12.5,5.61-12.5,12.5v160.84c0,6.89,5.61,12.5,12.5,12.5Z"></path><path class="cls-1" d="m512,324.19v-167.44c0-17.92-14.58-32.5-32.5-32.5h-131.99l1.93-.96c4.48-2.24,7.26-6.74,7.26-11.74v-21.72c0-5-2.78-9.5-7.26-11.74l-11.92-5.96c-1.06-3.02-2.29-6-3.68-8.88l4.21-12.65c1.58-4.75.37-9.89-3.17-13.43l-15.36-15.36c-3.54-3.54-8.68-4.76-13.43-3.17l-12.65,4.22c-2.88-1.39-5.86-2.62-8.88-3.68l-5.96-11.91c-2.24-4.48-6.73-7.26-11.74-7.26h-21.72c-5.01,0-9.5,2.78-11.74,7.26l-5.96,11.92c-3.02,1.06-6,2.29-8.88,3.68l-12.65-4.22c-4.75-1.58-9.89-.37-13.43,3.17l-15.36,15.36c-3.54,3.54-4.76,8.68-3.17,13.43l4.21,12.65c-1.39,2.88-2.62,5.86-3.68,8.88l-11.92,5.96c-4.48,2.24-7.25,6.74-7.25,11.74v21.72c0,5,2.78,9.5,7.26,11.74l11.92,5.96c1.06,3.02,2.29,6,3.68,8.88l-4.21,12.65c-.5,1.49-.72,3.03-.68,4.54H63.56c-17.92,0-32.5,14.58-32.5,32.5v29.66c-17.25.75-31.06,15.03-31.06,32.47v182.97c0,7.5,2.55,14.42,6.84,19.92-4.11,2.68-6.84,7.32-6.84,12.58v14.09c0,17.92,14.58,32.5,32.5,32.5h447c17.92,0,32.5-14.58,32.5-32.5v-14.09c0-8.27-6.73-15-15-15h-16.06v-93.75c17.26-.75,31.06-15.03,31.06-32.47Zm-15-167.44v167.44c0,9.65-7.85,17.5-17.5,17.5h-229.56c-9.65,0-17.5-7.85-17.5-17.5v-167.44c0-9.65,7.85-17.5,17.5-17.5h229.56c9.65,0,17.5,7.85,17.5,17.5Zm-247.06-32.5c-3.27,0-6.43.49-9.41,1.39l-19.27-19.27c-3.13-3.13-3.13-8.23,0-11.36,1.52-1.52,3.53-2.35,5.68-2.35s4.16.83,5.68,2.35l10.98,10.98c1.41,1.41,3.31,2.2,5.3,2.2s3.9-.79,5.3-2.2l21.96-21.97c1.52-1.52,3.53-2.35,5.68-2.35s4.16.83,5.68,2.35c1.52,1.52,2.35,3.53,2.35,5.68s-.83,4.16-2.35,5.68l-28.87,28.87h-8.72Zm-61.39,30.17l4.09-12.28c1.1-3.3.86-6.82-.67-9.92-1.36-2.77-2.56-5.65-3.55-8.56-1.11-3.27-3.44-5.93-6.54-7.48l-11.57-5.79v-19.4l11.57-5.78c3.11-1.55,5.43-4.21,6.54-7.48.99-2.92,2.18-5.8,3.55-8.56,1.53-3.1,1.77-6.63.67-9.93l-4.09-12.28,13.72-13.72,12.28,4.09c3.3,1.1,6.82.86,9.93-.67,2.76-1.36,5.65-2.56,8.56-3.55,3.27-1.11,5.93-3.43,7.48-6.54l5.79-11.57h19.4l5.79,11.57c1.55,3.11,4.21,5.43,7.48,6.54,2.92.99,5.8,2.19,8.56,3.55,3.1,1.53,6.63,1.77,9.93.67l12.28-4.09,13.72,13.72-4.09,12.28c-1.1,3.3-.86,6.82.67,9.92,1.36,2.77,2.56,5.65,3.55,8.56,1.11,3.27,3.44,5.93,6.54,7.48l11.57,5.78v19.4l-11.57,5.79c-3.11,1.55-5.43,4.21-6.54,7.48-.07.2-.14.4-.2.6h-43.49l18.26-18.26c4.35-4.35,6.74-10.13,6.74-16.29s-2.4-11.94-6.74-16.29c-4.35-4.35-10.13-6.75-16.29-6.75s-11.94,2.4-16.29,6.75l-16.66,16.66-5.68-5.68c-8.98-8.98-23.59-8.98-32.57,0-8.98,8.98-8.98,23.59,0,32.57l16.56,16.56c-5.71,5.59-9.37,13.26-9.74,21.78h-28.02l-.89-.89Zm-124.99,15.89h153.87v16.06h-48.19c-4.14,0-7.5,3.36-7.5,7.5s3.36,7.5,7.5,7.5h48.19v122.81c0,17.92,14.58,32.5,32.5,32.5h184.94v62.66H170.31v-169.4c0-17.92-14.58-32.5-32.5-32.5h-60.69v-16.06h57.12c4.14,0,7.5-3.36,7.5-7.5s-3.36-7.5-7.5-7.5h-64.62c-4.14,0-7.5,3.36-7.5,7.5v23.56h-16.06v-29.62c0-9.65,7.85-17.5,17.5-17.5h0ZM15,249.94c0-9.65,7.85-17.5,17.5-17.5h105.31c9.65,0,17.5,7.85,17.5,17.5v182.97c0,9.65-7.85,17.5-17.5,17.5H32.5c-9.65,0-17.5-7.85-17.5-17.5v-182.97Zm482,229.56c0,9.65-7.85,17.5-17.5,17.5H32.5c-9.65,0-17.5-7.85-17.5-17.5v-14.09h175.77l6.01,6.01c6.14,6.14,14.3,9.52,22.98,9.52h72.48c8.68,0,16.84-3.38,22.98-9.52l6.01-6.01h175.77v14.09Zm-178.88-29.09c-1.99,0-3.9.79-5.3,2.2l-8.21,8.21c-3.3,3.31-7.7,5.13-12.37,5.13h-72.48c-4.67,0-9.07-1.82-12.38-5.13l-8.21-8.21c-1.41-1.41-3.31-2.2-5.3-2.2h-28.69c3-4.68,4.83-10.17,5.09-16.06h272.1c4.14,0,7.5-3.36,7.5-7.5v-70.16h16.06v93.72h-147.81Z"></path><path class="cls-1" d="m256,155.31c-4.14,0-7.5,3.36-7.5,7.5v155.31c0,4.14,3.36,7.5,7.5,7.5h122.76c4.14,0,7.5-3.36,7.5-7.5s-3.36-7.5-7.5-7.5h-115.26v-140.31h171.38v140.31h-21.12c-4.14,0-7.5,3.36-7.5,7.5s3.36,7.5,7.5,7.5h28.62c4.14,0,7.5-3.36,7.5-7.5v-155.31c0-4.14-3.36-7.5-7.5-7.5h-186.38Z"></path><path class="cls-1" d="m473.44,263.5c4.14,0,7.5-3.36,7.5-7.5v-31.06c0-4.14-3.36-7.5-7.5-7.5s-7.5,3.36-7.5,7.5v31.06c0,4.14,3.36,7.5,7.5,7.5Z"></path><path class="cls-1" d="m366.18,220.3l-24.43,24.43-9.56-9.56c-2.93-2.93-7.68-2.93-10.61,0-2.93,2.93-2.93,7.68,0,10.61l14.86,14.87c1.46,1.46,3.39,2.2,5.3,2.2s3.84-.73,5.3-2.2l29.73-29.73c2.93-2.93,2.93-7.68,0-10.61-2.93-2.93-7.68-2.93-10.61,0h0Z"></path><path class="cls-1" d="m95.38,325.76l-15.4,15.41-5.05-5.05c-2.93-2.93-7.68-2.93-10.61,0-2.93,2.93-2.93,7.68,0,10.61l10.35,10.35c1.41,1.41,3.31,2.2,5.3,2.2s3.9-.79,5.3-2.2l20.71-20.71c2.93-2.93,2.93-7.68,0-10.61-2.93-2.93-7.68-2.93-10.61,0Z"></path></g></g></svg>