<svg xmlns="http://www.w3.org/2000/svg" id="Layer_2" data-name="Layer 2" viewBox="0 0 495.58 404.48"><defs><style>      .cls-1 {        fill: #19afe6;        stroke-width: 0px;      }    </style></defs><g id="Layer_1-2" data-name="Layer 1"><g><path class="cls-1" d="m483.76,12.49c-8.22-8.3-19.63-12.72-31.34-12.1s-22.57,6.21-29.87,15.28l-100,121.02c-19.32-4.19-36.38,4.42-48.33,24.98-4.34,7.45-7.29,16.14-8.77,25.83-2.4,15.44-7.21,28.78-14.82,40.73-1.24,2.02-1.4,4.5-.31,6.59s3.26,3.41,5.59,3.49c3.34.16,6.67.16,9.85.16,38.63,0,65.63-9.15,80.21-27.15,11.33-14.04,11.95-29.48,11.17-37.86l122.72-99.76c9.15-7.21,14.82-18.08,15.59-29.71.85-11.71-3.49-23.2-11.71-31.5Zm-131.49,108.99l21.57,21.57-22.19,18-17.53-17.61,18.15-21.95Zm-16.6,81.69c-11.64,14.27-35.14,21.88-68.27,22.11,5.43-10.86,9.08-22.65,11.09-35.84,1.24-8.07,3.65-15.2,7.14-21.18,7.6-13.03,16.91-19.55,27.77-19.55,2.64,0,5.43.39,8.3,1.16l22.19,22.34c.78,4.73,1.86,18.7-8.22,30.95h0ZM471.82,63.38l-.08.08-87.66,71.29-23.43-23.43,72.15-87.27c4.96-6.21,12.33-10.01,20.32-10.47s15.67,2.56,21.26,8.22,8.53,13.42,8.07,21.33-4.34,15.28-10.63,20.25h0Z"></path><circle class="cls-1" cx="213.33" cy="303.48" r="7.52"></circle><path class="cls-1" d="m135.6,46.86c0-3.65-2.95-6.59-6.59-6.59H44.3c-3.65,0-6.59,2.95-6.59,6.59v66.48c0,3.65,2.95,6.59,6.59,6.59h84.71c3.65,0,6.59-2.95,6.59-6.59V46.86Zm-13.19,59.81H50.89v-53.29h71.52v53.29Z"></path><path class="cls-1" d="m135.6,145.92c0-3.65-2.95-6.59-6.59-6.59H44.3c-3.65,0-6.59,2.95-6.59,6.59s2.95,6.59,6.59,6.59h84.71c3.65,0,6.59-2.95,6.59-6.59Z"></path><path class="cls-1" d="m44.3,168.96c-3.65,0-6.59,2.95-6.59,6.59s2.95,6.59,6.59,6.59h59.5c3.65,0,6.59-2.95,6.59-6.59s-2.95-6.59-6.59-6.59h-59.5Z"></path><path class="cls-1" d="m250.1,145.92c0-3.65-2.95-6.59-6.59-6.59h-84.71c-3.65,0-6.59,2.95-6.59,6.59s2.95,6.59,6.59,6.59h84.71c3.65,0,6.59-2.95,6.59-6.59Z"></path><path class="cls-1" d="m158.8,168.96c-3.65,0-6.59,2.95-6.59,6.59s2.95,6.59,6.59,6.59h59.5c3.65,0,6.59-2.95,6.59-6.59s-2.95-6.59-6.59-6.59h-59.5Z"></path><path class="cls-1" d="m250.1,46.86c0-3.65-2.95-6.59-6.59-6.59h-84.71c-3.65,0-6.59,2.95-6.59,6.59v66.48c0,3.65,2.95,6.59,6.59,6.59h84.71c3.65,0,6.59-2.95,6.59-6.59V46.86Zm-13.19,59.81h-71.52v-53.29h71.52v53.29Z"></path><path class="cls-1" d="m426.67,152.75c0-3.65-2.95-6.59-6.59-6.59s-6.59,2.95-6.59,6.59v116.91H13.19V39.25c0-14.35,11.64-26.07,25.99-26.07h348.24c2.64,0,5.35.47,8.38,1.55,3.41,1.16,7.21-.7,8.38-4.11s-.7-7.21-4.11-8.38c-4.42-1.47-8.53-2.25-12.64-2.25H39.18C17.61,0,0,17.61,0,39.25v258.64c0,21.64,17.61,39.25,39.18,39.25h121.87l-10.08,24.05h-28.94c-11.95,0-21.64,9.7-21.64,21.64s9.7,21.64,21.64,21.64h182.69c11.95,0,21.64-9.7,21.64-21.64s-9.7-21.64-21.64-21.64h-28.94l-10.08-24.05h121.79c21.57,0,39.18-17.53,39.18-39.1v-145.3Zm-113.49,230.17c0,4.65-3.8,8.46-8.46,8.46H122.03c-4.65,0-8.46-3.8-8.46-8.46s3.8-8.46,8.46-8.46h182.69c4.65,0,8.46,3.8,8.46,8.46Zm-51.74-21.64h-96.19l10.08-24.05h76.02l10.08,24.05Zm152.05-63.15c0,14.27-11.64,25.91-25.99,25.91H39.18c-14.35,0-25.99-11.71-25.99-26.07v-15.05h400.29v15.2Z"></path></g></g></svg>