<svg xmlns="http://www.w3.org/2000/svg" id="Layer_2" data-name="Layer 2" viewBox="0 0 387.74 512"><defs><style>      .cls-1 {        fill: #19afe6;        stroke-width: 0px;      }    </style></defs><g id="Layer_1-2" data-name="Layer 1"><g><path class="cls-1" d="m142.82,39.3h29.9c4.14,0,7.5-3.36,7.5-7.5s-3.36-7.5-7.5-7.5h-29.9c-4.14,0-7.5,3.36-7.5,7.5s3.36,7.5,7.5,7.5Z"></path><path class="cls-1" d="m268.18,31.8c-4.08,0-7.38,3.31-7.38,7.38s3.31,7.38,7.38,7.38,7.38-3.31,7.38-7.38-3.31-7.39-7.38-7.38Z"></path><path class="cls-1" d="m362.94,350.37h-47.4v-10.53h47.4c13.68,0,24.81-11.13,24.81-24.8s-11.13-24.8-24.81-24.8h-109.61c-12.03,0-22.08,8.6-24.33,19.98h-61.96c-12.76,0-23.15,10.39-23.15,23.15v36.32h-38.32c-3.19-10.02-12.58-17.3-23.64-17.3h-22.81c-13.68,0-24.81,11.13-24.81,24.8-.17,14.83,13.72,26.41,28.71,24.8v21.68c0,12.77,10.38,23.15,23.15,23.15h27.94c4.14,0,7.5-3.36,7.5-7.5s-3.36-7.5-7.5-7.5h-27.94c-4.49,0-8.15-3.66-8.15-8.15v-21.68c11.53,1.34,24.08-5.84,27.55-17.3h124.86c3.74,8.98,12.6,15.3,22.91,15.3h47.22v71.15c0,14.27-11.61,25.87-25.87,25.87H40.87c-14.26,0-25.87-11.61-25.87-25.87V40.87c0-14.26,11.61-25.87,25.87-25.87h29.2l3.38,17.67c3.17,16.55,17.7,28.57,34.56,28.57h99.52c16.85,0,31.38-12.02,34.56-28.57l3.38-17.67h29.2c14.27,0,25.87,11.6,25.87,25.87v219.57c0,4.14,3.36,7.5,7.5,7.5s7.5-3.36,7.5-7.5V40.87c0-22.54-18.33-40.87-40.87-40.87H40.87C18.33,0,0,18.33,0,40.87v430.26c0,22.54,18.33,40.87,40.87,40.87h233.8c22.54,0,40.87-18.33,40.87-40.87v-71.15h47.4c13.68,0,24.81-11.13,24.81-24.8s-11.13-24.8-24.8-24.8h0Zm-281.02,36.61h-22.81c-5.41,0-9.81-4.4-9.81-9.8s4.4-9.8,9.81-9.8h22.81c5.41,0,9.81,4.4,9.81,9.8s-4.4,9.8-9.81,9.8ZM230.19,15l-2.84,14.85c-1.82,9.5-10.16,16.39-19.82,16.39h-99.52c-9.67,0-18-6.89-19.82-16.39l-2.84-14.85h144.85Zm23.13,290.23h109.61c5.41,0,9.81,4.4,9.81,9.8s-4.4,9.8-9.81,9.8h-54.82s-.05,0-.08,0-.05,0-.08,0h-54.64c-5.41,0-9.8-4.4-9.8-9.8s4.4-9.8,9.8-9.8Zm-94.44,28.13c0-4.49,3.66-8.15,8.15-8.15h63.68c3.89,8.62,12.56,14.63,22.61,14.63h47.22v10.53h-47.22c-11.79,0-21.67,8.27-24.18,19.3h-70.26v-36.32h0Zm204.06,51.62h-54.88s-.01,0-.02,0-.01,0-.02,0h-54.7c-5.41,0-9.8-4.4-9.8-9.8s4.4-9.8,9.8-9.8h109.61c5.41,0,9.81,4.4,9.81,9.8s-4.4,9.8-9.81,9.8Z"></path><path class="cls-1" d="m230.45,464.12c13.68,0,24.8-11.13,24.8-24.81s-11.13-24.8-24.8-24.8h-63.46c-13.68,0-24.81,11.13-24.81,24.8s11.13,24.81,24.8,24.81h63.46Zm-73.26-24.81c0-5.41,4.4-9.8,9.8-9.8h63.46c5.41,0,9.8,4.4,9.8,9.8s-4.4,9.81-9.8,9.81h-63.46c-5.41,0-9.81-4.4-9.81-9.81h0Z"></path><path class="cls-1" d="m47.26,106.86c-4.14,0-7.5,3.36-7.5,7.5v82.58c-1.1,23.73,23.4,45.2,48.52,44.93,24.53.73,51.14-20.46,49.87-45.02v-82.49c0-4.14-3.36-7.5-7.5-7.5s-7.5,3.36-7.5,7.5v82.49c.81,16.13-16.99,30.1-34.93,30.02-15.69.55-34.56-13.98-33.46-29.93v-82.58c0-4.14-3.36-7.5-7.5-7.5Z"></path><path class="cls-1" d="m166.56,238.86c2.1,1.65,7.04,2.51,10.5-1.47l41.52-55.07,43.42,57.21c2.38,2.16,5.21,4.56,10.51,1.44,3.3-2.5,3.94-7.21,1.44-10.51l-45.98-60.59,39.26-52.06c2.49-3.31,1.83-8.01-1.47-10.5-3.31-2.49-8.01-1.83-10.5,1.47l-36.7,48.67-36.95-48.69c-2.51-3.3-7.21-3.94-10.51-1.44s-3.94,7.21-1.44,10.51l39.52,52.07-44.07,58.45c-2.49,3.31-1.84,8.01,1.47,10.5h0Z"></path></g></g></svg>