<svg xmlns="http://www.w3.org/2000/svg" id="Layer_2" data-name="Layer 2" viewBox="0 0 460 460"><defs><style>      .cls-1 {        fill: #19afe6;        stroke-width: 0px;      }    </style></defs><g id="Layer_1-2" data-name="Layer 1"><path class="cls-1" d="m253.14,405.64c0,2.76-2.24,5-5,5h-37.66c-2.76,0-5-2.24-5-5s2.24-5,5-5h37.66c2.76,0,5,2.24,5,5Zm206.86-37.69v57.48c0,19.06-15.51,34.57-34.57,34.57h-108.55c-12.96,0-24.27-7.17-30.18-17.75h-124.51c-25.11,0-45.53-20.43-45.53-45.53v-138.64h-26.48c-2.76,0-5-2.24-5-5v-123.02h-49.74C15.9,130.06,0,114.16,0,94.62v-59.18C0,15.9,15.9,0,35.44,0h109.48c19.54,0,35.44,15.9,35.44,35.44v29.83h116.06c15.26,0,29.47,7.79,37.86,20.32l57.12-57.12c1.95-1.95,5.12-1.95,7.07,0l22.51,22.51c.94.94,1.46,2.21,1.46,3.54s-.53,2.6-1.46,3.54l-79.02,79.03v162h29.2c2.76,0,5,2.24,5,5v29.31h49.27c19.06,0,34.57,15.51,34.57,34.56Zm-118.05-58.87v24.31h24.2v-24.31h-24.2Zm-71.72-145.3l-7.02,22.46,22.46-7.01,124.7-124.7-15.44-15.44-124.7,124.69Zm.77,30.5l-13.91,4.35c-.49.15-.99.23-1.49.23-1.31,0-2.58-.51-3.54-1.46-1.32-1.31-1.79-3.25-1.24-5.03l5.07-16.23c-7.73-5.49-17.05-8.48-26.6-8.48-23.66,0-43.2,17.96-45.7,40.97h91.4c-.54-4.97-1.9-9.82-4-14.34Zm-41.7-36.63c10.97,0,19.89-8.92,19.89-19.89s-8.92-19.89-19.89-19.89-19.89,8.92-19.89,19.89,8.92,19.89,19.89,19.89h0ZM35.44,120.06h109.48c14.03,0,25.44-11.41,25.44-25.44v-59.18c0-14.03-11.41-25.44-25.44-25.44H35.44c-14.03,0-25.44,11.41-25.44,25.44v59.18c0,14.03,11.41,25.44,25.44,25.44Zm81.22,128.02v-118.02h-21.48v118.02h21.48Zm44.39,18.31v-8.31h-34.39v114.12h155.66v-4.25c0-19.06,15.51-34.57,34.57-34.57h15.07v-24.31h-34.39v8.31c0,2.76-2.24,5-5,5h-126.52c-2.76,0-5-2.24-5-5v-26.62c0-2.76,2.24-5,5-5h126.52c2.76,0,5,2.24,5,5v8.31h34.39v-152l-40.08,40.08c-.57.57-1.27,1-2.05,1.24l-9.21,2.88c3.05,7.01,4.65,14.63,4.65,22.34,0,2.76-2.24,5-5,5h-101.94c-2.76,0-5-2.24-5-5,0-24.25,15.5-44.93,37.11-52.69-6.73-5.49-11.03-13.83-11.03-23.17,0-16.48,13.41-29.89,29.89-29.89s29.89,13.41,29.89,29.89c0,9.34-4.3,17.68-11.03,23.17,3.79,1.35,7.42,3.11,10.85,5.25l2.05-6.55c.24-.77.67-1.47,1.24-2.04l64.73-64.73c-6.36-10.77-18.02-17.58-30.6-17.58h-116.06v19.35c0,19.54-15.9,35.44-35.44,35.44h-18.26v118.02h34.39v-8.31c0-2.76,2.24-5,5-5h126.52c2.76,0,5,2.24,5,5v26.62c0,2.76-2.24,5-5,5h-126.52c-2.76,0-5-2.24-5-5Zm126.52-5v-16.62h-116.52v16.62h116.52Zm-116.52,34.38v16.62h116.52v-16.62h-116.52Zm111.95,136.49c-.44-2.2-.68-4.48-.68-6.82v-43.24H126.66v14.52c0,19.59,15.94,35.53,35.53,35.53h120.81Zm167-64.3c0-13.55-11.02-24.57-24.57-24.57h-108.55c-13.55,0-24.57,11.02-24.57,24.57v57.48c0,13.55,11.02,24.57,24.57,24.57h108.55c13.55,0,24.57-11.02,24.57-24.57v-57.49ZM136.68,41.65H43.68c-2.76,0-5,2.24-5,5s2.24,5,5,5h93c2.76,0,5-2.24,5-5s-2.24-5-5-5Zm0,36.75H43.68c-2.76,0-5,2.24-5,5s2.24,5,5,5h93c2.76,0,5-2.24,5-5s-2.24-5-5-5Zm280.98,331.66h-93c-2.76,0-5,2.24-5,5s2.24,5,5,5h93c2.76,0,5-2.24,5-5s-2.24-5-5-5Zm0-36.75h-93c-2.76,0-5,2.24-5,5s2.24,5,5,5h93c2.76,0,5-2.24,5-5s-2.24-5-5-5Z"></path></g></svg>