<svg xmlns="http://www.w3.org/2000/svg" id="Layer_2" data-name="Layer 2" viewBox="0 0 512 427.02"><defs><style>      .cls-1 {        fill: #19afe6;        stroke-width: 0px;      }    </style></defs><g id="Layer_1-2" data-name="Layer 1"><g><path class="cls-1" d="m92.59,333.71c0,9.65,7.85,17.5,17.5,17.5h89.99c9.65,0,17.5-7.85,17.5-17.5v-27.23c0-9.65-7.85-17.5-17.5-17.5h-89.99c-9.65,0-17.5,7.85-17.5,17.5v27.23Zm15-27.23c0-1.38,1.12-2.5,2.5-2.5h89.99c1.38,0,2.5,1.12,2.5,2.5v27.23c0,1.38-1.12,2.5-2.5,2.5h-89.99c-1.38,0-2.5-1.12-2.5-2.5v-27.23Z"></path><path class="cls-1" d="m100.09,161.2h52.63c9.93-.34,9.92-14.66,0-15h-52.63c-9.93.34-9.92,14.66,0,15Z"></path><path class="cls-1" d="m100.09,196.2h79.19c9.93-.34,9.92-14.66,0-15h-79.19c-9.93.34-9.92,14.66,0,15Z"></path><path class="cls-1" d="m282.07,38.76c-1.74-8.54-13.82-9.22-16.52-.93-.03.09-.05.17-.08.26l-6.8,23.87-7.06-23.95c-.03-.09-.05-.18-.08-.27-1.24-3.68-4.8-6.07-8.68-5.81-3.88.26-7.09,3.1-7.84,7l-8.21,45.52c-.73,4.08,1.97,7.98,6.05,8.71,4.07.73,7.98-1.97,8.71-6.05l3.38-18.75,5.66,19.18c.02.09.05.17.08.26,1.17,3.51,4.45,5.85,8.15,5.84,3.7-.02,6.96-2.39,8.1-5.91.03-.09.05-.17.08-.26l5.46-19.16,3.61,18.87c.78,4.07,4.71,6.74,8.77,5.96,4.07-.78,6.74-4.71,5.96-8.77l-8.72-45.62Z"></path><path class="cls-1" d="m210.04,73.81c-3.17-2.66-7.9-2.24-10.57.93-.35.42-.74.82-1.14,1.17-9.35,7.63-24.18-1.48-23.71-13.13-.24-12.46,14.56-20.32,24.74-13.16,3.43,2.32,8.09,1.42,10.41-2.02,2.32-3.43,1.42-8.09-2.02-10.41-19.98-13.89-48.45,1.23-48.13,25.59-.62,24.39,29.91,40.71,48.68,24.33.94-.84,1.83-1.76,2.66-2.74,2.66-3.17,2.25-7.91-.93-10.57h0Z"></path><path class="cls-1" d="m331.61,56.11c-5.44-2.01-10.53-4.19-12.39-5-.43-.44-.47-.98-.41-1.39.15-1.08,1.09-1.95,2.56-2.39,5.69-1.72,11.13,2.51,11.34,2.67,3.17,2.62,7.86,2.2,10.52-.96,2.66-3.17,2.26-7.9-.91-10.57-4.27-3.59-14.39-8.79-25.27-5.51-7.08,2.13-12.09,7.73-13.08,14.62-.93,6.5,1.89,12.76,7.36,16.33.33.22.68.4,1.04.57.27.12,6.76,3.01,14.06,5.7,2.54.94,5.4,2.68,5.07,4.52-1.96,6.41-13.71,4.02-17.26-.52-6.92-7.13-17.53,2.49-11.11,10.07,11.9,13.79,39.14,12.87,43.14-6.92,1.28-7.17-1.89-16.52-14.65-21.23Z"></path><path class="cls-1" d="m501.5,286.88h-14.66c-2.02-7.3-4.94-14.31-8.69-20.93l10.39-10.39c4.09-4.09,4.09-10.75,0-14.85l-20.5-20.5c-3.91-4.08-10.94-4.08-14.85,0l-4.52,4.52v-31.79c-.34-9.93-14.66-9.92-15,0v33.12c-3.83-1.65-7.77-3.04-11.79-4.16v-14.66c0-5.79-4.71-10.5-10.5-10.5h-29c-5.79,0-10.5,4.71-10.5,10.5v14.66c-7.3,2.02-14.31,4.94-20.93,8.69l-10.38-10.38c-3.91-4.07-10.94-4.07-14.85,0l-20.51,20.51c-4.09,4.09-4.09,10.75,0,14.85l10.38,10.38c-3.75,6.62-6.66,13.63-8.69,20.93h-14.66c-5.79,0-10.5,4.71-10.5,10.5v29c0,5.79,4.71,10.5,10.5,10.5h14.66c2.02,7.3,4.94,14.31,8.69,20.93l-10.38,10.38c-.9.9-1.59,1.92-2.09,3.01H65.47c4.42-6.09,7.03-13.6,7.03-21.73v-213.41c0-5.79,4.71-10.5,10.5-10.5h340.15c5.79,0,10.5,4.71,10.5,10.5v21.88c.34,9.93,14.66,9.92,15,0v-21.88c0-14.06-11.44-25.5-25.5-25.5h-.87V25.5c0-14.06-11.44-25.5-25.5-25.5H109.38c-14.06,0-25.5,11.44-25.5,25.5v12.47H25.51C11.45,37.97,0,49.41,0,63.47v9.96c.34,9.93,14.66,9.92,15,0v-9.96c0-5.79,4.71-10.5,10.5-10.5h58.37v57.6h-.87c-14.06,0-25.5,11.44-25.5,25.5v213.41c.12,19.09-22.93,28.96-36.27,15.5-4.02-4.02-6.23-9.37-6.23-15.06V108.43c-.34-9.93-14.66-9.92-15,0v241.49c-.4,19.51,16.77,36.69,36.29,36.29h272.06l17.34,17.34c3.91,4.08,10.94,4.08,14.85,0l10.38-10.38c6.62,3.75,13.63,6.66,20.93,8.69v14.66c0,5.79,4.71,10.5,10.5,10.5h29c5.79,0,10.5-4.71,10.5-10.5v-14.66c7.3-2.02,14.31-4.94,20.93-8.69l10.38,10.38c3.91,4.08,10.94,4.08,14.85,0l20.51-20.51c4.09-4.09,4.09-10.75,0-14.85l-10.38-10.38c3.75-6.62,6.66-13.63,8.69-20.93h14.66c5.79,0,10.5-4.71,10.5-10.5v-29c0-5.79-4.71-10.5-10.5-10.5h0ZM98.88,25.5c0-5.79,4.71-10.5,10.5-10.5h287.41c5.79,0,10.5,4.71,10.5,10.5v85.07H98.88V25.5Zm398.12,296.38h-13.64c-4.9,0-9.11,3.31-10.23,8.06-1.92,8.15-5.15,15.91-9.58,23.08-2.57,4.14-1.94,9.46,1.52,12.92l9.67,9.67-14.14,14.14-9.67-9.67c-3.46-3.46-8.77-4.08-12.92-1.52-7.17,4.44-14.94,7.66-23.09,9.59-4.75,1.12-8.06,5.33-8.06,10.23v13.64h-20v-13.64c0-4.9-3.32-9.11-8.06-10.23-8.15-1.92-15.91-5.15-23.09-9.59-4.14-2.56-9.45-1.93-12.91,1.52l-9.67,9.67-14.14-14.14,9.67-9.67c3.46-3.46,4.09-8.77,1.52-12.92-4.44-7.17-7.66-14.94-9.59-23.09-1.12-4.75-5.33-8.06-10.23-8.06h-13.64v-20h13.64c4.9,0,9.11-3.32,10.23-8.06,1.92-8.15,5.15-15.91,9.58-23.08,2.57-4.14,1.94-9.46-1.52-12.92l-9.67-9.67,14.14-14.14,9.67,9.67c3.46,3.46,8.77,4.08,12.91,1.52,7.17-4.44,14.94-7.66,23.09-9.59,4.75-1.12,8.06-5.33,8.06-10.23v-13.64h20v13.64c0,4.9,3.32,9.11,8.06,10.23,8.15,1.92,15.91,5.15,23.09,9.59,4.14,2.56,9.45,1.93,12.91-1.52l9.67-9.67,14.14,14.14-9.67,9.67c-3.46,3.46-4.09,8.77-1.52,12.92,4.44,7.17,7.66,14.94,9.59,23.09,1.12,4.75,5.33,8.06,10.23,8.06h13.64v20Z"></path><path class="cls-1" d="m396.86,267.43c-24.51,0-44.45,19.94-44.45,44.45,2.23,58.89,86.68,58.87,88.9,0,0-24.51-19.94-44.45-44.45-44.45h0Zm0,73.9c-16.24,0-29.45-13.21-29.45-29.45,1.48-39.02,57.43-39.01,58.9,0,0,16.24-13.21,29.45-29.45,29.45h0Z"></path></g></g></svg>