<svg xmlns="http://www.w3.org/2000/svg" id="Layer_2" data-name="Layer 2" viewBox="0 0 512 512"><defs><style>      .cls-1 {        fill: #19afe6;        stroke-width: 0px;      }    </style></defs><g id="Layer_1-2" data-name="Layer 1"><g><path class="cls-1" d="m224,416H40c-22.08-.03-39.97-17.92-40-40V40C.03,17.92,17.92.03,40,0h16v16h-16c-13.25,0-24,10.75-24,24v336c0,13.25,10.75,24,24,24h184v16Z"></path><path class="cls-1" d="m72,0h16.01v16h-16.01V0Z"></path><path class="cls-1" d="m472,416v-16c13.25,0,24-10.75,24-24V40c0-13.25-10.75-24-24-24H104V0h368c22.08.03,39.97,17.92,40,40v336c-.03,22.08-17.92,39.97-40,40Z"></path><path class="cls-1" d="m152.24,438.23l8.02-31.99,15.52,3.89-8.02,31.99-15.52-3.89Z"></path><path class="cls-1" d="m224,480h-80c-4.42,0-8-3.58-8-8v-16c0-13.25,10.75-24,24-24h64v16h-64c-4.42,0-8,3.58-8,8v8h72v16Z"></path><path class="cls-1" d="m8,336h216v16H8v-16Z"></path><path class="cls-1" d="m32,368h16v16h-16v-16Z"></path><path class="cls-1" d="m64,368h48v16h-48v-16Z"></path><path class="cls-1" d="m440,512h-160c-22.08-.03-39.97-17.92-40-40V152c.03-22.08,17.92-39.97,40-40h160c22.08.03,39.97,17.92,40,40v320c-.03,22.08-17.92,39.97-40,40Zm-160-384c-13.25,0-24,10.75-24,24v320c0,13.25,10.75,24,24,24h160c13.25,0,24-10.75,24-24V152c0-13.25-10.75-24-24-24h-160Z"></path><path class="cls-1" d="m400,192h-80c-14.99,0-21.27-13.06-23.26-24h-48.74v-16h56c4.42,0,8,3.58,8,8,0,.14.45,16,8,16h80c7.55,0,8-15.86,8-16,0-4.42,3.58-8,8-8h56v16h-48.74c-1.98,10.94-8.26,24-23.26,24Z"></path><path class="cls-1" d="m328,144h64v16h-64v-16Z"></path><path class="cls-1" d="m328,472h64v16h-64v-16Z"></path><path class="cls-1" d="m248,448h224v16h-224v-16Z"></path><path class="cls-1" d="m144,224h-32c-4.42,0-8-3.58-8-8v-11.73c-4.47-1.41-8.8-3.21-12.95-5.38l-8.3,8.3c-3.12,3.12-8.19,3.12-11.31,0l-22.63-22.63c-3.12-3.12-3.12-8.19,0-11.31l8.3-8.3c-2.17-4.15-3.96-8.49-5.37-12.95h-11.73c-4.42,0-8-3.58-8-8v-32c0-4.42,3.58-8,8-8h11.73c1.41-4.47,3.21-8.8,5.38-12.95l-8.3-8.3c-3.12-3.12-3.12-8.19,0-11.31l22.63-22.63c3.12-3.12,8.19-3.12,11.31,0l8.3,8.3c4.15-2.17,8.49-3.96,12.95-5.37v-11.73c0-4.42,3.58-8,8-8h32c4.42,0,8,3.58,8,8v11.73c4.47,1.41,8.8,3.21,12.95,5.38l8.3-8.3c3.12-3.12,8.19-3.12,11.31,0l22.63,22.63c3.12,3.12,3.12,8.19,0,11.31l-8.3,8.3c2.17,4.15,3.96,8.49,5.37,12.95h11.73c4.42,0,8,3.58,8,8v32c0,4.42-3.58,8-8,8h-11.73c-1.41,4.47-3.21,8.8-5.38,12.95l8.3,8.3c3.12,3.12,3.12,8.19,0,11.31l-22.63,22.63c-3.12,3.12-8.19,3.12-11.31,0l-8.3-8.3c-4.15,2.17-8.49,3.96-12.95,5.37v11.73c0,4.42-3.58,8-8,8h0Zm-24-16h16v-9.84c0-3.74,2.58-6.98,6.22-7.81,7.01-1.6,13.7-4.37,19.78-8.22,3.16-2,7.29-1.53,9.93,1.11l6.98,6.98,11.31-11.31-6.98-6.98c-2.65-2.64-3.11-6.77-1.11-9.93,3.84-6.08,6.62-12.77,8.22-19.78.83-3.64,4.07-6.23,7.81-6.22h9.84v-16h-9.84c-3.74,0-6.98-2.58-7.81-6.22-1.6-7.01-4.37-13.7-8.22-19.78-2-3.16-1.53-7.29,1.11-9.93l6.98-6.98-11.31-11.31-6.98,6.98c-2.64,2.65-6.77,3.11-9.93,1.11-6.08-3.84-12.77-6.62-19.78-8.22-3.64-.83-6.23-4.07-6.22-7.81v-9.84h-16v9.84c0,3.74-2.58,6.98-6.22,7.81-7.01,1.6-13.7,4.37-19.78,8.22-3.16,2-7.29,1.53-9.93-1.11l-6.98-6.98-11.31,11.31,6.98,6.98c2.65,2.64,3.11,6.77,1.11,9.93-3.84,6.08-6.62,12.77-8.22,19.78-.83,3.64-4.07,6.23-7.81,6.22h-9.84v16h9.84c3.74,0,6.98,2.58,7.81,6.22,1.6,7.01,4.37,13.7,8.22,19.78,2,3.16,1.53,7.29-1.11,9.93l-6.98,6.98,11.31,11.31,6.98-6.98c2.64-2.65,6.77-3.11,9.93-1.11,6.08,3.84,12.77,6.62,19.78,8.22,3.64.83,6.23,4.07,6.22,7.81v9.84Z"></path><path class="cls-1" d="m128,168c-22.09,0-40-17.91-40-40s17.91-40,40-40,40,17.91,40,40c-.03,22.08-17.92,39.97-40,40Zm0-64c-13.25,0-24,10.75-24,24s10.75,24,24,24,24-10.75,24-24-10.75-24-24-24Z"></path><path class="cls-1" d="m136,328h-16v-32c0-4.42,3.58-8,8-8h11.73c1.41-4.47,3.21-8.8,5.38-12.95l-8.3-8.3c-3.12-3.12-3.12-8.19,0-11.31l22.63-22.63c3.12-3.12,8.19-3.12,11.31,0l8.3,8.3c4.15-2.17,8.49-3.96,12.95-5.37v-11.73c0-4.42,3.58-8,8-8h32v16h-24v9.84c0,3.74-2.58,6.98-6.22,7.81-7.01,1.6-13.7,4.37-19.78,8.22-3.16,2-7.29,1.53-9.93-1.11l-6.98-6.98-11.31,11.31,6.98,6.98c2.65,2.64,3.11,6.77,1.11,9.93-3.84,6.08-6.62,12.77-8.22,19.78-.83,3.64-4.07,6.23-7.81,6.22h-9.84v24Z"></path><path class="cls-1" d="m192,312h-16c.03-22.08,17.92-39.97,40-40v16c-13.25,0-24,10.75-24,24Z"></path><path class="cls-1" d="m360,400c-48.6,0-88-39.4-88-88s39.4-88,88-88,88,39.4,88,88c-.06,48.58-39.42,87.94-88,88Zm0-160c-39.76,0-72,32.24-72,72s32.24,72,72,72,72-32.24,72-72c-.05-39.74-32.26-71.95-72-72Z"></path><path class="cls-1" d="m344,368c-2.12,0-4.16-.84-5.66-2.34l-40-40c-3.12-3.12-3.12-8.19,0-11.31l24-24c3.12-3.12,8.19-3.12,11.31,0l10.34,10.34,42.34-42.34c3.12-3.12,8.19-3.12,11.31,0l24,24c3.12,3.12,3.12,8.19,0,11.31l-72,72c-1.5,1.5-3.53,2.34-5.66,2.34Zm-28.69-48l28.69,28.69,60.69-60.69-12.69-12.69-42.34,42.34c-3.12,3.12-8.19,3.12-11.31,0l-10.34-10.34-12.69,12.69Z"></path><path class="cls-1" d="m456,32h16v16h-16v-16Z"></path><path class="cls-1" d="m336,32h104v16h-104v-16Z"></path></g></g></svg>