<svg xmlns="http://www.w3.org/2000/svg" id="Layer_2" data-name="Layer 2" viewBox="0 0 512 511.37"><defs><style>      .cls-1 {        fill: #19afe6;        stroke-width: 0px;      }    </style></defs><g id="Layer_1-2" data-name="Layer 1"><g><path class="cls-1" d="m470.92,36.94h-65.44c-4.14,0-7.5,3.36-7.5,7.5s3.36,7.5,7.5,7.5h65.44c4.14,0,7.5-3.36,7.5-7.5s-3.36-7.5-7.5-7.5Z"></path><path class="cls-1" d="m368.32,51.94h7.98c4.14,0,7.5-3.36,7.5-7.5s-3.36-7.5-7.5-7.5h-7.98c-4.14,0-7.5,3.36-7.5,7.5s3.36,7.5,7.5,7.5Z"></path><path class="cls-1" d="m368.32,87.17h102.6c4.14,0,7.5-3.36,7.5-7.5s-3.36-7.5-7.5-7.5h-102.6c-4.14,0-7.5,3.36-7.5,7.5s3.36,7.5,7.5,7.5Z"></path><path class="cls-1" d="m395.44,443.79c0-29.96-10-59.35-28.22-83.1l1.39-25.61c.95-17.43-12.89-32.18-30.48-32.18h-82.1c-3.78-2.67-6.07-7-6.07-11.69v-20.94c12.73-8.23,21.67-17.62,28.23-28.79h14.51c16.79,0,30.45-13.66,30.45-30.45v-56.01c0-9.45-5.46-17.8-13.64-21.75v-39.31c0-17.9-14.56-32.46-32.45-32.46h-.84c-.51,0-.93-.42-.93-.93,0-17.9-14.56-32.46-32.46-32.46h-79.43c-39.43,0-71.5,32.08-71.5,71.5v33.64c-8.17,3.95-13.64,12.3-13.64,21.75v28.49c0,13.33,10.84,24.17,24.17,24.17h9.68c2.51,21.2,12.45,40.55,28.02,54.01,3.65,3.16,7.43,5.98,11.32,8.5v21.03c0,4.67-2.3,9-6.09,11.69H63.31c-17.46,0-31.43,14.61-30.48,32.18l1.39,25.61c-18.22,23.75-28.22,53.14-28.22,83.1v28.25c-3.73,4.18-6,9.68-6,15.71,0,13.03,10.6,23.63,23.63,23.63h354.19c13.03,0,23.63-10.6,23.63-23.63,0-6.03-2.27-11.53-6-15.71v-28.25Zm-15,0v20.48c-.86-.1-1.74-.15-2.63-.15h-16.21l4.23-77.99c9.49,17.63,14.6,37.49,14.6,57.66h0Zm-73.05-292.42c.49,1.13.77,2.37.77,3.66v28.49c0,5.06-4.11,9.17-9.17,9.17h-8.92v-28.27l4.62-1.61c5.72-1.99,10.21-6.19,12.7-11.44Zm-50.07,86.9h-18.82c-3.03,0-5.5-2.47-5.5-5.5s2.47-5.5,5.5-5.5h18.82c3.03,0,5.5,2.47,5.5,5.5s-2.47,5.5-5.5,5.5Zm35.39-11.77h-7.58c2.11-6.02,3.57-12.33,4.34-18.81h9.52c3.24,0,6.34-.65,9.17-1.81v5.17c0,8.52-6.93,15.45-15.45,15.45ZM106.92,99.63c0-31.16,25.35-56.5,56.5-56.5h79.43c9.62,0,17.46,7.83,17.46,17.46,0,8.78,7.15,15.93,15.93,15.93h.84c9.62,0,17.45,7.83,17.45,17.46v47.96c0,3.02-1.92,5.71-4.77,6.71l-15.76,5.49c-.64.22-1.29-.24-1.29-.92l.03-29.8c.09-21.75-20.28-40.72-48.81-31.56-14.35,4.61-32.11,4.6-46.42,0-28.24-9.08-48.9,9.56-48.81,31.53l.04,29.83c0,.69-.67,1.14-1.29.92l-15.77-5.49c-2.85-.99-4.76-3.69-4.76-6.71v-42.3h0Zm-13.64,83.88v-28.49c0-1.3.28-2.54.77-3.66,2.48,5.25,6.98,9.45,12.7,11.44l4.62,1.61v28.27h-8.92c-5.06,0-9.17-4.11-9.17-9.17Zm33.23,15.51c-.25-9.86-.1-20.33-.14-29.91.46.04.93.06,1.39.06,8.92,0,15.99-7.25,15.98-15.99l-.04-29.85c-.05-12.18,10.87-23.11,29.22-17.21,17.39,5.59,38.26,5.57,55.6,0,17.48-5.62,29.28,4.27,29.22,17.24l-.03,29.82c-.01,9.3,7.93,16.74,17.36,15.93v30.51c-.22,6.48-1.29,12.81-3.1,18.82-3.73-3.82-8.92-6.2-14.66-6.2h-18.82c-11.31,0-20.5,9.2-20.5,20.5s9.2,20.5,20.5,20.5h9.53c-13.85,10.81-29.61,16.45-46.92,16.74-37.86-.3-73.53-28.28-74.61-70.98h0Zm39.97,92.2v-13.12c10.84,4.49,22.41,6.82,34.62,6.9h.05s.08,0,.12,0c11.89-.18,23.15-2.49,33.71-6.84v13.06c0,4.1.86,8.06,2.43,11.69h-73.38c1.58-3.63,2.44-7.59,2.44-11.68h0Zm-130.87,94.91l1.18,21.82c.22,4.14,3.77,7.32,7.9,7.08,4.14-.22,7.31-3.76,7.08-7.89l-3.95-72.87c-.48-8.86,6.55-16.36,15.5-16.36h274.83c8.88,0,15.98,7.43,15.5,16.36l-7.05,129.85h-117.61c1.43-8.57,5.29-16.62,11.23-23.23l.21-.24c22.7-25.4,15.91-65.11-13.44-81.79-7.53-4.28-17.09,1.06-17.09,9.93v34.03c0,1.56-1.27,2.83-2.83,2.83h-12.7c-1.56,0-2.83-1.27-2.83-2.83v-34.03c0-8.85-9.55-14.21-17.09-9.93-29.43,16.72-36.09,56.45-13.41,81.81l.19.21c5.94,6.6,9.8,14.66,11.23,23.23H54.86l-1.2-22.17c-.22-4.14-3.76-7.31-7.9-7.08-4.14.22-7.31,3.76-7.08,7.89l1.16,21.36h-16.21c-.89,0-1.76.05-2.63.15v-20.48c0-20.16,5.11-40.02,14.6-57.66h0Zm152.02,77.99c-1.54-12.29-6.8-23.89-15.24-33.26l-.18-.2c-14.49-16.21-12.55-41.28,4.35-55.1v27.27c0,9.83,8,17.83,17.83,17.83h12.7c9.83,0,17.83-8,17.83-17.83v-27.27c16.79,13.73,18.93,38.78,4.33,55.12l-.16.18c-8.44,9.37-13.71,20.97-15.24,33.26h-26.21Zm190.2,32.25H23.63c-4.76,0-8.63-3.87-8.63-8.63s3.87-8.63,8.63-8.63h354.19c4.76,0,8.63,3.87,8.63,8.63s-3.87,8.63-8.63,8.63Z"></path><path class="cls-1" d="m504.5,51.33c4.14,0,7.5-3.36,7.5-7.5v-14.52c0-16.16-13.15-29.31-29.31-29.31h-126.14c-16.16,0-29.31,13.15-29.31,29.31v63.09c0,16.16,13.15,29.31,29.31,29.31,2.89,0,5.24,2.35,5.24,5.24v39.02c0,5.63,3.65,10.43,9.08,11.93,5.46,1.51,11.04-.76,13.92-5.57l28.83-48.08c.94-1.57,2.66-2.54,4.49-2.54h64.58c16.16,0,29.31-13.15,29.31-29.31v-13.51c0-4.14-3.36-7.5-7.5-7.5s-7.5,3.36-7.5,7.5v13.51c0,7.89-6.42,14.31-14.31,14.31h-64.58c-7.07,0-13.72,3.77-17.36,9.83l-23.97,39.97v-29.56c0-11.16-9.08-20.24-20.24-20.24-7.89,0-14.31-6.42-14.31-14.31V29.31c0-7.89,6.42-14.31,14.31-14.31h126.14c7.89,0,14.31,6.42,14.31,14.31v14.52c0,4.14,3.36,7.5,7.5,7.5h0Z"></path></g></g></svg>