<svg xmlns="http://www.w3.org/2000/svg" id="Layer_2" data-name="Layer 2" viewBox="0 0 419.15 373.11"><defs><style>      .cls-1 {        fill: #19afe6;        fill-rule: evenodd;        stroke-width: 0px;      }    </style></defs><g id="Layer_1-2" data-name="Layer 1"><g><path class="cls-1" d="m2.5,196.75c2.96-8.32,12.11-12.67,20.44-9.72l170.56,60.64c10.4,3.7,21.76,3.7,32.16,0l170.56-60.64c8.33-2.96,17.48,1.39,20.44,9.72,2.96,8.33-1.39,17.48-9.72,20.44l-170.56,60.64c-17.34,6.16-36.26,6.16-53.6,0L12.21,217.18c-8.33-2.96-12.68-12.11-9.72-20.44h0Z"></path><path class="cls-1" d="m2.5,287.41c2.96-8.32,12.11-12.67,20.44-9.72l170.56,60.64c10.4,3.7,21.76,3.7,32.16,0l170.56-60.64c8.33-2.96,17.48,1.39,20.44,9.72,2.96,8.33-1.39,17.48-9.72,20.44l-170.56,60.64c-17.34,6.16-36.26,6.16-53.6,0L12.21,307.85c-8.33-2.96-12.68-12.11-9.72-20.44h0Z"></path><path class="cls-1" d="m233.27,36.17c-15.3-5.57-32.08-5.57-47.39,0L35.51,90.85c-4.68,1.7-4.68,8.32,0,10.02l150.37,54.68c15.31,5.57,32.08,5.57,47.39,0l150.37-54.68c4.68-1.7,4.68-8.32,0-10.02l-150.37-54.68Zm-58.32-30.07c22.37-8.13,46.89-8.13,69.26,0l150.37,54.68c32.77,11.92,32.77,58.26,0,70.17l-150.37,54.68c-22.37,8.13-46.89,8.13-69.26,0L24.57,130.95c-32.77-11.92-32.77-58.26,0-70.17L174.95,6.1Z"></path></g></g></svg>