<svg xmlns="http://www.w3.org/2000/svg" id="Layer_2" data-name="Layer 2" viewBox="0 0 445.02 383.64"><defs><style>      .cls-1 {        fill: #19afe6;        stroke-width: 0px;      }    </style></defs><g id="Layer_1-2" data-name="Layer 1"><g><path class="cls-1" d="m437.35,0H7.67C3.44,0,0,3.44,0,7.67v306.91c0,4.24,3.44,7.67,7.67,7.67h191.82v16.04H69.06c-4.24,0-7.67,3.44-7.67,7.67v30c0,4.24,3.44,7.67,7.67,7.67h306.91c4.24,0,7.67-3.44,7.67-7.67v-30c0-4.24-3.44-7.67-7.67-7.67h-130.44v-16.04h191.82c4.24,0,7.67-3.44,7.67-7.67V7.67c0-4.24-3.44-7.67-7.67-7.67ZM15.35,15.35h414.33v249.83H15.35V15.35Zm352.95,352.95H76.73v-14.66h291.57v14.66Zm-138.11-30h-15.35v-16.04h15.35v16.04Zm199.49-31.38H15.35v-26.39h414.33v26.39Z"></path><path class="cls-1" d="m314.59,184.76c-11.56.01-21.74,7.58-25.09,18.64h-97.68c-1.72-5.66-5.28-10.58-10.13-13.96l4.99-15.35h111.03c3.57.12,6.75-2.23,7.67-5.68l21.48-77.65c1.15-4.08-1.23-8.32-5.31-9.46-.77-.22-1.57-.31-2.36-.28h-130.44c-4.24,0-7.67,3.44-7.67,7.67s3.44,7.67,7.67,7.67h120.31l-17.49,62.15h-104.35l-28.31-102.59c-.93-3.45-4.11-5.8-7.67-5.68h-39.05c-4.24,0-7.67,3.44-7.67,7.67s3.44,7.67,7.67,7.67h33.61l27.62,100.36-6.06,18.8h0c-14.57-.44-26.74,11.01-27.18,25.58-.44,14.57,11.01,26.74,25.58,27.18,11.94.36,22.63-7.34,26.07-18.77h97.29c4.24,13.9,18.95,21.74,32.85,17.5s21.74-18.95,17.5-32.85c-3.34-10.97-13.41-18.51-24.87-18.64Zm-147.63,37.75c-6.1.1-11.13-4.77-11.22-10.87-.1-6.1,4.77-11.13,10.87-11.22,1.29-.02,2.58.19,3.8.61,4.56,1.44,7.66,5.66,7.67,10.44-.04,6.11-5.01,11.05-11.13,11.05Zm147.63,0c-6.08.51-11.42-4.01-11.93-10.09-.51-6.08,4.01-11.42,10.09-11.93.61-.05,1.23-.05,1.84,0,6.08.51,10.6,5.85,10.09,11.93-.45,5.38-4.71,9.64-10.09,10.09Z"></path></g></g></svg>