<svg xmlns="http://www.w3.org/2000/svg" id="Layer_2" data-name="Layer 2" viewBox="0 0 512 488.01"><defs><style>      .cls-1 {        fill: #19afe6;        stroke-width: 0px;      }    </style></defs><g id="Layer_1-2" data-name="Layer 1"><g><path class="cls-1" d="m93.56,43.28c-18.65,0-33.83,15.17-33.83,33.82s15.18,33.82,33.83,33.82,33.86-15.17,33.86-33.82-15.19-33.82-33.86-33.82Zm0,47.47c-7.53,0-13.66-6.12-13.66-13.65s6.13-13.65,13.66-13.65,13.69,6.12,13.69,13.65-6.14,13.65-13.69,13.65Z"></path><path class="cls-1" d="m389.36,43.28h-89.43c-18.65,0-33.83,15.17-33.83,33.82s15.18,33.82,33.83,33.82h89.43c18.65,0,33.83-15.17,33.83-33.82s-15.18-33.82-33.83-33.82Zm0,47.47h-89.43c-7.53,0-13.66-6.12-13.66-13.65s6.13-13.65,13.66-13.65h89.43c7.53,0,13.66,6.12,13.66,13.65s-6.13,13.65-13.66,13.65Z"></path><path class="cls-1" d="m181.23,43.28c-18.65,0-33.83,15.17-33.83,33.82s15.18,33.82,33.83,33.82,33.86-15.17,33.86-33.82-15.19-33.82-33.86-33.82Zm0,47.47c-7.53,0-13.66-6.12-13.66-13.65s6.13-13.65,13.66-13.65,13.69,6.12,13.69,13.65-6.14,13.65-13.69,13.65Z"></path><path class="cls-1" d="m164.79,210.45c-5.41-1.3-10.86,2.05-12.15,7.46l-20.01,83.72c-1.29,5.42,2.05,10.86,7.46,12.15.79.19,1.58.28,2.35.28,4.56,0,8.69-3.11,9.8-7.74l20.01-83.72c1.29-5.42-2.05-10.86-7.46-12.15Z"></path><path class="cls-1" d="m201.81,303.94c1.92,1.71,4.32,2.55,6.7,2.55,2.78,0,5.54-1.14,7.54-3.38l28.28-31.74c4.67-5.19,4.67-13.33.03-18.49l-28.31-31.78c-3.71-4.16-10.08-4.53-14.24-.82-4.16,3.71-4.53,10.08-.82,14.24l24.58,27.59-24.58,27.59c-3.7,4.16-3.34,10.54.82,14.24h0Z"></path><path class="cls-1" d="m103.08,220.29c-4.16-3.71-10.53-3.33-14.24.82l-28.28,31.74c-4.67,5.2-4.67,13.33-.03,18.49l28.31,31.78c1.99,2.24,4.76,3.38,7.53,3.38,2.39,0,4.78-.84,6.7-2.55,4.16-3.7,4.53-10.08.82-14.24l-24.58-27.59,24.58-27.59c3.7-4.16,3.33-10.54-.82-14.24h0Z"></path><path class="cls-1" d="m489.39,327.54h-3.74c-1.96-6.35-4.5-12.48-7.6-18.34l2.67-2.68c4.27-4.24,6.62-9.9,6.63-15.95,0-6.06-2.34-11.74-6.61-16.01l-5.21-5.2V54.55c0-30.08-21.23-54.55-47.32-54.55H47.32C21.23,0,0,24.47,0,54.55v281.85c0,30.08,21.23,54.55,47.32,54.55h59.17c5.57,0,10.08-4.52,10.08-10.08s-4.51-10.08-10.08-10.08h-59.17c-14.72,0-27.15-15.74-27.15-34.38v-182.95h435.19v101.9c-1.15-.18-2.31-.29-3.5-.29h-.04c-6.04.01-11.7,2.36-15.91,6.59l-2.73,2.71c-5.98-3.16-12.21-5.73-18.64-7.7v-3.59c0-12.46-10.14-22.6-22.61-22.6h-18.25c-12.45,0-22.58,10.14-22.58,22.6v3.84c-6.3,1.98-12.39,4.53-18.21,7.63l-2.61-2.6c-4.24-4.26-9.91-6.62-15.95-6.63h-.03c-6.04,0-11.72,2.35-15.98,6.61l-12.89,12.89c-4.27,4.27-6.62,9.96-6.61,16.01,0,6.04,2.36,11.7,6.6,15.91l2.79,2.79c-3.02,5.77-5.51,11.79-7.43,18.01h-3.83c-12.45,0-22.58,10.13-22.58,22.57v18.27c0,.81.04,1.61.13,2.4h-58.68c-5.57,0-10.08,4.52-10.08,10.08s4.51,10.08,10.08,10.08h84.99c1.95,6.28,4.47,12.35,7.55,18.15l-2.73,2.71c-8.77,8.82-8.77,23.14.02,31.92l12.9,12.89c4.24,4.26,9.91,6.62,15.95,6.63h.03c6.04,0,11.72-2.35,15.98-6.61l2.7-2.7c5.86,3.09,11.95,5.61,18.23,7.55v3.9c0,12.46,10.13,22.6,22.58,22.6h18.28c12.45,0,22.58-10.14,22.58-22.6v-3.88c6.33-1.95,12.45-4.49,18.3-7.58l2.69,2.68c4.24,4.26,9.9,6.62,15.95,6.63h.04c6.04,0,11.72-2.35,15.99-6.61l12.86-12.89c4.27-4.24,6.62-9.9,6.63-15.95,0-6.06-2.34-11.74-6.61-16.01l-2.69-2.69c3.07-5.81,5.59-11.88,7.54-18.16h3.81c12.47,0,22.61-10.13,22.61-22.57v-18.27c0-12.45-10.14-22.57-22.61-22.57h0ZM20.17,133.28V54.55c0-18.64,12.43-34.38,27.15-34.38h380.9c14.72,0,27.15,15.74,27.15,34.38v78.73H20.17h0Zm471.66,235.1c0,1.28-1.14,2.4-2.44,2.4h-11.53c-4.7,0-8.78,3.25-9.83,7.83-2.18,9.51-5.92,18.52-11.12,26.79-2.51,3.98-1.92,9.17,1.41,12.5l8.16,8.15c.61.61.7,1.34.7,1.72,0,.45-.12,1.11-.71,1.7l-12.88,12.91c-.61.61-1.34.7-1.72.7h0c-.46,0-1.12-.12-1.71-.71l-8.19-8.16c-3.33-3.32-8.51-3.89-12.49-1.39-8.29,5.21-17.34,8.96-26.91,11.14-4.59,1.05-7.85,5.13-7.85,9.83v11.61c0,1.3-1.13,2.43-2.41,2.43h-18.28c-1.29,0-2.41-1.14-2.41-2.43v-11.64c0-4.71-3.26-8.8-7.86-9.84-9.45-2.14-18.48-5.88-26.86-11.12-1.65-1.03-3.5-1.54-5.35-1.54-2.61,0-5.19,1.01-7.13,2.95l-8.16,8.15c-.61.61-1.34.7-1.72.7h0c-.46,0-1.12-.12-1.7-.7l-12.92-12.92c-.9-.9-.89-2.51-.01-3.39l8.19-8.16c3.35-3.33,3.93-8.54,1.41-12.53-5.21-8.25-8.95-17.26-11.14-26.77-1.05-4.58-5.13-7.83-9.83-7.83h-11.59c-1.31,0-2.41-1.1-2.41-2.4v-18.27c0-1.3,1.11-2.4,2.41-2.4h11.56c4.71,0,8.79-3.26,9.83-7.85,2.15-9.46,5.85-18.43,10.99-26.67,2.48-3.98,1.9-9.14-1.42-12.46l-8.25-8.27c-.56-.56-.68-1.21-.68-1.67,0-.38.09-1.11.7-1.72l12.89-12.89c.61-.61,1.34-.7,1.72-.7h0c.46,0,1.12.12,1.71.71l8.13,8.1c3.34,3.33,8.54,3.9,12.52,1.37,8.24-5.22,17.27-9.01,26.82-11.24,4.56-1.07,7.79-5.14,7.79-9.82v-11.53c0-1.32,1.1-2.43,2.41-2.43h18.25c1.32,0,2.44,1.11,2.44,2.43v11.36c0,4.73,3.28,8.82,7.89,9.84,9.6,2.14,18.75,5.91,27.21,11.22,3.98,2.49,9.15,1.92,12.48-1.4l8.22-8.19c.56-.56,1.22-.68,1.68-.68h0c.38,0,1.11.09,1.72.7l12.89,12.89c.61.61.7,1.34.7,1.72,0,.45-.12,1.11-.71,1.7l-8.16,8.18c-3.32,3.33-3.9,8.52-1.39,12.5,5.22,8.28,8.98,17.34,11.17,26.94,1.05,4.59,5.13,7.84,9.83,7.84h11.48c1.3,0,2.44,1.12,2.44,2.4v18.26Z"></path><path class="cls-1" d="m383.19,297.66c-33.98,0-61.63,27.63-61.63,61.6s27.65,61.57,61.63,61.57,61.6-27.62,61.6-61.57-27.63-61.6-61.6-61.6Zm0,103.01c-22.86,0-41.46-18.57-41.46-41.4s18.6-41.43,41.46-41.43,41.43,18.59,41.43,41.43-18.59,41.4-41.43,41.4Z"></path><path class="cls-1" d="m151.45,370.78h-.2c-5.57,0-10.08,4.52-10.08,10.08s4.51,10.08,10.08,10.08h.2c5.57,0,10.08-4.52,10.08-10.08s-4.51-10.08-10.08-10.08Z"></path></g></g></svg>