<svg xmlns="http://www.w3.org/2000/svg" xmlns:xlink="http://www.w3.org/1999/xlink" id="Layer_2_00000062174470258065179480000005876996478694236606_" x="0px" y="0px" viewBox="0 0 1363.7 2034.8" style="enable-background:new 0 0 1363.7 2034.8;" xml:space="preserve"><style type="text/css">	.st0{opacity:0.23;}	.st1{fill:#0F0A26;fill-opacity:0;}	.st2{opacity:2.000000e-02;fill:#0F0A26;enable-background:new    ;}	.st3{opacity:4.000000e-02;fill:#0F0A26;enable-background:new    ;}	.st4{opacity:6.000000e-02;fill:#0F0A26;enable-background:new    ;}	.st5{opacity:8.000000e-02;fill:#0F0A26;enable-background:new    ;}	.st6{opacity:0.1;fill:#0F0A26;enable-background:new    ;}	.st7{opacity:0.12;fill:#0F0A26;enable-background:new    ;}	.st8{opacity:0.14;fill:#0F0A26;enable-background:new    ;}	.st9{opacity:0.16;fill:#0F0A26;enable-background:new    ;}	.st10{opacity:0.18;fill:#0F0A26;enable-background:new    ;}	.st11{opacity:0.2;fill:#0F0A26;enable-background:new    ;}	.st12{opacity:0.22;fill:#0F0A26;enable-background:new    ;}	.st13{opacity:0.24;fill:#0F0A26;enable-background:new    ;}	.st14{opacity:0.25;fill:#0F0A26;enable-background:new    ;}	.st15{opacity:0.27;fill:#0F0A26;enable-background:new    ;}	.st16{opacity:0.29;fill:#0F0A26;enable-background:new    ;}	.st17{opacity:0.31;fill:#0F0A26;enable-background:new    ;}	.st18{opacity:0.33;fill:#0F0A26;enable-background:new    ;}	.st19{opacity:0.35;fill:#0F0A26;enable-background:new    ;}	.st20{opacity:0.37;fill:#0F0A26;enable-background:new    ;}	.st21{opacity:0.39;fill:#0F0A26;enable-background:new    ;}	.st22{opacity:0.41;fill:#0F0A26;enable-background:new    ;}	.st23{opacity:0.43;fill:#0F0A26;enable-background:new    ;}	.st24{opacity:0.45;fill:#0F0A26;enable-background:new    ;}	.st25{opacity:0.47;fill:#0F0A26;enable-background:new    ;}	.st26{opacity:0.49;fill:#0F0A26;enable-background:new    ;}	.st27{opacity:0.51;fill:#0F0A26;enable-background:new    ;}	.st28{opacity:0.53;fill:#0F0A26;enable-background:new    ;}	.st29{opacity:0.55;fill:#0F0A26;enable-background:new    ;}	.st30{opacity:0.57;fill:#0F0A26;enable-background:new    ;}	.st31{opacity:0.59;fill:#0F0A26;enable-background:new    ;}	.st32{opacity:0.61;fill:#0F0A26;enable-background:new    ;}	.st33{opacity:0.63;fill:#0F0A26;enable-background:new    ;}	.st34{opacity:0.65;fill:#0F0A26;enable-background:new    ;}	.st35{opacity:0.67;fill:#0F0A26;enable-background:new    ;}	.st36{opacity:0.69;fill:#0F0A26;enable-background:new    ;}	.st37{opacity:0.71;fill:#0F0A26;enable-background:new    ;}	.st38{opacity:0.73;fill:#0F0A26;enable-background:new    ;}	.st39{opacity:0.75;fill:#0F0A26;enable-background:new    ;}	.st40{opacity:0.76;fill:#0F0A26;enable-background:new    ;}	.st41{opacity:0.78;fill:#0F0A26;enable-background:new    ;}	.st42{opacity:0.8;fill:#0F0A26;enable-background:new    ;}	.st43{opacity:0.82;fill:#0F0A26;enable-background:new    ;}	.st44{opacity:0.84;fill:#0F0A26;enable-background:new    ;}	.st45{opacity:0.86;fill:#0F0A26;enable-background:new    ;}	.st46{opacity:0.88;fill:#0F0A26;enable-background:new    ;}	.st47{opacity:0.9;fill:#0F0A26;enable-background:new    ;}	.st48{opacity:0.92;fill:#0F0A26;enable-background:new    ;}	.st49{opacity:0.94;fill:#0F0A26;enable-background:new    ;}	.st50{opacity:0.96;fill:#0F0A26;enable-background:new    ;}	.st51{opacity:0.98;fill:#0F0A26;enable-background:new    ;}	.st52{fill:#0F0A26;}	.st53{clip-path:url(#SVGID_00000163780981990478134500000012163329813672060849_);}	.st54{fill:url(#SVGID_00000000922098701367071810000017969962810148947387_);}	.st55{fill:url(#SVGID_00000058586701819511187350000015314005792763794873_);}	.st56{fill:url(#SVGID_00000081643984584327984460000006819470593081830591_);}	.st57{clip-path:url(#SVGID_00000155122247357258632520000012123080247553136283_);}	.st58{fill:#5E6072;}	.st59{fill:#616477;}	.st60{fill:url(#SVGID_00000015330964867988630690000013733899989619979692_);}	.st61{clip-path:url(#SVGID_00000080892944767408344320000013323981011412354469_);}	.st62{fill:url(#SVGID_00000070090336851546848810000005341285061923547785_);}	.st63{fill:url(#SVGID_00000036954991356210493310000006368948328435989396_);}	.st64{clip-path:url(#SVGID_00000074407093221514944200000018126851251476459653_);}	.st65{fill:url(#SVGID_00000058548386065005068500000001544465492869927047_);}	.st66{fill:url(#SVGID_00000143574868675832272750000006728438045360655242_);}	.st67{fill:url(#SVGID_00000059283981742029437290000004510076912167850405_);}	.st68{fill:url(#SVGID_00000143587682885311164630000016667890338583216830_);}	.st69{fill:url(#SVGID_00000139291315692447176440000004628352248933664149_);}	.st70{fill:#A9AECF;}	.st71{fill:url(#SVGID_00000135687489998713562740000002723965392314229136_);}	.st72{fill:url(#SVGID_00000039134809247226025280000015159963754887894194_);}	.st73{fill:url(#SVGID_00000106834933086836402640000013258774637509954217_);}	.st74{clip-path:url(#SVGID_00000121985696200227910940000002225964868891458470_);}	.st75{fill:url(#SVGID_00000098921158139325931880000004903433535994884267_);}	.st76{fill:url(#SVGID_00000036234408546651332430000000267912150270693553_);}	.st77{fill:url(#SVGID_00000168837131034460219100000002940996309630544000_);}	.st78{fill:url(#SVGID_00000113346000289832101900000012450161761107352491_);}	.st79{opacity:0.59;fill:url(#SVGID_00000132066129810694564050000006458080614801241220_);enable-background:new    ;}	.st80{fill:url(#SVGID_00000068641127639119508920000013970319334107525001_);}	.st81{fill:url(#SVGID_00000134208989853525719790000006037923969219588021_);}	.st82{fill:url(#SVGID_00000027566928209413814490000012261184490856554416_);}	.st83{fill:url(#SVGID_00000049905934787599318140000004391445533992092050_);}	.st84{fill:url(#SVGID_00000121255439581004008520000014611342279126592188_);}	.st85{fill:url(#SVGID_00000005260658141341050140000013484518122313402766_);}	.st86{fill:url(#SVGID_00000018229731520933957120000016096741008322461854_);}	.st87{fill:url(#SVGID_00000164480486323666058780000014189242185783828409_);}	.st88{fill:#B1B3D8;}	.st89{fill:#676DA5;}	.st90{fill:#444D84;}	.st91{fill:url(#SVGID_00000137120067069846593140000005483844811823678876_);}	.st92{fill:url(#SVGID_00000093891313452754410640000010755588380960632991_);}	.st93{fill:none;stroke:#008FC6;stroke-width:5.82;stroke-linecap:round;stroke-linejoin:round;}	.st94{fill:none;stroke:#AFB1B2;stroke-width:5.82;stroke-linecap:round;stroke-linejoin:round;}	.st95{fill:url(#SVGID_00000129196137902738624180000007870527134555538817_);}	.st96{fill:url(#SVGID_00000002384535856709769250000007604090402593661374_);}	.st97{fill:url(#SVGID_00000070110915271329268950000001823675349396791989_);}	.st98{fill:url(#SVGID_00000086682657108488913570000013533195529998470532_);}	.st99{fill:url(#SVGID_00000162341768402337914700000017094146080747652541_);}	.st100{fill:url(#SVGID_00000129170985224443299500000017216335342968447903_);}	.st101{fill:url(#SVGID_00000015345116311023745820000001545428014445372833_);}	.st102{fill:url(#SVGID_00000062162787480610710260000007774923890285275521_);}	.st103{fill:url(#SVGID_00000150085121050347629440000009229237290272293268_);}	.st104{fill:url(#SVGID_00000052804129158235875880000013883519924996082609_);}	.st105{fill:url(#SVGID_00000087384149558584603070000016983126925905405591_);}	.st106{fill:url(#SVGID_00000128469537596891878310000003878900001508957097_);}	.st107{fill:url(#SVGID_00000113323762698095527850000004300986635466226098_);}	.st108{fill:#FEFEFE;}	.st109{fill:#FFFFFF;}	.st110{fill:url(#SVGID_00000001630081811143946860000016110370519240324000_);}	.st111{fill:url(#SVGID_00000007408657989446152380000000284048247991049916_);}	.st112{fill:url(#SVGID_00000031175593036487278610000010063436716809137821_);}	.st113{fill:url(#SVGID_00000154387574383431395710000009278424922286974605_);}	.st114{fill:url(#SVGID_00000085230770727525385530000001169113546687369867_);}	.st115{fill:url(#SVGID_00000076586735827925861910000008590321807824256669_);}	.st116{fill:url(#SVGID_00000025430978246624447850000016294302682931262909_);}	.st117{fill:url(#SVGID_00000124867000409658036390000010253944131537825200_);}	.st118{fill:url(#SVGID_00000179633508515398684600000009518980971076117890_);}	.st119{opacity:0.47;fill:#4DC7E8;enable-background:new    ;}</style><g id="Layer_4">	<g class="st0">		<ellipse class="st1" cx="600" cy="1863.9" rx="480.8" ry="170.8"></ellipse>		<ellipse class="st2" cx="603.1" cy="1863.9" rx="476.2" ry="169.2"></ellipse>		<ellipse class="st3" cx="606.1" cy="1863.9" rx="471.5" ry="167.5"></ellipse>		<ellipse class="st4" cx="609.2" cy="1863.9" rx="466.9" ry="165.9"></ellipse>		<ellipse class="st5" cx="612.2" cy="1863.9" rx="462.2" ry="164.2"></ellipse>		<ellipse class="st6" cx="615.3" cy="1863.9" rx="457.5" ry="162.6"></ellipse>		<ellipse class="st7" cx="618.3" cy="1863.9" rx="452.9" ry="160.9"></ellipse>		<ellipse class="st8" cx="621.4" cy="1863.9" rx="448.2" ry="159.3"></ellipse>		<ellipse class="st9" cx="624.5" cy="1863.9" rx="443.5" ry="157.6"></ellipse>		<ellipse class="st10" cx="627.5" cy="1863.9" rx="438.9" ry="155.9"></ellipse>		<ellipse class="st11" cx="630.6" cy="1863.9" rx="434.2" ry="154.3"></ellipse>		<ellipse class="st12" cx="633.6" cy="1863.9" rx="429.6" ry="152.6"></ellipse>		<ellipse class="st13" cx="636.7" cy="1863.9" rx="424.9" ry="151"></ellipse>		<ellipse class="st14" cx="639.7" cy="1863.9" rx="420.2" ry="149.3"></ellipse>		<ellipse class="st15" cx="642.8" cy="1863.9" rx="415.6" ry="147.7"></ellipse>		<ellipse class="st16" cx="645.8" cy="1863.9" rx="410.9" ry="146"></ellipse>		<ellipse class="st17" cx="648.9" cy="1863.9" rx="406.3" ry="144.3"></ellipse>		<ellipse class="st18" cx="651.9" cy="1863.9" rx="401.6" ry="142.7"></ellipse>		<ellipse class="st19" cx="655" cy="1863.9" rx="396.9" ry="141"></ellipse>		<ellipse class="st20" cx="658" cy="1863.9" rx="392.3" ry="139.4"></ellipse>		<ellipse class="st21" cx="661.1" cy="1863.9" rx="387.6" ry="137.7"></ellipse>		<ellipse class="st22" cx="664.1" cy="1863.9" rx="383" ry="136.1"></ellipse>		<ellipse class="st23" cx="667.2" cy="1863.9" rx="378.3" ry="134.4"></ellipse>		<ellipse class="st24" cx="670.2" cy="1863.9" rx="373.6" ry="132.8"></ellipse>		<ellipse class="st25" cx="673.3" cy="1863.9" rx="369" ry="131.1"></ellipse>		<ellipse class="st26" cx="676.3" cy="1863.9" rx="364.3" ry="129.4"></ellipse>		<ellipse class="st27" cx="679.4" cy="1863.9" rx="359.7" ry="127.8"></ellipse>		<ellipse class="st28" cx="682.5" cy="1863.9" rx="355" ry="126.1"></ellipse>		<ellipse class="st29" cx="685.5" cy="1863.9" rx="350.3" ry="124.5"></ellipse>		<ellipse class="st30" cx="688.5" cy="1863.9" rx="345.7" ry="122.8"></ellipse>		<ellipse class="st31" cx="691.6" cy="1863.9" rx="341" ry="121.2"></ellipse>		<ellipse class="st32" cx="694.7" cy="1863.9" rx="336.4" ry="119.5"></ellipse>		<ellipse class="st33" cx="697.7" cy="1863.9" rx="331.7" ry="117.8"></ellipse>		<ellipse class="st34" cx="700.8" cy="1863.9" rx="327" ry="116.2"></ellipse>		<ellipse class="st35" cx="703.8" cy="1863.9" rx="322.4" ry="114.5"></ellipse>		<ellipse class="st36" cx="706.9" cy="1863.9" rx="317.7" ry="112.9"></ellipse>		<ellipse class="st37" cx="709.9" cy="1863.9" rx="313" ry="111.2"></ellipse>		<ellipse class="st38" cx="713" cy="1863.9" rx="308.4" ry="109.6"></ellipse>		<ellipse class="st39" cx="716" cy="1863.9" rx="303.7" ry="107.9"></ellipse>		<ellipse class="st40" cx="719.1" cy="1863.9" rx="299.1" ry="106.3"></ellipse>		<ellipse class="st41" cx="722.1" cy="1863.9" rx="294.4" ry="104.6"></ellipse>		<ellipse class="st42" cx="725.2" cy="1863.9" rx="289.7" ry="102.9"></ellipse>		<ellipse class="st43" cx="728.2" cy="1863.9" rx="285.1" ry="101.3"></ellipse>		<ellipse class="st44" cx="731.3" cy="1863.9" rx="280.4" ry="99.6"></ellipse>		<ellipse class="st45" cx="734.3" cy="1863.9" rx="275.8" ry="98"></ellipse>		<ellipse class="st46" cx="737.4" cy="1863.9" rx="271.1" ry="96.3"></ellipse>		<ellipse class="st47" cx="740.4" cy="1863.9" rx="266.4" ry="94.7"></ellipse>		<ellipse class="st48" cx="743.5" cy="1863.9" rx="261.8" ry="93"></ellipse>		<ellipse class="st49" cx="746.5" cy="1863.9" rx="257.1" ry="91.4"></ellipse>		<ellipse class="st50" cx="749.6" cy="1863.9" rx="252.5" ry="89.7"></ellipse>		<ellipse class="st51" cx="752.7" cy="1863.9" rx="247.8" ry="88"></ellipse>		<ellipse class="st52" cx="755.7" cy="1863.9" rx="243.1" ry="86.4"></ellipse>	</g>	<g>		<g>			<g>				<defs>					<path id="SVGID_1_" d="M602.2,1102l-3.6,172.9c-8.7-26.9-17.3-53.8-26-80.7l3.6-172.9C584.9,1048.2,593.5,1075.1,602.2,1102      L602.2,1102z"></path>				</defs>				<clipPath id="SVGID_00000044177406299400700090000006016592005962535598_">					<use xlink:href="#SVGID_1_" style="overflow:visible;"></use>				</clipPath>				<g style="clip-path:url(#SVGID_00000044177406299400700090000006016592005962535598_);">											<linearGradient id="SVGID_00000124154325852479639600000016886781195978084997_" gradientUnits="userSpaceOnUse" x1="-2490.1321" y1="4533.7354" x2="-2474.9321" y2="4631.0054" gradientTransform="matrix(-0.3952 0.9186 0.9186 0.3952 -4660.0566 1581.6138)">						<stop offset="0" style="stop-color:#8F92C7"></stop>						<stop offset="1" style="stop-color:#505FAA"></stop>					</linearGradient>					<path style="fill:url(#SVGID_00000124154325852479639600000016886781195978084997_);" d="M602.2,1102l-3.6,172.9      c-8.7-26.9-17.3-53.8-26-80.7l3.6-172.9C584.9,1048.2,593.5,1075.1,602.2,1102"></path>				</g>			</g>		</g>					<linearGradient id="SVGID_00000075842412079119936240000009747742101911648426_" gradientUnits="userSpaceOnUse" x1="-2755.5115" y1="5201.291" x2="-2504.2671" y2="5201.291" gradientTransform="matrix(-0.3952 0.9186 0.9186 0.3952 -4660.0566 1581.6138)">			<stop offset="0" style="stop-color:#8F92C7"></stop>			<stop offset="1" style="stop-color:#505FAA"></stop>		</linearGradient>		<polygon style="fill:url(#SVGID_00000075842412079119936240000009747742101911648426_);" points="1192.3,1099.9 1188.7,1272.8    1122.1,1343.2 1125.7,1170.2   "></polygon>					<linearGradient id="SVGID_00000099658695602878382840000005216513681367375510_" gradientUnits="userSpaceOnUse" x1="-2196.9468" y1="4410.8315" x2="-2195.4268" y2="4501.2612" gradientTransform="matrix(-0.3952 0.9186 0.9186 0.3952 -4660.0566 1581.6138)">			<stop offset="0" style="stop-color:#8F92C7"></stop>			<stop offset="1" style="stop-color:#505FAA"></stop>		</linearGradient>		<polygon style="fill:url(#SVGID_00000099658695602878382840000005216513681367375510_);" points="383.9,1274.9 380.3,1447.8    278.7,1403 282.3,1230.1   "></polygon>		<g>			<g>				<defs>					<path id="SVGID_00000099627868597223260310000013742938478231662779_" d="M1363.7,1343.1l-3.6,172.9c-0.2,8.2-1,16.3-2.5,24.3      l3.6-172.9C1362.7,1359.4,1363.5,1351.3,1363.7,1343.1z"></path>				</defs>				<clipPath id="SVGID_00000035492326771575177900000003267843104080867212_">					<use xlink:href="#SVGID_00000099627868597223260310000013742938478231662779_" style="overflow:visible;"></use>				</clipPath>				<g style="clip-path:url(#SVGID_00000035492326771575177900000003267843104080867212_);">					<g>						<path class="st58" d="M1363.7,1343.1l-3.6,172.9c-0.1,3-0.2,6-0.5,9.1l3.6-172.9C1363.5,1349.2,1363.6,1346.2,1363.7,1343.1"></path>						<path class="st59" d="M1363.2,1352.2l-3.6,172.9c-0.4,5.1-1.1,10.2-2.1,15.3l3.6-172.9       C1362.1,1362.4,1362.8,1357.3,1363.2,1352.2"></path>					</g>				</g>			</g>		</g>					<linearGradient id="SVGID_00000046327292605451303530000000668200972348621219_" gradientUnits="userSpaceOnUse" x1="-2302.7786" y1="4814.75" x2="-2373.3887" y2="5081.0898" gradientTransform="matrix(-0.3952 0.9186 0.9186 0.3952 -4660.0566 1581.6138)">			<stop offset="0" style="stop-color:#8F92C7"></stop>			<stop offset="1" style="stop-color:#505FAA"></stop>		</linearGradient>		<path style="fill:url(#SVGID_00000046327292605451303530000000668200972348621219_);" d="M561.2,1536.9c0-1.9,0.1-3.8,0.3-5.8   c0-0.4,0.1-0.9,0.1-1.3c0.2-1.7,0.3-3.4,0.6-5.2c0.1-0.7,0.2-1.3,0.3-2c0.2-1.6,0.5-3.2,0.8-4.8c0.1-0.6,0.2-1.2,0.4-1.9   c0.2-0.9,0.4-1.9,0.7-2.8c0.2-0.9,0.4-1.8,0.7-2.6c0.2-0.9,0.5-1.8,0.8-2.8c0.2-0.8,0.5-1.6,0.7-2.4c0.9-2.7,1.9-5.4,3-8.1   c0.2-0.5,0.4-1.1,0.6-1.6c1-2.5,2.1-4.9,3.3-7.3c0.2-0.4,0.4-0.8,0.6-1.2c0.9-1.8,1.9-3.7,3-5.5c0.4-0.6,0.7-1.2,1.1-1.9   c1.1-1.8,2.2-3.6,3.3-5.4c0.2-0.3,0.4-0.7,0.6-1c1.3-2,2.7-4,4.2-5.9c0.4-0.6,0.8-1.1,1.3-1.7c1.1-1.4,2.1-2.8,3.3-4.1   c0.5-0.7,1.1-1.3,1.7-2c1.1-1.2,2.2-2.5,3.3-3.7c0.8-0.9,1.7-1.9,2.5-2.8c1.8-2,3.8-3.8,5.7-5.7c0.8-0.8,1.6-1.5,2.4-2.3   c1.4-1.3,2.9-2.6,4.4-3.9c0.8-0.7,1.7-1.4,2.5-2.2c1.7-1.4,3.3-2.7,5-4.1c0.7-0.6,1.4-1.1,2.1-1.7c2.5-1.9,5-3.7,7.6-5.5   c0.1-0.1,0.2-0.1,0.3-0.2c2.5-1.7,5-3.4,7.6-5c1.1-0.7,2.2-1.3,3.3-2c1.7-1,3.4-2.1,5.1-3.1c1.3-0.8,2.7-1.5,4-2.2   c1.6-0.9,3.2-1.8,4.8-2.6c1.6-0.8,3.2-1.6,4.9-2.4c1.5-0.7,3-1.5,4.5-2.2c2.3-1.1,4.6-2.1,6.9-3.1c1.1-0.5,2.2-1,3.3-1.4   c3.6-1.5,7.3-2.9,11.1-4.3c0.7-0.2,1.4-0.5,2.1-0.7c3.4-1.2,6.9-2.4,10.5-3.5c1.2-0.4,2.3-0.7,3.5-1.1c4.9-1.5,9.8-2.9,14.9-4.1   c0.9-0.2,1.8-0.4,2.7-0.6c2.8-0.7,5.6-1.3,8.5-1.9c1.4-0.3,2.8-0.5,4.2-0.8c2.4-0.5,4.8-0.9,7.2-1.3c1.1-0.2,2.2-0.3,3.2-0.5   c3.5-0.6,7.1-1.1,10.7-1.6c1.4-0.2,2.7-0.3,4.1-0.5c3.8-0.4,7.7-0.8,11.5-1.2c0.8-0.1,1.5-0.2,2.3-0.2c4.6-0.3,9.2-0.6,13.8-0.8   c1.2,0,2.5-0.1,3.7-0.1c3.5-0.1,7.1-0.1,10.6-0.1c1.6,0,3.2,0,4.8,0c1.6,0,3.3,0.1,4.9,0.1c2.1,0.1,4.2,0.2,6.2,0.2   c1.6,0.1,3.3,0.2,4.9,0.3c1.7,0.1,3.4,0.2,5.1,0.4c3.6,0.3,7.2,0.6,10.8,1c1.1,0.1,2.3,0.2,3.4,0.4c3.9,0.5,7.8,1,11.7,1.6   c0.3,0.1,0.6,0.1,0.9,0.1c4,0.6,7.9,1.3,11.9,2.1c1.6,0.3,3.2,0.7,4.8,1c2.2,0.5,4.4,0.9,6.6,1.4c2.4,0.6,4.7,1.2,7,1.8   c1.3,0.3,2.6,0.6,3.8,1c3.6,1,7.2,2,10.7,3.1c0.2,0.1,0.4,0.1,0.6,0.2c3.3,1,6.5,2.1,9.7,3.2c1.1,0.4,2.1,0.8,3.2,1.2   c2.3,0.8,4.6,1.7,6.9,2.6c1.2,0.5,2.4,1,3.6,1.4c2.7,1.1,5.5,2.2,8.1,3.4c4.5,2,8.9,4.1,13.1,6.2c0.2,0.1,0.4,0.2,0.6,0.3   c3.6,1.8,7.1,3.8,10.5,5.7c0.8,0.5,1.6,0.9,2.4,1.4c3.5,2.1,6.9,4.2,10.2,6.3c0.5,0.3,0.9,0.7,1.4,1c2.8,1.9,5.6,3.8,8.3,5.8   c0.9,0.6,1.7,1.3,2.6,1.9c3,2.2,5.8,4.5,8.6,6.9c0.1,0.1,0.2,0.2,0.3,0.3c2.9,2.5,5.6,5,8.3,7.5c1,0.9,1.9,1.9,2.8,2.8   c1.7,1.7,3.4,3.4,5,5.2c1.2,1.2,2.2,2.5,3.3,3.8c1.3,1.5,2.6,3,3.8,4.6c1.4,1.8,2.8,3.6,4.1,5.4c1.1,1.6,2.3,3.1,3.4,4.7   c0.5,0.8,1,1.6,1.6,2.4c1.5,2.3,3,4.7,4.3,7.1c0.3,0.5,0.6,1,0.8,1.4c1.6,2.8,3,5.7,4.3,8.6c0.3,0.8,0.7,1.5,1,2.3   c1,2.2,1.9,4.5,2.7,6.7c0.3,0.9,0.7,1.8,0.9,2.6c0.9,2.6,1.7,5.3,2.4,7.9c0.1,0.3,0.2,0.7,0.3,1c0.8,3,1.4,6,1.9,9   c0.1,0.8,0.2,1.7,0.4,2.5c0.3,2.3,0.6,4.6,0.8,6.9c0.1,0.9,0.2,1.8,0.2,2.7c0.2,3,0.3,6.1,0.2,9.1l3.6-172.9c0.1-3,0-6.1-0.2-9.1   c-0.1-0.9-0.1-1.8-0.2-2.7c-0.2-2.3-0.5-4.6-0.8-6.8c-0.1-0.8-0.2-1.7-0.4-2.5c-0.5-3-1.1-6-1.9-9c-0.1-0.3-0.2-0.7-0.3-1   c-0.7-2.7-1.5-5.3-2.4-7.9c-0.3-0.9-0.6-1.8-1-2.7c-0.8-2.2-1.7-4.5-2.7-6.7c-0.3-0.8-0.6-1.5-1-2.3c-1.2-2.7-2.6-5.4-4-8.1   c-0.1-0.2-0.2-0.3-0.3-0.5c-0.3-0.5-0.6-1-0.8-1.4c-1.3-2.4-2.8-4.7-4.3-7.1c-0.5-0.8-1-1.6-1.6-2.4c-0.5-0.7-0.9-1.4-1.3-2   c-0.6-0.9-1.4-1.8-2-2.7c-1.3-1.8-2.7-3.6-4.1-5.4c-0.5-0.6-0.9-1.2-1.4-1.8c-0.8-0.9-1.6-1.8-2.4-2.8c-1.1-1.3-2.2-2.5-3.3-3.8   c-0.5-0.6-1-1.1-1.5-1.7c-1.1-1.2-2.3-2.3-3.5-3.5c-0.9-0.9-1.8-1.9-2.8-2.8c-0.3-0.3-0.6-0.7-1-1c-2.3-2.2-4.7-4.4-7.2-6.5   c0,0,0,0-0.1-0.1c-0.1-0.1-0.2-0.2-0.3-0.3c-2.2-1.8-4.4-3.7-6.7-5.5c-0.6-0.5-1.3-0.9-1.9-1.4c-0.8-0.6-1.7-1.3-2.6-1.9   c-1-0.7-1.9-1.5-2.9-2.2c-1.7-1.2-3.5-2.4-5.4-3.7c-0.5-0.3-0.9-0.7-1.4-1c-0.2-0.1-0.4-0.3-0.6-0.4c-2.5-1.6-5-3.2-7.6-4.8   c-0.7-0.4-1.4-0.8-2-1.2c-0.8-0.5-1.6-0.9-2.4-1.4c-1.1-0.6-2.2-1.3-3.3-1.9c-2.4-1.3-4.8-2.6-7.3-3.8c-0.2-0.1-0.4-0.2-0.6-0.3   c-0.1,0-0.1-0.1-0.2-0.1c-2.7-1.4-5.5-2.7-8.4-4c-1.5-0.7-3-1.4-4.5-2.1c-1.4-0.6-2.8-1.2-4.2-1.8c-1.3-0.6-2.6-1.1-3.9-1.6   c-1.2-0.5-2.4-1-3.6-1.4c-0.5-0.2-1-0.4-1.5-0.6c-1.8-0.7-3.6-1.3-5.4-2c-1.1-0.4-2.2-0.8-3.2-1.2c-0.2-0.1-0.5-0.2-0.7-0.2   c-3-1-6-2-9-2.9c-0.2-0.1-0.4-0.1-0.6-0.2c0,0,0,0,0,0c-3.4-1.1-6.8-2.1-10.3-3c-0.1,0-0.2-0.1-0.3-0.1c-1.3-0.3-2.6-0.7-3.9-1   c-2.1-0.5-4.2-1.1-6.4-1.6c-0.2-0.1-0.4-0.1-0.6-0.1c-2.2-0.5-4.4-1-6.6-1.4c-1.5-0.3-2.9-0.7-4.4-0.9c-0.1,0-0.3-0.1-0.4-0.1   c-4-0.8-7.9-1.5-11.9-2.1c0,0,0,0-0.1,0c-0.3,0-0.5-0.1-0.8-0.1c-3.9-0.6-7.8-1.1-11.7-1.6c-0.3,0-0.6-0.1-1-0.1   c-0.8-0.1-1.6-0.1-2.4-0.2c-3.6-0.4-7.2-0.8-10.8-1c-0.7-0.1-1.5-0.2-2.2-0.2c-1-0.1-1.9-0.1-2.9-0.2c-1.6-0.1-3.3-0.2-4.9-0.3   c-2.1-0.1-4.2-0.2-6.2-0.2c-1.6-0.1-3.3-0.1-4.9-0.1c-0.8,0-1.6-0.1-2.4-0.1c-0.8,0-1.6,0-2.4,0c-3.6,0-7.1,0-10.7,0.1   c-1.2,0-2.5,0.1-3.7,0.1c-4.6,0.2-9.2,0.4-13.8,0.8c-0.8,0.1-1.5,0.1-2.3,0.2c-3.9,0.3-7.7,0.7-11.6,1.2c-1.4,0.2-2.7,0.3-4.1,0.5   c-3.6,0.5-7.2,1-10.7,1.6c-0.8,0.1-1.5,0.2-2.3,0.3c-0.3,0.1-0.6,0.1-0.9,0.2c-2.4,0.4-4.8,0.9-7.2,1.3c-1.4,0.3-2.8,0.5-4.2,0.8   c-2.8,0.6-5.7,1.2-8.5,1.9c-0.8,0.2-1.7,0.4-2.5,0.6c0,0-0.1,0-0.1,0c-5,1.2-10,2.6-14.9,4.1c-0.6,0.2-1.2,0.3-1.8,0.5   c-0.6,0.2-1.2,0.4-1.7,0.6c-3.5,1.1-7,2.3-10.4,3.5c-0.5,0.2-1.1,0.4-1.7,0.6c-0.2,0.1-0.3,0.1-0.4,0.2c-3.8,1.4-7.4,2.8-11.1,4.3   c-0.2,0.1-0.3,0.1-0.5,0.2c-1,0.4-1.9,0.8-2.8,1.2c-2.3,1-4.6,2-6.9,3c-0.3,0.2-0.7,0.3-1,0.4c-1.2,0.6-2.3,1.2-3.5,1.7   c-1.6,0.8-3.3,1.6-4.9,2.4c-0.4,0.2-0.8,0.4-1.1,0.6c-1.3,0.7-2.5,1.4-3.7,2c-1.3,0.7-2.7,1.4-4,2.2c-0.3,0.2-0.6,0.3-0.9,0.5   c-1.4,0.8-2.8,1.7-4.2,2.6c-1.1,0.7-2.2,1.3-3.3,2c-0.2,0.1-0.4,0.2-0.6,0.4c-2.4,1.5-4.7,3.1-7,4.6c-0.1,0.1-0.2,0.1-0.3,0.2   c0,0,0,0,0,0c-2.4,1.7-4.7,3.3-7,5.1c-0.2,0.1-0.4,0.3-0.5,0.4c-0.7,0.5-1.4,1.1-2.1,1.7c-1.3,1-2.6,2-3.9,3.1   c-0.4,0.3-0.8,0.7-1.2,1c-0.8,0.7-1.7,1.4-2.5,2.2c-0.8,0.7-1.7,1.4-2.5,2.2c-0.6,0.6-1.2,1.2-1.9,1.8c-0.8,0.8-1.6,1.5-2.4,2.3   c-0.5,0.5-1.1,1-1.6,1.5c-1.4,1.4-2.8,2.8-4.2,4.2c-0.5,0.5-1,1-1.4,1.5c-0.4,0.4-0.7,0.8-1.1,1.2c-1.1,1.2-2.2,2.5-3.3,3.7   c-0.3,0.4-0.6,0.7-0.9,1.1c-0.3,0.3-0.5,0.6-0.7,0.9c-1.1,1.4-2.2,2.7-3.2,4.1c-0.3,0.4-0.7,0.8-1,1.2c-0.1,0.2-0.2,0.3-0.3,0.4   c-1.5,2-2.9,3.9-4.2,5.9c0,0.1-0.1,0.1-0.1,0.2c-0.2,0.3-0.3,0.5-0.5,0.8c-1.2,1.8-2.3,3.6-3.3,5.4c-0.2,0.3-0.4,0.6-0.5,0.9   c-0.2,0.3-0.3,0.7-0.5,1c-1,1.8-2,3.7-3,5.5c-0.2,0.3-0.3,0.6-0.5,0.9c0,0.1-0.1,0.2-0.1,0.3c-1.2,2.4-2.3,4.9-3.3,7.3   c-0.1,0.3-0.2,0.5-0.3,0.8c-0.1,0.3-0.2,0.5-0.3,0.8c-1.1,2.7-2.1,5.4-3,8.1c0,0.1-0.1,0.2-0.1,0.4c-0.2,0.7-0.4,1.4-0.6,2   c-0.3,0.9-0.6,1.9-0.8,2.8c-0.2,0.9-0.4,1.7-0.6,2.6c-0.2,0.9-0.5,1.9-0.7,2.8c0,0.2-0.1,0.4-0.2,0.6c-0.1,0.4-0.1,0.8-0.2,1.2   c-0.3,1.6-0.6,3.2-0.8,4.8c-0.1,0.7-0.2,1.3-0.3,2c-0.2,1.7-0.4,3.4-0.6,5.2c0,0.3-0.1,0.7-0.1,1c0,0.1,0,0.2,0,0.3   c-0.1,1.9-0.2,3.8-0.3,5.8L561.2,1536.9L561.2,1536.9z"></path>		<g>			<g>				<defs>					<path id="SVGID_00000099633157917215589790000011380110345106755502_" d="M1361.2,1367.5l-3.6,172.9      c-39.4,5.6-79,11.3-118.5,17l3.6-172.9C1282.2,1378.8,1321.8,1373.1,1361.2,1367.5z"></path>				</defs>				<clipPath id="SVGID_00000081610456955642222780000004810952964801500060_">					<use xlink:href="#SVGID_00000099633157917215589790000011380110345106755502_" style="overflow:visible;"></use>				</clipPath>				<g style="clip-path:url(#SVGID_00000081610456955642222780000004810952964801500060_);">											<linearGradient id="SVGID_00000052790118954116284470000007375566375392771753_" gradientUnits="userSpaceOnUse" x1="-2576.4438" y1="5427.7935" x2="-2353.7134" y2="5427.7935" gradientTransform="matrix(-0.3952 0.9186 0.9186 0.3952 -4660.0566 1581.6138)">						<stop offset="0" style="stop-color:#8F92C7"></stop>						<stop offset="1" style="stop-color:#CFD5EB"></stop>					</linearGradient>					<path style="fill:url(#SVGID_00000052790118954116284470000007375566375392771753_);" d="M1361.2,1367.5l-3.6,172.9      c-39.4,5.6-79,11.3-118.5,17l3.6-172.9C1282.2,1378.8,1321.8,1373.1,1361.2,1367.5"></path>				</g>			</g>		</g>					<linearGradient id="SVGID_00000094613149645338435740000015710065686713933240_" gradientUnits="userSpaceOnUse" x1="-2513.9634" y1="5383.1914" x2="-2273.2104" y2="5383.1914" gradientTransform="matrix(-0.3952 0.9186 0.9186 0.3952 -4660.0566 1581.6138)">			<stop offset="0" style="stop-color:#8F92C7"></stop>			<stop offset="1" style="stop-color:#505FAA"></stop>		</linearGradient>		<path style="fill:url(#SVGID_00000094613149645338435740000015710065686713933240_);" d="M1240.7,1404.1   c-0.6,3.9-1.3,7.8-2.1,11.7c-0.3,1.6-0.7,3.1-1.1,4.7c-0.4,1.7-0.8,3.4-1.2,5.1c-0.4,1.6-0.9,3.2-1.3,4.8c-0.5,1.7-1,3.4-1.5,5.1   c-0.6,2-1.3,4.1-2,6.1c-0.3,1-0.7,2-1,3c-1.1,3.1-2.3,6.1-3.5,9.2c-0.3,0.8-0.7,1.6-1.1,2.5c-1,2.4-2.1,4.8-3.2,7.3l-3.6,172.9   c1.5-3.2,2.9-6.5,4.3-9.7l0,0c1.3-3.1,2.4-6.1,3.5-9.2c0.4-1,0.7-2,1-3c0.6-1.6,1.1-3.2,1.7-4.8c0.1-0.4,0.2-0.9,0.4-1.3   c0.5-1.7,1-3.4,1.5-5.1c0.5-1.6,0.9-3.2,1.3-4.8c0.4-1.7,0.8-3.4,1.2-5.1c0.3-1.2,0.6-2.4,0.9-3.7c0.1-0.3,0.1-0.7,0.2-1   c0.8-3.9,1.5-7.8,2.1-11.7c0.1-0.5,0.1-1.1,0.2-1.6c0.5-3.4,0.9-6.8,1.2-10.2c0-0.5,0.1-1,0.2-1.4c0.2-2.1,0.3-4.3,0.4-6.4   l3.6-172.9c-0.1,2.6-0.3,5.2-0.6,7.8c-0.3,3.4-0.7,6.8-1.2,10.2C1240.8,1403.1,1240.8,1403.6,1240.7,1404.1L1240.7,1404.1z"></path>		<g>			<g>				<defs>					<path id="SVGID_00000117678038702782835580000018018287181714101431_" d="M413.8,1503l-3.6,172.9      c-39.9,5.7-79.9,11.4-119.8,17.1l3.6-172.9C333.9,1514.5,373.9,1508.7,413.8,1503z"></path>				</defs>				<clipPath id="SVGID_00000083063885455860983300000011088771474885897103_">					<use xlink:href="#SVGID_00000117678038702782835580000018018287181714101431_" style="overflow:visible;"></use>				</clipPath>				<g style="clip-path:url(#SVGID_00000083063885455860983300000011088771474885897103_);">											<linearGradient id="SVGID_00000030462641748335905830000012629410175943141785_" gradientUnits="userSpaceOnUse" x1="-2077.4963" y1="4610.5615" x2="-1854.1235" y2="4610.5615" gradientTransform="matrix(-0.3952 0.9186 0.9186 0.3952 -4660.0566 1581.6138)">						<stop offset="0" style="stop-color:#8F92C7"></stop>						<stop offset="1" style="stop-color:#CFD5EB"></stop>					</linearGradient>					<path style="fill:url(#SVGID_00000030462641748335905830000012629410175943141785_);" d="M413.8,1503l-3.6,172.9      c-39.9,5.7-79.9,11.4-119.8,17.1l3.6-172.9C333.9,1514.5,373.9,1508.7,413.8,1503"></path>				</g>			</g>		</g>					<linearGradient id="SVGID_00000176760034735193887120000005123062583758232724_" gradientUnits="userSpaceOnUse" x1="-2109.0007" y1="4510.7822" x2="-1854.1235" y2="4510.7822" gradientTransform="matrix(-0.3952 0.9186 0.9186 0.3952 -4660.0566 1581.6138)">			<stop offset="0" style="stop-color:#8F92C7"></stop>			<stop offset="1" style="stop-color:#505FAA"></stop>		</linearGradient>		<path style="fill:url(#SVGID_00000176760034735193887120000005123062583758232724_);" d="M282.1,1683.7c0.3,0.3,0.6,0.6,0.8,1   c2.4,2.9,4.9,5.7,7.4,8.5l3.6-172.9c-2.6-2.8-5-5.6-7.4-8.5c-0.6-0.7-1.1-1.4-1.7-2.1c-3.1-3.8-6.1-7.7-8.9-11.6   c-0.5-0.8-1-1.6-1.6-2.3c-1.3-1.9-2.6-3.9-3.9-5.8c-0.6-1-1.3-2.1-1.9-3.1c-1.1-1.8-2.2-3.6-3.2-5.4c-0.6-1-1.1-2.1-1.7-3.1   c-1.3-2.4-2.5-4.8-3.6-7.2c-0.4-0.7-0.7-1.4-1.1-2.2c-1.4-3.1-2.8-6.2-4-9.3c-0.3-0.7-0.6-1.5-0.8-2.2c-0.9-2.4-1.8-4.9-2.6-7.3   c-0.3-1-0.7-2-1-3.1c-0.7-2.3-1.4-4.7-2.1-7.1c-0.2-0.9-0.5-1.8-0.7-2.7c-0.8-3.2-1.5-6.4-2.1-9.6c-0.1-0.5-0.2-1-0.3-1.6   c-0.5-2.7-0.9-5.4-1.2-8.2c-0.1-1-0.2-2-0.3-3.1c-0.2-2.3-0.4-4.7-0.6-7c-0.1-1-0.1-1.9-0.2-2.9c-0.1-3.2-0.2-6.4-0.1-9.7l0,0l0,0   l-3.6,172.9c-0.1,3.2,0,6.4,0.1,9.7c0,1,0.1,1.9,0.2,2.9c0.1,2.3,0.3,4.7,0.6,7c0.1,1,0.2,2,0.3,3.1c0.4,2.7,0.8,5.5,1.2,8.2   c0.1,0.5,0.1,1,0.2,1.5c0.6,3.2,1.3,6.4,2.1,9.6c0.2,0.9,0.5,1.8,0.7,2.7c0.6,2.4,1.3,4.7,2.1,7.1c0.3,1,0.6,2.1,1,3.1   c0.8,2.5,1.7,4.9,2.7,7.4c0.3,0.7,0.5,1.5,0.8,2.2c1.2,3.1,2.6,6.2,4,9.3c0.3,0.7,0.7,1.4,1.1,2.2c1.2,2.4,2.4,4.8,3.6,7.1   c0.2,0.5,0.5,0.9,0.7,1.4c0.3,0.6,0.7,1.1,1,1.7c1,1.8,2.1,3.7,3.2,5.4c0.6,1,1.2,2.1,1.9,3.1c1.2,2,2.5,3.9,3.9,5.8   c0.4,0.7,0.8,1.3,1.3,2c0.1,0.1,0.2,0.2,0.3,0.4c2.8,3.9,5.7,7.8,8.8,11.6C281.5,1682.9,281.8,1683.3,282.1,1683.7L282.1,1683.7z"></path>					<linearGradient id="SVGID_00000110455522466295280410000002424100103497195690_" gradientUnits="userSpaceOnUse" x1="-1953.7393" y1="4621.4443" x2="-1983.3793" y2="4714.1445" gradientTransform="matrix(-0.3952 0.9186 0.9186 0.3952 -4660.0566 1581.6138)">			<stop offset="0" style="stop-color:#8F92C7"></stop>			<stop offset="1" style="stop-color:#505FAA"></stop>		</linearGradient>		<path style="fill:url(#SVGID_00000110455522466295280410000002424100103497195690_);" d="M470.3,1735.8c2.3,1.8,4.6,3.5,6.9,5.2   l3.6-172.9c-2.7-2-5.4-4.1-8-6.2c-4-3.2-8-6.4-11.8-9.6c-0.5-0.5-1-0.9-1.6-1.4c-3.6-3.1-7.1-6.2-10.5-9.4   c-0.9-0.8-1.8-1.7-2.7-2.5c-4-3.8-7.9-7.7-11.6-11.6c-1.5-1.6-3-3.2-4.4-4.8c-0.9-1-1.8-1.9-2.7-2.9c-1.9-2.1-3.7-4.2-5.4-6.3   c-0.5-0.6-1.1-1.2-1.6-1.8c-2.3-2.8-4.6-5.7-6.8-8.5l-3.6,172.9c2.1,2.8,4.4,5.6,6.6,8.3c0,0.1,0.1,0.1,0.2,0.2   c0.5,0.6,1,1.2,1.5,1.8c1.8,2.1,3.6,4.3,5.5,6.4c0.9,1,1.8,1.9,2.6,2.9c1.2,1.4,2.5,2.8,3.8,4.1c0.2,0.2,0.5,0.4,0.7,0.7   c3.7,3.9,7.6,7.8,11.6,11.6c0.4,0.3,0.7,0.7,1.1,1.1c0.5,0.5,1.1,1,1.6,1.5c3.4,3.2,6.9,6.3,10.4,9.4c0.4,0.3,0.8,0.7,1.2,1.1   c0.1,0.1,0.3,0.2,0.4,0.3c3.8,3.3,7.8,6.5,11.8,9.6C469.6,1735.2,470,1735.5,470.3,1735.8L470.3,1735.8z"></path>					<linearGradient id="SVGID_00000122719743001284216640000012183826214164821131_" gradientUnits="userSpaceOnUse" x1="-2268.1487" y1="5384.2549" x2="-2106.877" y2="5384.2549" gradientTransform="matrix(-0.3952 0.9186 0.9186 0.3952 -4660.0566 1581.6138)">			<stop offset="0" style="stop-color:#8F92C7"></stop>			<stop offset="1" style="stop-color:#505FAA"></stop>		</linearGradient>		<polygon style="fill:url(#SVGID_00000122719743001284216640000012183826214164821131_);" points="1202.9,1636.1 1199.3,1809    1097.9,1764.3 1101.5,1591.4   "></polygon>					<linearGradient id="SVGID_00000057130667848619852380000015085813005740082086_" gradientUnits="userSpaceOnUse" x1="-2432.4834" y1="5470.2725" x2="-2106.886" y2="5470.2725" gradientTransform="matrix(-0.3952 0.9186 0.9186 0.3952 -4660.0566 1581.6138)">			<stop offset="0" style="stop-color:#8F92C7"></stop>			<stop offset="1" style="stop-color:#CFD5EB"></stop>		</linearGradient>		<path style="fill:url(#SVGID_00000057130667848619852380000015085813005740082086_);" d="M1264.2,1594.3c-1.5,1.3-3,2.6-4.5,3.9   c-1.5,1.3-2.9,2.5-4.4,3.8c-1.5,1.3-3.1,2.5-4.7,3.7c-1.6,1.2-3.1,2.4-4.7,3.6c-1.6,1.2-3.3,2.4-4.9,3.6c-1.6,1.2-3.2,2.3-4.9,3.5   c-1.7,1.2-3.5,2.3-5.2,3.5c-1.7,1.1-3.3,2.2-5,3.3c-1.8,1.2-3.8,2.3-5.6,3.4c-1.7,1-3.4,2-5.1,3c-2,1.2-4.1,2.3-6.2,3.4   c-2,1.1-3.9,2.2-5.9,3.2l-3.6,172.9c0.6-0.3,1.2-0.6,1.7-0.9c1.4-0.7,2.8-1.5,4.2-2.3c2.1-1.1,4.2-2.2,6.2-3.4   c0.3-0.2,0.7-0.4,1-0.6c1.4-0.8,2.7-1.7,4.1-2.5c1.9-1.1,3.8-2.2,5.6-3.4c0.4-0.2,0.7-0.4,1.1-0.7c1.3-0.8,2.6-1.8,3.9-2.6   c1.8-1.2,3.5-2.3,5.2-3.5c0.4-0.2,0.8-0.5,1.1-0.7c1.3-0.9,2.5-1.8,3.8-2.7c1.7-1.2,3.3-2.4,4.9-3.6c0.4-0.3,0.7-0.5,1.1-0.8   c1.2-0.9,2.4-1.9,3.6-2.8c1.6-1.2,3.2-2.5,4.7-3.7c0.3-0.3,0.7-0.6,1.1-0.8c1.2-1,2.2-1.9,3.4-2.9c1.5-1.3,3-2.6,4.5-3.9   c0.3-0.3,0.7-0.6,1-0.9c1.1-1,2.1-2,3.1-3c1.5-1.4,2.9-2.7,4.3-4.1c0.3-0.3,0.7-0.6,1-1c2.1-2,4.1-4.1,6-6.1   c0.7-0.7,1.4-1.5,2-2.2c0.9-0.9,1.7-1.9,2.5-2.9c1.3-1.5,2.7-3,4-4.6c0.3-0.4,0.7-0.8,1.1-1.2c0.8-0.9,1.5-1.9,2.2-2.8   c1.3-1.6,2.6-3.2,3.8-4.8c0.4-0.5,0.8-1,1.1-1.4c0.6-0.8,1.2-1.7,1.8-2.6c1.2-1.7,2.4-3.4,3.6-5.1c0.4-0.6,0.8-1.2,1.2-1.7   c0.5-0.8,0.9-1.5,1.4-2.3c1.2-1.8,2.3-3.6,3.4-5.4c0.4-0.7,0.9-1.4,1.3-2.1c0.4-0.6,0.7-1.3,1-1.9c1.1-2,2.2-3.9,3.2-5.9   c0.4-0.8,0.9-1.7,1.4-2.5c0.2-0.4,0.4-0.9,0.6-1.3c1.2-2.4,2.3-4.8,3.3-7.3c0.3-0.8,0.8-1.6,1.1-2.4c0.1-0.2,0.1-0.4,0.2-0.6   c1.4-3.3,2.6-6.7,3.7-10l3.6-172.9c-1.1,3.3-2.4,6.7-3.7,10c-0.4,1-0.9,2-1.3,3c-1.1,2.4-2.2,4.9-3.3,7.3c-0.6,1.3-1.3,2.6-2,3.9   c-1,2-2.1,4-3.2,5.9c-0.8,1.3-1.6,2.7-2.4,4c-1.1,1.8-2.2,3.6-3.4,5.4c-0.9,1.4-1.8,2.7-2.7,4.1c-1.2,1.7-2.4,3.4-3.6,5.1   c-1,1.3-2,2.7-3,4c-1.2,1.6-2.5,3.2-3.8,4.8c-1.1,1.3-2.2,2.7-3.3,4c-1.3,1.5-2.6,3-4,4.5c-1.5,1.7-3,3.4-4.6,5.1   c-2.3,2.4-4.6,4.8-7,7.1c-1.4,1.4-2.9,2.7-4.3,4.1C1267,1591.7,1265.6,1593,1264.2,1594.3L1264.2,1594.3z"></path>		<path class="st70" d="M1072.9,1607.4c-4.2,2.2-8.5,4.3-12.9,6.4c-1.1,0.5-2.2,1.1-3.3,1.6c-5.6,2.6-11.2,5.1-17,7.5   c-1.2,0.5-2.3,1-3.5,1.4c-6.5,2.7-13,5.2-19.6,7.6c-4,1.5-8.1,2.9-12.2,4.3l-3.6,172.9c4-1.3,7.9-2.7,11.8-4.1   c0.1-0.1,0.3-0.1,0.4-0.2c6.6-2.4,13.2-5,19.6-7.6c0.7-0.3,1.4-0.5,2-0.8c0.5-0.2,1-0.4,1.5-0.7c5.7-2.4,11.4-4.9,17-7.5   c0.3-0.2,0.7-0.3,1-0.5c0.8-0.4,1.5-0.8,2.3-1.1c4.3-2.1,8.7-4.2,12.9-6.4c0.8-0.4,1.6-0.8,2.3-1.2c0.5-0.2,0.9-0.5,1.4-0.8   c4.8-2.5,9.5-5.1,14.2-7.8c0.1-0.1,0.2-0.1,0.4-0.2c3.5-2,6.9-4.1,10.3-6.1l3.6-172.9c-3.5,2.2-7.1,4.3-10.7,6.3   c-4.7,2.7-9.4,5.3-14.2,7.8C1075.4,1606.1,1074.1,1606.7,1072.9,1607.4L1072.9,1607.4z"></path>					<linearGradient id="SVGID_00000097494553592494942270000013629158593741092287_" gradientUnits="userSpaceOnUse" x1="-1996.7411" y1="5056.6646" x2="-1961.9911" y2="4973.6543" gradientTransform="matrix(-0.3952 0.9186 0.9186 0.3952 -4660.0566 1581.6138)">			<stop offset="0" style="stop-color:#8F92C7"></stop>			<stop offset="1" style="stop-color:#CFD5EB"></stop>		</linearGradient>		<path style="fill:url(#SVGID_00000097494553592494942270000013629158593741092287_);" d="M752.2,1664.4c-2.4-0.2-4.8-0.4-7.2-0.7   c-2.4-0.2-4.8-0.5-7.1-0.8c-1.9-0.2-3.7-0.4-5.6-0.7c-7.2-0.9-14.5-1.9-21.6-3c-1.1-0.2-2.3-0.4-3.4-0.6c-6-1-12-2-17.9-3.2   c-1.2-0.2-2.3-0.4-3.5-0.7c-5.2-1.1-10.5-2.1-15.7-3.3l-3.6,172.9c5.2,1.2,10.4,2.3,15.7,3.3c0.4,0.1,0.8,0.2,1.2,0.3   c0.8,0.2,1.5,0.3,2.3,0.4c6,1.2,12,2.2,18,3.2c0.8,0.1,1.6,0.3,2.3,0.4c0.3,0.1,0.7,0.1,1.1,0.2c7.2,1.1,14.4,2.1,21.7,3   c0.7,0.1,1.4,0.2,2.1,0.3c1.2,0.1,2.3,0.2,3.5,0.4c2.4,0.3,4.8,0.5,7.1,0.8c2.4,0.2,4.8,0.5,7.2,0.7c2.4,0.2,4.8,0.4,7.1,0.6   c1.2,0.1,2.4,0.2,3.7,0.3c0.8,0.1,1.6,0.1,2.4,0.1c6.4,0.4,12.8,0.8,19.1,1.1l3.6-172.9c-6.4-0.2-12.8-0.6-19.1-1.1   c-2-0.1-4-0.3-6.1-0.4C757,1664.8,754.6,1664.6,752.2,1664.4L752.2,1664.4z"></path>					<linearGradient id="SVGID_00000132089165050157301830000007978193335578065057_" gradientUnits="userSpaceOnUse" x1="-2042.401" y1="4939.7461" x2="-1791.275" y2="4939.7461" gradientTransform="matrix(-0.3952 0.9186 0.9186 0.3952 -4660.0566 1581.6138)">			<stop offset="0" style="stop-color:#8F92C7"></stop>			<stop offset="1" style="stop-color:#505FAA"></stop>		</linearGradient>		<polygon style="fill:url(#SVGID_00000132089165050157301830000007978193335578065057_);" points="670.2,1651.5 666.6,1824.5    600,1894.8 603.6,1721.8   "></polygon>					<linearGradient id="SVGID_00000111874638006312084970000000602899730026988186_" gradientUnits="userSpaceOnUse" x1="-1953.4186" y1="4819.6572" x2="-1778.0034" y2="4819.6572" gradientTransform="matrix(-0.3952 0.9186 0.9186 0.3952 -4660.0566 1581.6138)">			<stop offset="0" style="stop-color:#8F92C7"></stop>			<stop offset="1" style="stop-color:#505FAA"></stop>		</linearGradient>		<path style="fill:url(#SVGID_00000111874638006312084970000000602899730026988186_);" d="M498,1865.2c1,0.4,1.9,0.9,2.9,1.3   c1,0.4,2.1,0.8,3.2,1.3c2.1,0.9,4.2,1.7,6.4,2.6c1,0.4,2,0.8,3,1.2c1,0.4,2.1,0.8,3.1,1.1c2.2,0.8,4.5,1.7,6.8,2.5   c1.1,0.4,2.1,0.8,3.2,1.2c1,0.3,2,0.6,3,1c2.4,0.8,4.8,1.6,7.2,2.3c1.2,0.4,2.3,0.8,3.5,1.2c0.9,0.3,1.8,0.5,2.7,0.8   c2.5,0.8,5,1.5,7.6,2.2c1.3,0.4,2.5,0.8,3.8,1.1c0.8,0.2,1.5,0.4,2.3,0.6c2.7,0.7,5.4,1.4,8.2,2.1c1.4,0.3,2.8,0.7,4.2,1.1   c0.6,0.1,1.2,0.2,1.7,0.4c3.1,0.7,6.2,1.4,9.3,2c1.4,0.3,2.8,0.6,4.2,0.9c0.3,0.1,0.7,0.1,1,0.2c4.7,0.9,9.4,1.8,14.1,2.5   c0.2,0,0.5,0.1,0.7,0.1c0,0,0.1,0,0.1,0l3.6-172.9c-0.3,0-0.5-0.1-0.8-0.2c-4.7-0.8-9.4-1.6-14.1-2.5c-1.7-0.3-3.5-0.7-5.2-1.1   c-3.1-0.6-6.2-1.3-9.3-2c-2-0.5-4-0.9-5.9-1.4c-2.7-0.7-5.5-1.3-8.2-2.1c-2.1-0.6-4.1-1.1-6.1-1.7c-2.5-0.7-5-1.4-7.6-2.2   c-2.1-0.6-4.1-1.3-6.2-1.9c-2.4-0.8-4.8-1.5-7.2-2.3c-2.1-0.7-4.1-1.4-6.2-2.1c-2.3-0.8-4.5-1.6-6.8-2.5c-2.1-0.8-4.1-1.6-6.2-2.4   c-2.1-0.8-4.3-1.7-6.4-2.6c-2-0.8-4.1-1.7-6.1-2.6c-2.1-0.9-4.1-1.8-6.1-2.7c-2-0.9-4-1.8-6-2.8c-2-0.9-3.9-1.9-5.8-2.8   c-2-1-3.9-1.9-5.9-2.9c-1.9-1-3.7-1.9-5.6-2.9c-1.9-1-3.8-2.1-5.7-3.1c-1.8-1-3.6-2.1-5.4-3.1c-1.8-1.1-3.7-2.2-5.5-3.3   c-1.8-1.1-3.5-2.2-5.2-3.2c-1.8-1.1-3.5-2.3-5.2-3.4c-1.7-1.1-3.4-2.3-5-3.4c-1.7-1.2-3.3-2.3-5-3.5c-1.6-1.2-3.3-2.4-4.9-3.6   c-1.6-1.2-3.1-2.4-4.6-3.6c-1.6-1.3-3.2-2.6-4.8-3.9c-2.2-1.8-4.4-3.7-6.5-5.6l-3.6,172.9c1.4,1.2,2.8,2.4,4.2,3.7   c0.8,0.6,1.6,1.2,2.3,1.9c1.6,1.3,3.2,2.6,4.8,3.9c0.8,0.6,1.5,1.2,2.2,1.8s1.6,1.2,2.4,1.8c1.6,1.2,3.2,2.4,4.9,3.6   c0.8,0.6,1.6,1.2,2.5,1.8c0.8,0.6,1.7,1.1,2.5,1.7c1.7,1.2,3.3,2.3,5,3.4c0.9,0.6,1.7,1.2,2.6,1.8c0.9,0.6,1.8,1.1,2.6,1.6   c1.7,1.1,3.5,2.2,5.2,3.2c0.9,0.6,1.8,1.1,2.7,1.7c0.9,0.6,1.9,1.1,2.8,1.6c1.8,1,3.6,2.1,5.4,3.1c0.9,0.5,1.8,1.1,2.7,1.6   c1,0.5,2,1,3,1.6c1.9,1,3.7,2,5.6,2.9c0.9,0.5,1.8,1,2.7,1.4c1,0.5,2.1,1,3.1,1.5c1.9,1,3.9,1.9,5.9,2.8c0.9,0.4,1.8,0.9,2.8,1.3   c1,0.5,2.1,0.9,3.2,1.4C493.8,1863.4,495.9,1864.3,498,1865.2L498,1865.2z"></path>		<g>			<g>				<defs>					<path id="SVGID_00000160148222703582726790000018158907495484732052_" d="M810.9,1748.2l-3.6,172.9      c-8.8-27.2-17.6-54.4-26.4-81.7l3.6-172.9C793.4,1693.8,802.1,1721,810.9,1748.2z"></path>				</defs>				<clipPath id="SVGID_00000154390669636408844240000008557544429368170369_">					<use xlink:href="#SVGID_00000160148222703582726790000018158907495484732052_" style="overflow:visible;"></use>				</clipPath>				<g style="clip-path:url(#SVGID_00000154390669636408844240000008557544429368170369_);">											<linearGradient id="SVGID_00000108309719436190473760000014948432048089187483_" gradientUnits="userSpaceOnUse" x1="-2073.8545" y1="5095.668" x2="-1849.0044" y2="5095.668" gradientTransform="matrix(-0.3952 0.9186 0.9186 0.3952 -4660.0566 1581.6138)">						<stop offset="0" style="stop-color:#8F92C7"></stop>						<stop offset="1" style="stop-color:#505FAA"></stop>					</linearGradient>					<path style="fill:url(#SVGID_00000108309719436190473760000014948432048089187483_);" d="M810.9,1748.2l-3.6,172.9      c-8.8-27.2-17.6-54.4-26.4-81.7l3.6-172.9C793.4,1693.8,802.1,1721,810.9,1748.2"></path>				</g>			</g>		</g>					<linearGradient id="SVGID_00000140727038122486575980000017203549876516014488_" gradientUnits="userSpaceOnUse" x1="-2124.7214" y1="5218.5645" x2="-1848.9912" y2="5218.5645" gradientTransform="matrix(-0.3952 0.9186 0.9186 0.3952 -4660.0566 1581.6138)">			<stop offset="0" style="stop-color:#8F92C7"></stop>			<stop offset="1" style="stop-color:#CFD5EB"></stop>		</linearGradient>		<path style="fill:url(#SVGID_00000140727038122486575980000017203549876516014488_);" d="M1010.9,1724.4c-4.9,1.7-9.8,3.4-14.9,5   c-0.8,0.3-1.7,0.6-2.5,0.8c-1.3,0.4-2.7,0.8-4,1.2c-2.8,0.8-5.6,1.6-8.4,2.4c-1.6,0.4-3.3,0.9-4.9,1.3c-2.4,0.6-4.9,1.2-7.3,1.8   c-3.5,0.8-7.1,1.7-10.7,2.4c-1.5,0.3-2.9,0.7-4.4,1c-5.1,1-10.2,2-15.3,2.9c-0.4,0.1-0.8,0.1-1.2,0.2c-6.2,1-12.4,1.9-18.6,2.8   c-1.5,0.2-2.9,0.4-4.4,0.6c-6.5,0.8-12.9,1.4-19.4,2c-1.1,0.1-2.2,0.1-3.2,0.2c-5.8,0.4-11.7,0.8-17.6,1c-1.3,0.1-2.6,0.1-3.9,0.2   c-6.5,0.2-13,0.3-19.5,0.2c-2.2,0-4.5-0.1-6.7-0.1c-2.2-0.1-4.5-0.1-6.7-0.2c-2.5-0.1-4.9-0.2-7.3-0.4c-2.2-0.1-4.5-0.2-6.7-0.4   c-4.1-0.3-8.2-0.6-12.2-1l-3.6,172.9c3.4,0.3,6.9,0.6,10.4,0.9c0.6,0.1,1.3,0.1,1.9,0.1c2.2,0.2,4.5,0.3,6.7,0.4   c2.4,0.1,4.9,0.3,7.3,0.4c2.2,0.1,4.5,0.1,6.8,0.2c1.7,0,3.4,0.1,5.1,0.1c0.5,0,1,0,1.6,0c6.5,0.1,13,0,19.5-0.2   c1.3,0,2.6-0.1,3.9-0.2c5.9-0.2,11.7-0.6,17.6-1c1.1-0.1,2.1-0.1,3.2-0.2c6.5-0.5,13-1.2,19.5-2c1.5-0.2,2.9-0.4,4.4-0.6   c6.2-0.8,12.4-1.7,18.6-2.8c0.3-0.1,0.6-0.1,0.9-0.1c0.1,0,0.2,0,0.3-0.1c5.1-0.9,10.2-1.8,15.3-2.9c1.5-0.3,2.9-0.7,4.4-1   c3.6-0.8,7.2-1.6,10.7-2.4c0.7-0.2,1.3-0.3,2-0.4c1.8-0.4,3.6-0.9,5.4-1.4c1.6-0.4,3.3-0.8,4.9-1.3c2.8-0.8,5.6-1.6,8.4-2.4   c1.3-0.4,2.7-0.8,4.1-1.2c0.2-0.1,0.5-0.1,0.8-0.2c0.6-0.2,1.1-0.4,1.7-0.6c5-1.6,10-3.2,14.9-5c0.8-0.3,1.6-0.5,2.4-0.8   c0.7-0.2,1.3-0.5,2-0.8c3.9-1.4,7.8-2.9,11.6-4.5c0.8-0.3,1.6-0.6,2.3-0.9c0.4-0.2,0.9-0.4,1.3-0.5l3.6-172.9   c-1.2,0.5-2.4,0.9-3.6,1.4c-3.8,1.6-7.7,3.1-11.6,4.5C1013.8,1723.4,1012.4,1723.9,1010.9,1724.4L1010.9,1724.4z"></path>					<linearGradient id="SVGID_00000083794027415816318940000015666686246771255968_" gradientUnits="userSpaceOnUse" x1="3941.6887" y1="322.0245" x2="4032.9187" y2="1594.8744" gradientTransform="matrix(-8.332998e-02 0.9965 0.9965 8.332998e-02 233.6299 -2675.8938)">			<stop offset="0" style="stop-color:#F9FCFF"></stop>			<stop offset="1" style="stop-color:#E7EDF7"></stop>		</linearGradient>		<path style="fill:url(#SVGID_00000083794027415816318940000015666686246771255968_);" d="M414.4,1638.3l66.5-70.3   c-26.8-19.9-49.2-41.8-67.1-65.1c-39.9,5.7-79.9,11.4-119.8,17.1c-40.5-43.6-58.1-98.7-48.5-149.4l118.4-16.9   c1.3-26.5,7.9-53.1,20-78.9l-101.5-44.8c8.4-24.9,23.8-49.2,44.5-71.1s46.8-41.4,76.6-56.8l101.5,44.8   c29.5-18.2,62.3-33.2,97.2-45c-8.7-26.9-17.3-53.8-26-80.7c63.8-26.8,144.7-38.6,219.5-31.3l26.4,81.8c38.4,1.5,76.8,6.5,114.2,15   l66.6-70.4c73.5,11.8,143.3,42.6,189.3,83.5l-66.6,70.4c26.8,19.8,49.2,41.7,67,64.9c40-5.7,80.1-11.4,120.1-17.2   c40.3,43.4,58.1,98.7,48.5,149.4c-39.4,5.6-79,11.3-118.5,17c-1.3,26.6-7.9,53.2-20,79l101.4,44.7c-8.2,24.9-23.5,49.2-44.2,71.1   c-20.7,21.9-46.9,41.4-76.8,56.8l-101.4-44.7c-29.5,18.1-62.2,33.2-97.1,44.9l26.1,80.7c-63.8,26.8-144.9,38.5-219.5,31.3   c-8.8-27.2-17.6-54.4-26.4-81.7c-38.4-1.5-76.9-6.4-114.4-15l-66.5,70.3C530,1710.1,460.2,1679.4,414.4,1638.3L414.4,1638.3z    M601.9,1280.3c-70.5,74.5-37.6,174.7,73.6,223.7c111.2,49.1,258.5,28.4,329-46.2c70.5-74.5,37.6-174.7-73.6-223.7   C819.8,1185.2,672.4,1205.8,601.9,1280.3"></path>	</g>			<linearGradient id="SVGID_00000058591318200562239150000010500438465244364436_" gradientUnits="userSpaceOnUse" x1="3961.6987" y1="600.2438" x2="4009.3792" y2="1265.5238" gradientTransform="matrix(-8.332998e-02 0.9965 0.9965 8.332998e-02 233.6299 -2675.8938)">		<stop offset="0" style="stop-color:#505FAA"></stop>		<stop offset="1" style="stop-color:#2C3C91"></stop>	</linearGradient>	<path style="fill:url(#SVGID_00000058591318200562239150000010500438465244364436_);" d="M559,1261.4  c-85.6,90.4-45.6,212,89.3,271.5c135,59.5,313.7,34.4,399.2-56c85.6-90.4,45.6-211.9-89.3-271.5  C823.3,1145.9,644.5,1171,559,1261.4"></path>	<g>					<linearGradient id="SVGID_00000112624209648330275220000013524963658714332547_" gradientUnits="userSpaceOnUse" x1="803.23" y1="847.6198" x2="803.23" y2="463.1599" gradientTransform="matrix(1 0 0 -1 0 2033.8899)">			<stop offset="0.2" style="stop-color:#62CAEA"></stop>			<stop offset="1" style="stop-color:#FFFFFF"></stop>		</linearGradient>		<path style="opacity:0.59;fill:url(#SVGID_00000112624209648330275220000013524963658714332547_);enable-background:new    ;" d="   M1092.6,880.4L513.9,675.1v685h0.1c-2.8,66.8,44.9,133.4,134.2,172.8c135,59.5,313.7,34.4,399.2-56c35.2-37.2,49.1-79.6,44-120.8   h1V880.4L1092.6,880.4z"></path>	</g>			<linearGradient id="SVGID_00000000937079181257846550000013431381196012927876_" gradientUnits="userSpaceOnUse" x1="242.6311" y1="1081.3705" x2="353.4411" y2="912.9106" gradientTransform="matrix(1 0 0 -1 0 2033.8899)">		<stop offset="0" style="stop-color:#959DC7"></stop>		<stop offset="1" style="stop-color:#5662A6"></stop>	</linearGradient>	<path style="fill:url(#SVGID_00000000937079181257846550000013431381196012927876_);" d="M227.9,903.2l154.2,79.6  c13.7,7.1,22.4,21.3,22.4,36.7V1173c0,12.6-18.1,27.6-29.3,21.8l-150-86.6c-13.4-6.9-21.8-20.7-21.8-35.8L194,921.7  C194,909.1,216.8,897.4,227.9,903.2L227.9,903.2z"></path>			<linearGradient id="SVGID_00000128469605878178130470000008005638297449424000_" gradientUnits="userSpaceOnUse" x1="247.9095" y1="908.2701" x2="336.8195" y2="1054.2101" gradientTransform="matrix(1 0 0 -1 0 2033.8899)">		<stop offset="0" style="stop-color:#959DC7"></stop>		<stop offset="1" style="stop-color:#5662A6"></stop>	</linearGradient>	<path style="fill:url(#SVGID_00000128469605878178130470000008005638297449424000_);" d="M217.6,908.2l154.2,79.6  c13.7,7.1,22.4,21.3,22.4,36.7V1178c0,12.6-13.4,20.8-24.6,15l-154.7-79.8c-13.4-6.9-21.8-20.7-21.8-35.8V923.1  C193.1,910.5,206.4,902.4,217.6,908.2L217.6,908.2z"></path>			<linearGradient id="SVGID_00000103239518278042004180000000503219438746702250_" gradientUnits="userSpaceOnUse" x1="252.1208" y1="915.1633" x2="332.8408" y2="1047.6732" gradientTransform="matrix(1 0 0 -1 0 2033.8899)">		<stop offset="0" style="stop-color:#D8D9EB"></stop>		<stop offset="1" style="stop-color:#FDFDFE"></stop>	</linearGradient>	<path style="fill:url(#SVGID_00000103239518278042004180000000503219438746702250_);" d="M385.5,1024.1v155.6  c0,1.8-0.6,3.4-1.6,4.5c-1.4,1.7-3.5,2.6-5.5,2.6c-1.1,0-2.2-0.3-3.2-0.8l-80.1-41.3l-47.2-24.3l-29.4-15.2  c-6.4-3.3-11.4-8.7-14.2-15.1c-1.7-3.8-2.6-8-2.6-12.3V921.4c0-4.4,3.7-7.1,7.1-7.1c1.1,0,2.2,0.3,3.2,0.8l156.3,80.6  C379,1001.3,385.6,1012.1,385.5,1024.1L385.5,1024.1z"></path>			<linearGradient id="SVGID_00000002373525625193225220000016314573838600405641_" gradientUnits="userSpaceOnUse" x1="219.4682" y1="977.2366" x2="279.4882" y2="943.9966" gradientTransform="matrix(1 0 0 -1 0 2033.8899)">		<stop offset="0" style="stop-color:#DBDCED"></stop>		<stop offset="1" style="stop-color:#989ACB"></stop>	</linearGradient>	<path style="fill:url(#SVGID_00000002373525625193225220000016314573838600405641_);" d="M295,1144.8l-76.6-39.5  c-6.4-3.3-11.4-8.7-14.2-15.1l46.1-59.7c3-3.9,9.1-2.8,10.6,1.9L295,1144.8L295,1144.8z"></path>			<linearGradient id="SVGID_00000162324328303874014520000010316228523666023083_" gradientUnits="userSpaceOnUse" x1="280.7383" y1="965.4263" x2="362.0083" y2="927.5663" gradientTransform="matrix(1 0 0 -1 0 2033.8899)">		<stop offset="0" style="stop-color:#DBDCED"></stop>		<stop offset="1" style="stop-color:#989ACB"></stop>	</linearGradient>	<path style="fill:url(#SVGID_00000162324328303874014520000010316228523666023083_);" d="M383.9,1184.3c-1.4,1.7-3.5,2.6-5.5,2.6  c-1.1,0-2.2-0.3-3.2-0.8l-80.1-41.3l-47.2-24.3l77.1-97.7c4.4-5.5,13.1-3.7,15,3L383.9,1184.3L383.9,1184.3z"></path>			<linearGradient id="SVGID_00000170256365364027018250000015305672185755954621_" gradientUnits="userSpaceOnUse" x1="237.2342" y1="-84.6433" x2="257.1142" y2="-95.6533" gradientTransform="matrix(1.0017 0.501 -2.568564e-03 -0.9964 3.0908 764.1246)">		<stop offset="0" style="stop-color:#DBDCED"></stop>		<stop offset="1" style="stop-color:#989ACB"></stop>	</linearGradient>	<path style="fill:url(#SVGID_00000170256365364027018250000015305672185755954621_);" d="M243.2,966.5c6-4.7,17-0.5,24.6,9.3  s9,21.5,3,26.1c-6,4.7-17,0.5-24.6-9.3C238.6,982.8,237.2,971.1,243.2,966.5z"></path>			<linearGradient id="SVGID_00000067214885612971651390000001030908168161617042_" gradientUnits="userSpaceOnUse" x1="132.3088" y1="1786.199" x2="243.1188" y2="1617.739" gradientTransform="matrix(1 0 0 -1 0 2033.8899)">		<stop offset="0" style="stop-color:#8F92C7"></stop>		<stop offset="1" style="stop-color:#CFD5EB"></stop>	</linearGradient>	<path style="fill:url(#SVGID_00000067214885612971651390000001030908168161617042_);" d="M117.6,198.4l154.2,79.6  c13.7,7.1,22.4,21.3,22.4,36.7v153.6c0,12.6-18.1,27.6-29.3,21.8l-150-86.6c-13.4-6.9-21.8-20.7-21.8-35.8l-9.4-150.8  C83.7,204.2,106.4,192.6,117.6,198.4L117.6,198.4z"></path>			<linearGradient id="SVGID_00000083778962510696409960000007163185114880714667_" gradientUnits="userSpaceOnUse" x1="137.5933" y1="1613.0978" x2="226.4933" y2="1759.0378" gradientTransform="matrix(1 0 0 -1 0 2033.8899)">		<stop offset="0" style="stop-color:#D8D9EB"></stop>		<stop offset="1" style="stop-color:#FDFDFE"></stop>	</linearGradient>	<path style="fill:url(#SVGID_00000083778962510696409960000007163185114880714667_);" d="M107.3,203.4l154.2,79.6  c13.7,7.1,22.4,21.3,22.4,36.7v153.6c0,12.6-13.4,20.8-24.6,15l-154.7-79.8c-13.4-6.9-21.8-20.7-21.8-35.8V218.3  C82.7,205.7,96.1,197.6,107.3,203.4L107.3,203.4z"></path>	<path class="st88" d="M261.6,336.1l-156-77.9c-1.9-0.9-3.4-3.2-3.4-5.1l0,0c0-1.9,1.5-2.6,3.4-1.7l156,77.9  c1.9,0.9,3.4,3.2,3.4,5.1l0,0C265,336.3,263.5,337,261.6,336.1z"></path>	<path class="st88" d="M261.6,355l-156-77.9c-1.9-0.9-3.4-3.2-3.4-5.1l0,0c0-1.9,1.5-2.6,3.4-1.7l156,77.9c1.9,0.9,3.4,3.2,3.4,5.1  l0,0C265,355.2,263.5,355.9,261.6,355z"></path>	<path class="st88" d="M261.6,373.9l-156-77.9c-1.9-0.9-3.4-3.2-3.4-5.1l0,0c0-1.9,1.5-2.6,3.4-1.7l156,77.9  c1.9,0.9,3.4,3.2,3.4,5.1l0,0C265,374.1,263.5,374.8,261.6,373.9z"></path>	<path class="st88" d="M261.6,392.8l-156-77.9c-1.9-0.9-3.4-3.2-3.4-5.1l0,0c0-1.9,1.5-2.6,3.4-1.7l156,77.9  c1.9,0.9,3.4,3.2,3.4,5.1l0,0C265,393,263.5,393.7,261.6,392.8z"></path>	<path class="st88" d="M261.6,411.7l-156-77.9c-1.9-0.9-3.4-3.2-3.4-5.1l0,0c0-1.9,1.5-2.6,3.4-1.7l156,77.9  c1.9,0.9,3.4,3.2,3.4,5.1l0,0C265,411.9,263.5,412.6,261.6,411.7z"></path>	<path class="st88" d="M261.6,430.6l-156-77.9c-1.9-0.9-3.4-3.2-3.4-5.1l0,0c0-1.9,1.5-2.6,3.4-1.7l156,77.9  c1.9,0.9,3.4,3.2,3.4,5.1l0,0C265,430.8,263.5,431.5,261.6,430.6z"></path>	<path class="st88" d="M261.6,449.5l-156-77.9c-1.9-0.9-3.4-3.2-3.4-5.1l0,0c0-1.9,1.5-2.6,3.4-1.7l156,77.9  c1.9,0.9,3.4,3.2,3.4,5.1l0,0C265,449.6,263.5,450.4,261.6,449.5z"></path>	<polygon class="st89" points="757.1,691.3 1155.2,962.6 1189.4,941.9 1189.4,250.6 757.1,0  "></polygon>	<polygon class="st90" points="722.9,712 1155.2,962.6 1155.2,271.4 722.9,20.7  "></polygon>			<linearGradient id="SVGID_00000104700050558061543440000011735093012482799263_" gradientUnits="userSpaceOnUse" x1="746.16" y1="1542.2349" x2="1131.9301" y2="1542.2349" gradientTransform="matrix(1 0 0 -1 0 2033.8899)">		<stop offset="0" style="stop-color:#F9F9FC"></stop>		<stop offset="1" style="stop-color:#D7DCEE"></stop>	</linearGradient>	<polygon style="fill:url(#SVGID_00000104700050558061543440000011735093012482799263_);" points="746.2,698.5 746.2,61.1   1055.9,240.7 1131.9,389.2 1131.9,922.2  "></polygon>	<polygon class="st89" points="1055.6,240.7 1055.6,349.6 1131.9,389.2  "></polygon>			<linearGradient id="SVGID_00000137836863385988618820000005757917751156175290_" gradientUnits="userSpaceOnUse" x1="1166.0306" y1="1817.7314" x2="619.9806" y2="2027.1414" gradientTransform="matrix(1 0 0 -1 0 2033.8899)">		<stop offset="0" style="stop-color:#8F92C7"></stop>		<stop offset="1" style="stop-color:#CFD5EB"></stop>	</linearGradient>	<polygon style="fill:url(#SVGID_00000137836863385988618820000005757917751156175290_);" points="1189.4,250.6 1155.2,271.4   722.9,20.7 757.1,0  "></polygon>	<line class="st93" x1="796.6" y1="206.5" x2="1043.5" y2="349.6"></line>	<line class="st94" x1="796.6" y1="240.7" x2="1043.5" y2="383.9"></line>	<line class="st94" x1="796.6" y1="274.9" x2="1043.5" y2="418.1"></line>	<line class="st94" x1="796.6" y1="309.1" x2="1043.5" y2="452.3"></line>	<line class="st93" x1="796.6" y1="380.7" x2="1043.5" y2="523.9"></line>	<line class="st94" x1="796.6" y1="414.9" x2="1043.5" y2="558.1"></line>	<line class="st94" x1="796.6" y1="449.1" x2="1043.5" y2="592.3"></line>	<line class="st94" x1="796.6" y1="483.4" x2="1043.5" y2="626.5"></line>	<line class="st93" x1="796.6" y1="554.9" x2="1043.5" y2="698.1"></line>	<line class="st94" x1="796.6" y1="589.2" x2="1043.5" y2="732.3"></line>	<line class="st94" x1="796.6" y1="623.4" x2="1043.5" y2="766.5"></line>	<line class="st94" x1="796.6" y1="657.6" x2="1043.5" y2="800.8"></line>	<polygon class="st89" points="711.5,718.8 1109.6,990.1 1143.9,969.4 1143.9,278.2 711.5,27.5  "></polygon>	<polygon class="st90" points="677.3,739.5 1109.6,990.1 1109.6,298.9 677.3,48.2  "></polygon>			<linearGradient id="SVGID_00000165932985755934025010000001733619112485927577_" gradientUnits="userSpaceOnUse" x1="700.57" y1="1514.7148" x2="1086.34" y2="1514.7148" gradientTransform="matrix(1 0 0 -1 0 2033.8899)">		<stop offset="0" style="stop-color:#F9F9FC"></stop>		<stop offset="1" style="stop-color:#D7DCEE"></stop>	</linearGradient>	<polygon style="fill:url(#SVGID_00000165932985755934025010000001733619112485927577_);" points="700.6,726.1 700.6,88.6   1010.3,268.2 1086.3,416.7 1086.3,949.7  "></polygon>	<polygon class="st89" points="1010,268.2 1010,377.2 1086.3,416.7  "></polygon>			<linearGradient id="SVGID_00000149347479440373133980000010415970774332455304_" gradientUnits="userSpaceOnUse" x1="1120.4492" y1="1790.2081" x2="574.3994" y2="1999.6182" gradientTransform="matrix(1 0 0 -1 0 2033.8899)">		<stop offset="0" style="stop-color:#8F92C7"></stop>		<stop offset="1" style="stop-color:#CFD5EB"></stop>	</linearGradient>	<polygon style="fill:url(#SVGID_00000149347479440373133980000010415970774332455304_);" points="1143.9,278.2 1109.6,298.9   677.3,48.2 711.5,27.5  "></polygon>	<line class="st93" x1="751" y1="234" x2="997.9" y2="377.2"></line>	<line class="st94" x1="751" y1="268.2" x2="997.9" y2="411.4"></line>	<line class="st94" x1="751" y1="302.4" x2="997.9" y2="445.6"></line>	<line class="st94" x1="751" y1="336.6" x2="997.9" y2="479.8"></line>	<line class="st93" x1="751" y1="408.2" x2="997.9" y2="551.4"></line>	<line class="st94" x1="751" y1="442.4" x2="997.9" y2="585.6"></line>	<line class="st94" x1="751" y1="476.7" x2="997.9" y2="619.8"></line>	<line class="st94" x1="751" y1="510.9" x2="997.9" y2="654"></line>	<line class="st93" x1="751" y1="582.5" x2="997.9" y2="725.6"></line>	<line class="st94" x1="751" y1="616.7" x2="997.9" y2="759.8"></line>	<line class="st94" x1="751" y1="650.9" x2="997.9" y2="794.1"></line>	<line class="st94" x1="751" y1="685.1" x2="997.9" y2="828.3"></line>	<polygon class="st89" points="666,746.3 1064,1017.7 1098.3,996.9 1098.3,305.7 666,55  "></polygon>	<polygon class="st90" points="631.7,767 1064,1017.7 1064,326.4 631.7,75.7  "></polygon>			<linearGradient id="SVGID_00000159429182548275424000000016733524857581466263_" gradientUnits="userSpaceOnUse" x1="654.98" y1="1487.1948" x2="1040.75" y2="1487.1948" gradientTransform="matrix(1 0 0 -1 0 2033.8899)">		<stop offset="0" style="stop-color:#F9F9FC"></stop>		<stop offset="1" style="stop-color:#D7DCEE"></stop>	</linearGradient>	<polygon style="fill:url(#SVGID_00000159429182548275424000000016733524857581466263_);" points="655,753.6 655,116.1 964.7,295.7   1040.8,444.2 1040.8,977.2  "></polygon>	<polygon class="st89" points="964.5,295.7 964.5,404.7 1040.8,444.2  "></polygon>			<linearGradient id="SVGID_00000145044313456029951120000000693784626476283522_" gradientUnits="userSpaceOnUse" x1="1074.86" y1="1762.6898" x2="528.8099" y2="1972.0997" gradientTransform="matrix(1 0 0 -1 0 2033.8899)">		<stop offset="0" style="stop-color:#8F92C7"></stop>		<stop offset="1" style="stop-color:#CFD5EB"></stop>	</linearGradient>	<polygon style="fill:url(#SVGID_00000145044313456029951120000000693784626476283522_);" points="1098.3,305.7 1064,326.4   631.7,75.7 666,55  "></polygon>	<line class="st93" x1="705.4" y1="261.5" x2="952.3" y2="404.7"></line>	<line class="st94" x1="705.4" y1="295.7" x2="952.3" y2="438.9"></line>	<line class="st94" x1="705.4" y1="329.9" x2="952.3" y2="473.1"></line>	<line class="st94" x1="705.4" y1="364.2" x2="952.3" y2="507.3"></line>	<line class="st93" x1="705.4" y1="435.7" x2="952.3" y2="578.9"></line>	<line class="st94" x1="705.4" y1="470" x2="952.3" y2="613.1"></line>	<line class="st94" x1="705.4" y1="504.2" x2="952.3" y2="647.3"></line>	<line class="st94" x1="705.4" y1="538.4" x2="952.3" y2="681.6"></line>	<line class="st93" x1="705.4" y1="610" x2="952.3" y2="753.2"></line>	<line class="st94" x1="705.4" y1="644.2" x2="952.3" y2="787.4"></line>	<line class="st94" x1="705.4" y1="678.4" x2="952.3" y2="821.6"></line>	<line class="st94" x1="705.4" y1="712.6" x2="952.3" y2="855.8"></line>	<polygon class="st89" points="620.4,773.8 1018.4,1045.2 1052.7,1024.5 1052.7,333.2 620.4,82.6  "></polygon>	<polygon class="st90" points="586.1,794.5 1018.4,1045.2 1018.4,353.9 586.1,103.3  "></polygon>			<linearGradient id="SVGID_00000176013655396074607110000003146634510993113267_" gradientUnits="userSpaceOnUse" x1="609.4" y1="1459.6798" x2="995.17" y2="1459.6798" gradientTransform="matrix(1 0 0 -1 0 2033.8899)">		<stop offset="0" style="stop-color:#F9F9FC"></stop>		<stop offset="1" style="stop-color:#D7DCEE"></stop>	</linearGradient>	<polygon style="fill:url(#SVGID_00000176013655396074607110000003146634510993113267_);" points="609.4,781.1 609.4,143.6   919.1,323.2 995.2,471.8 995.2,1004.8  "></polygon>	<polygon class="st89" points="918.9,323.2 918.9,432.2 995.2,471.8  "></polygon>			<linearGradient id="SVGID_00000140718063288805565720000007822419682569956235_" gradientUnits="userSpaceOnUse" x1="1029.2703" y1="1735.1804" x2="483.2202" y2="1944.5804" gradientTransform="matrix(1 0 0 -1 0 2033.8899)">		<stop offset="0" style="stop-color:#8F92C7"></stop>		<stop offset="1" style="stop-color:#CFD5EB"></stop>	</linearGradient>	<polygon style="fill:url(#SVGID_00000140718063288805565720000007822419682569956235_);" points="1052.7,333.2 1018.4,353.9   586.1,103.3 620.4,82.6  "></polygon>	<line class="st93" x1="659.8" y1="289" x2="906.8" y2="432.2"></line>	<line class="st94" x1="659.8" y1="323.2" x2="906.8" y2="466.4"></line>	<line class="st94" x1="659.8" y1="357.5" x2="906.8" y2="500.6"></line>	<line class="st94" x1="659.8" y1="391.7" x2="906.8" y2="534.8"></line>	<line class="st93" x1="659.8" y1="463.3" x2="906.8" y2="606.4"></line>	<line class="st94" x1="659.8" y1="497.5" x2="906.8" y2="640.7"></line>	<line class="st94" x1="659.8" y1="531.7" x2="906.8" y2="674.9"></line>	<line class="st94" x1="659.8" y1="565.9" x2="906.8" y2="709.1"></line>	<line class="st93" x1="659.8" y1="637.5" x2="906.8" y2="780.7"></line>	<line class="st94" x1="659.8" y1="671.7" x2="906.8" y2="814.9"></line>	<line class="st94" x1="659.8" y1="705.9" x2="906.8" y2="849.1"></line>	<line class="st94" x1="659.8" y1="740.1" x2="906.8" y2="883.3"></line>	<polygon class="st89" points="574.8,801.3 972.8,1072.7 1007.1,1052 1007.1,360.7 574.8,110.1  "></polygon>	<polygon class="st90" points="540.5,822 972.8,1072.7 972.8,381.4 540.5,130.8  "></polygon>			<linearGradient id="SVGID_00000019662192753201936800000008817482056865077173_" gradientUnits="userSpaceOnUse" x1="563.81" y1="1432.1598" x2="949.58" y2="1432.1598" gradientTransform="matrix(1 0 0 -1 0 2033.8899)">		<stop offset="0" style="stop-color:#F9F9FC"></stop>		<stop offset="1" style="stop-color:#D7DCEE"></stop>	</linearGradient>	<polygon style="fill:url(#SVGID_00000019662192753201936800000008817482056865077173_);" points="563.8,808.6 563.8,171.2   873.6,350.8 949.6,499.3 949.6,1032.3  "></polygon>	<polygon class="st89" points="873.3,350.8 873.3,459.7 949.6,499.3  "></polygon>			<linearGradient id="SVGID_00000065789543938507598330000007892311174146331325_" gradientUnits="userSpaceOnUse" x1="983.6802" y1="1707.6604" x2="437.6302" y2="1917.0604" gradientTransform="matrix(1 0 0 -1 0 2033.8899)">		<stop offset="0" style="stop-color:#8F92C7"></stop>		<stop offset="1" style="stop-color:#CFD5EB"></stop>	</linearGradient>	<polygon style="fill:url(#SVGID_00000065789543938507598330000007892311174146331325_);" points="1007.1,360.7 972.8,381.4   540.5,130.8 574.8,110.1  "></polygon>	<line class="st93" x1="614.2" y1="316.5" x2="861.2" y2="459.7"></line>	<line class="st94" x1="614.2" y1="350.8" x2="861.2" y2="493.9"></line>	<line class="st94" x1="614.2" y1="385" x2="861.2" y2="528.2"></line>	<line class="st94" x1="614.2" y1="419.2" x2="861.2" y2="562.4"></line>	<line class="st93" x1="614.2" y1="490.8" x2="861.2" y2="634"></line>	<line class="st94" x1="614.2" y1="525" x2="861.2" y2="668.2"></line>	<line class="st94" x1="614.2" y1="559.2" x2="861.2" y2="702.4"></line>	<line class="st94" x1="614.2" y1="593.4" x2="861.2" y2="736.6"></line>	<line class="st93" x1="614.2" y1="665" x2="861.2" y2="808.2"></line>	<line class="st94" x1="614.2" y1="699.2" x2="861.2" y2="842.4"></line>	<line class="st94" x1="614.2" y1="733.4" x2="861.2" y2="876.6"></line>	<line class="st94" x1="614.2" y1="767.7" x2="861.2" y2="910.8"></line>	<polygon class="st89" points="529.2,828.8 927.3,1100.2 961.5,1079.5 961.5,388.2 529.2,137.6  "></polygon>			<linearGradient id="SVGID_00000127723533050341963960000013136888616579578544_" gradientUnits="userSpaceOnUse" x1="786.2778" y1="1686.9504" x2="645.1378" y2="1156.9104" gradientTransform="matrix(1 0 0 -1 0 2033.8899)">		<stop offset="0" style="stop-color:#8F92C7"></stop>		<stop offset="1" style="stop-color:#CFD5EB"></stop>	</linearGradient>	<polygon style="fill:url(#SVGID_00000127723533050341963960000013136888616579578544_);" points="495,849.5 927.3,1100.2   927.3,408.9 495,158.3  "></polygon>			<linearGradient id="SVGID_00000099662512287971403990000004110231811388852661_" gradientUnits="userSpaceOnUse" x1="518.22" y1="1404.6398" x2="903.99" y2="1404.6398" gradientTransform="matrix(1 0 0 -1 0 2033.8899)">		<stop offset="0" style="stop-color:#F9F9FC"></stop>		<stop offset="1" style="stop-color:#D7DCEE"></stop>	</linearGradient>	<polygon style="fill:url(#SVGID_00000099662512287971403990000004110231811388852661_);" points="518.2,836.1 518.2,198.7   828,378.3 904,526.8 904,1059.8  "></polygon>	<polygon class="st89" points="827.7,378.3 827.7,487.2 904,526.8  "></polygon>			<linearGradient id="SVGID_00000133507269561260350760000008364132096411986855_" gradientUnits="userSpaceOnUse" x1="938.0906" y1="1680.1415" x2="392.0406" y2="1889.5514" gradientTransform="matrix(1 0 0 -1 0 2033.8899)">		<stop offset="0" style="stop-color:#8F92C7"></stop>		<stop offset="1" style="stop-color:#CFD5EB"></stop>	</linearGradient>	<polygon style="fill:url(#SVGID_00000133507269561260350760000008364132096411986855_);" points="961.5,388.2 927.3,408.9   495,158.3 529.2,137.6  "></polygon>	<line class="st93" x1="568.7" y1="344.1" x2="815.6" y2="487.2"></line>	<line class="st94" x1="568.7" y1="378.3" x2="815.6" y2="521.5"></line>	<line class="st94" x1="568.7" y1="412.5" x2="815.6" y2="555.7"></line>	<line class="st94" x1="568.7" y1="446.7" x2="815.6" y2="589.9"></line>	<line class="st93" x1="568.7" y1="518.3" x2="815.6" y2="661.5"></line>	<line class="st94" x1="568.7" y1="552.5" x2="815.6" y2="695.7"></line>	<line class="st94" x1="568.7" y1="586.7" x2="815.6" y2="729.9"></line>	<line class="st94" x1="568.7" y1="621" x2="815.6" y2="764.1"></line>	<line class="st93" x1="568.7" y1="692.5" x2="815.6" y2="835.7"></line>	<line class="st94" x1="568.7" y1="726.8" x2="815.6" y2="869.9"></line>	<line class="st94" x1="568.7" y1="761" x2="815.6" y2="904.1"></line>	<line class="st94" x1="568.7" y1="795.2" x2="815.6" y2="938.3"></line>			<linearGradient id="SVGID_00000070832836180713577000000006775933017323283640_" gradientUnits="userSpaceOnUse" x1="929.3022" y1="1391.1813" x2="1110.6422" y2="1115.5112" gradientTransform="matrix(1 0 0 -1 0 2033.8899)">		<stop offset="0" style="stop-color:#53F5DC"></stop>		<stop offset="1" style="stop-color:#4BA1F5"></stop>	</linearGradient>	<path style="fill:url(#SVGID_00000070832836180713577000000006775933017323283640_);" d="M905.3,562l252.4,130.2  c22.5,11.6,36.6,34.8,36.6,60.1v251.3c0,20.7-29.6,45.2-48,35.7L900.9,897.5c-21.9-11.3-35.7-33.9-35.7-58.6l-15.5-246.7  C849.7,571.6,887,552.5,905.3,562L905.3,562z"></path>			<linearGradient id="SVGID_00000089556173978253880160000017960475497513730233_" gradientUnits="userSpaceOnUse" x1="937.9442" y1="1107.9073" x2="1083.4342" y2="1346.7373" gradientTransform="matrix(1 0 0 -1 0 2033.8899)">		<stop offset="0" style="stop-color:#53F5DC"></stop>		<stop offset="1" style="stop-color:#4BA1F5"></stop>	</linearGradient>	<path style="fill:url(#SVGID_00000089556173978253880160000017960475497513730233_);" d="M888.3,570.2l252.4,130.2  c22.5,11.6,36.6,34.8,36.6,60.1v251.3c0,20.7-21.9,34-40.3,24.5L883.9,905.7c-21.9-11.3-35.7-33.9-35.7-58.6V594.6  C848.2,574,870,560.7,888.3,570.2L888.3,570.2z"></path>	<path class="st108" d="M1012.7,895.3c-48.7-25.4-88.2-87.3-88.2-138.1s39.6-71.4,88.2-46c48.7,25.4,88.2,87.3,88.2,138.1  S1061.4,920.7,1012.7,895.3L1012.7,895.3z M1012.7,718.8c-44.6-23.3-80.9-4.3-80.9,42.2s36.3,103.4,80.9,126.7s80.9,4.3,80.9-42.2  S1057.4,742.1,1012.7,718.8L1012.7,718.8z"></path>	<polygon class="st109" points="996.5,755.6 996.5,834 1045.3,820.2  "></polygon>			<linearGradient id="SVGID_00000127041960000701368740000017914714372717551802_" gradientUnits="userSpaceOnUse" x1="5010.9282" y1="4109.4272" x2="5116.728" y2="4109.4272" gradientTransform="matrix(0.4179 0.9085 0.9085 -0.4179 -5748.6455 -2048.3103)">		<stop offset="0" style="stop-color:#7680B7"></stop>		<stop offset="1" style="stop-color:#47559F"></stop>	</linearGradient>	<path style="fill:url(#SVGID_00000127041960000701368740000017914714372717551802_);" d="M172.7,744.4L13,822.9  c-0.9,0.2-1.8,0.5-2.7,0.9c-12.9,5.9-13.8,31.4-2.1,56.9s31.7,41.4,44.5,35.4L215,836.5L172.7,744.4L172.7,744.4z"></path>			<linearGradient id="SVGID_00000104668562618316746270000007261750799543666321_" gradientUnits="userSpaceOnUse" x1="4989.1284" y1="4214.1914" x2="5090.728" y2="4214.1914" gradientTransform="matrix(0.4179 0.9085 0.9085 -0.4179 -5738.6533 -2029.4591)">		<stop offset="0" style="stop-color:#212253"></stop>		<stop offset="1" style="stop-color:#313F95"></stop>	</linearGradient>	<path style="fill:url(#SVGID_00000104668562618316746270000007261750799543666321_);" d="M175.1,743c12.9-5.9,32.8,9.9,44.5,35.4  c11.7,25.5,10.8,50.9-2.1,56.9s-32.8-9.9-44.5-35.4C161.3,774.4,162.3,748.9,175.1,743z"></path>			<linearGradient id="SVGID_00000001645428709500749730000007740205906554657163_" gradientUnits="userSpaceOnUse" x1="1530.153" y1="1504.3652" x2="1502.1429" y2="1536.7852" gradientTransform="matrix(0.9877 0.1563 0.1563 -0.9877 -1468.1604 2020.5815)">		<stop offset="0" style="stop-color:#8F92C7"></stop>		<stop offset="1" style="stop-color:#CFD5EB"></stop>	</linearGradient>	<path style="fill:url(#SVGID_00000001645428709500749730000007740205906554657163_);" d="M322.3,697.5l-123.6,61  c-0.5,0.1-0.9,0.2-1.4,0.5c-6.6,3-7.1,16.1-1.1,29.1c6,13.1,16.2,21.2,22.8,18.2l124.9-61.6L322.3,697.5L322.3,697.5z"></path>			<radialGradient id="SVGID_00000069383624095687658640000015541095649193202818_" cx="6142.6309" cy="4778.1987" r="6.58" gradientTransform="matrix(1.3079 2.8436 2.8436 -1.3079 -21303.4727 -10510.2725)" gradientUnits="userSpaceOnUse">		<stop offset="0" style="stop-color:#CFD5EB"></stop>		<stop offset="1" style="stop-color:#8F92C7"></stop>	</radialGradient>	<path style="fill:url(#SVGID_00000069383624095687658640000015541095649193202818_);" d="M323.5,696.8c6.6-3,16.8,5.1,22.8,18.2  c6,13.1,5.5,26.1-1.1,29.1s-16.8-5.1-22.8-18.2C316.4,712.9,316.9,699.8,323.5,696.8z"></path>			<linearGradient id="SVGID_00000034778702090450982600000002434898009467208886_" gradientUnits="userSpaceOnUse" x1="5022.7686" y1="4366.4341" x2="5090.5391" y2="4366.4341" gradientTransform="matrix(0.4179 0.9085 0.9085 -0.4179 -5748.6455 -2048.3103)">		<stop offset="0" style="stop-color:#7680B7"></stop>		<stop offset="1" style="stop-color:#47559F"></stop>	</linearGradient>	<path style="fill:url(#SVGID_00000034778702090450982600000002434898009467208886_);" d="M336.3,682.5l-20.4,9.4  c-0.6,0.1-1.2,0.3-1.8,0.6c-8.6,4-9.2,20.9-1.4,37.9s21.1,27.6,29.7,23.6l22.1-10.2L336.3,682.5L336.3,682.5z"></path>			<linearGradient id="SVGID_00000124862247978755170560000001042161227422683267_" gradientUnits="userSpaceOnUse" x1="5001.2886" y1="4387.8018" x2="5069.0483" y2="4387.8018" gradientTransform="matrix(0.4179 0.9085 0.9085 -0.4179 -5738.645 -2029.4635)">		<stop offset="0" style="stop-color:#212253"></stop>		<stop offset="1" style="stop-color:#313F95"></stop>	</linearGradient>	<path style="fill:url(#SVGID_00000124862247978755170560000001042161227422683267_);" d="M337.9,681.5c8.6-3.9,21.9,6.6,29.7,23.6  c7.8,17,7.2,34-1.4,37.9c-8.6,3.9-21.9-6.6-29.7-23.6C328.7,702.4,329.4,685.5,337.9,681.5z"></path>			<linearGradient id="SVGID_00000086656897122215263800000004293058802292708511_" gradientUnits="userSpaceOnUse" x1="-16.1296" y1="2728.5183" x2="40.3104" y2="2466.0283" gradientTransform="matrix(0.9249 -0.3803 -0.3803 -0.9249 1434.4537 3043.0742)">		<stop offset="0" style="stop-color:#959DC7"></stop>		<stop offset="1" style="stop-color:#5662A6"></stop>	</linearGradient>	<path style="fill:url(#SVGID_00000086656897122215263800000004293058802292708511_);" d="M605,808.5c-1,0.3-2,0.5-2.9,0.8  c-1.1,0.3-2.2,0.6-3.4,0.8c-1,0.2-2,0.4-3,0.6c-1.1,0.2-2.3,0.4-3.4,0.6c-1,0.2-2.1,0.3-3.1,0.4c-1.2,0.1-2.3,0.3-3.5,0.4  c-1,0.1-2.1,0.2-3.1,0.2c-1.2,0.1-2.5,0.1-3.7,0.1c-1,0-2.1,0-3.1,0c-1.2,0-2.5-0.1-3.8-0.1c-1,0-2-0.1-3.1-0.2  c-1.5-0.1-3.1-0.3-4.6-0.5c-0.9-0.1-1.9-0.2-2.8-0.3c-1.7-0.2-3.4-0.6-5.2-0.9c-0.8-0.2-1.6-0.3-2.5-0.5c-0.4-0.1-0.8-0.2-1.1-0.3  c-1.8-0.4-3.5-0.8-5.3-1.3c-0.5-0.1-1-0.3-1.5-0.4c-2-0.6-4.1-1.2-6.2-1.9c-0.4-0.1-0.7-0.3-1.1-0.4c-1.5-0.5-3.1-1.1-4.6-1.8  c-1.2-0.5-2.5-1-3.7-1.5c-1.2-0.5-2.3-1-3.5-1.5c-1.2-0.6-2.5-1.2-3.8-1.8c-1.2-0.6-2.3-1.1-3.5-1.7c-1.3-0.7-2.5-1.3-3.8-2.1  c-1.2-0.6-2.3-1.3-3.5-2c-1.3-0.7-2.5-1.5-3.8-2.3c-1.6-1-3.1-1.9-4.7-3c-2.9-2-5.8-4.1-8.6-6.2c-0.8-0.6-1.6-1.2-2.4-1.9  c-2.2-1.7-4.3-3.4-6.4-5.2c-0.7-0.6-1.4-1.2-2.1-1.8c-2.7-2.4-5.3-4.8-7.9-7.3c-0.5-0.4-0.9-0.9-1.3-1.3c-2.2-2.1-4.3-4.3-6.4-6.6  c-0.9-0.9-1.7-1.8-2.5-2.8c-1.1-1.2-2.2-2.5-3.3-3.8c-0.9-1.1-1.8-2.2-2.8-3.2c-1.1-1.3-2.1-2.6-3.2-3.9c-0.9-1.1-1.8-2.2-2.6-3.3  c-1-1.3-2.1-2.7-3.1-4.1c-0.8-1.1-1.7-2.3-2.5-3.4c-1-1.4-2-2.9-3-4.3c-0.8-1.1-1.5-2.2-2.2-3.3c-2-3.1-4-6.2-6-9.5  c-0.3-0.5-0.5-0.9-0.8-1.4c-1.6-2.8-3.3-5.6-4.8-8.5c-0.6-1.1-1.2-2.2-1.8-3.3c-1-1.8-1.9-3.7-2.9-5.6c-0.6-1.2-1.2-2.3-1.7-3.5  c-1-2-1.9-4-2.8-5.9c-0.5-1.1-1-2.2-1.5-3.4c-0.8-1.7-1.5-3.5-2.2-5.2c-0.5-1.2-1-2.4-1.5-3.7c-0.7-1.9-1.5-3.8-2.1-5.7  c-0.4-1.1-0.9-2.2-1.3-3.4c-0.6-1.8-1.2-3.5-1.8-5.3c-0.4-1.2-0.8-2.4-1.2-3.7c-0.6-1.9-1.2-3.8-1.8-5.8c-0.3-1.1-0.7-2.2-1-3.3  c-0.6-2.3-1.2-4.6-1.8-6.9c-0.2-0.7-0.4-1.5-0.6-2.2c-0.8-3-1.5-6.1-2.1-9.2c-0.1-0.5-0.2-0.9-0.3-1.4c-0.5-2.7-1.1-5.3-1.5-8  c-0.2-1.1-0.3-2.2-0.5-3.3c-0.3-2-0.7-4.1-0.9-6.1c-0.1-1.1-0.2-2.1-0.4-3.2c-0.3-2.2-0.5-4.5-0.8-6.7c-0.1-1.2-0.2-2.5-0.3-3.7  c-0.2-2.1-0.3-4.1-0.4-6.2c-0.1-1.2-0.1-2.3-0.2-3.5c-0.1-3.3-0.2-6.5-0.2-9.8c0-0.6,0-1.2,0-1.8c0-3.8,0.2-7.5,0.4-11.2  c0.1-1.5,0.2-3,0.3-4.5c0.1-1.2,0.2-2.4,0.3-3.6c0.2-1.7,0.4-3.4,0.6-5.1c0.1-1.1,0.3-2.2,0.4-3.3c0.3-1.9,0.6-3.7,0.9-5.6  c0.2-0.9,0.3-1.8,0.5-2.8c0.5-2.8,1.1-5.5,1.7-8.2c10.5-45.3,35.6-75.7,67.8-88.3l-54.9,21.4c-32.1,12.6-57.3,43-67.8,88.3  c-0.6,2.7-1.2,5.4-1.7,8.2c-0.2,0.9-0.3,1.8-0.5,2.8c-0.3,1.8-0.6,3.7-0.9,5.6c-0.1,1.1-0.3,2.2-0.4,3.3c-0.2,1.7-0.4,3.4-0.6,5.1  c-0.1,1.2-0.2,2.4-0.3,3.6c-0.1,1.2-0.2,2.3-0.3,3.5c0,0.4,0,0.7,0,1.1c-0.2,3.7-0.4,7.4-0.4,11.2c0,0.6,0,1.2,0,1.8  c0,3.2,0.1,6.5,0.2,9.8c0,0.5,0,1.1,0,1.6c0,0.6,0.1,1.2,0.1,1.9c0.1,2,0.3,4.1,0.4,6.2c0.1,1.2,0.2,2.5,0.3,3.8  c0.2,2.2,0.5,4.5,0.8,6.7c0.1,0.8,0.2,1.7,0.3,2.5c0,0.2,0.1,0.5,0.1,0.7c0.3,2,0.6,4.1,0.9,6.1c0.2,1.1,0.3,2.2,0.5,3.3  c0.5,2.7,1,5.3,1.5,8c0.1,0.4,0.2,0.9,0.2,1.3c0,0,0,0,0,0.1c0.6,3.1,1.3,6.1,2.1,9.2c0.2,0.8,0.4,1.5,0.6,2.3  c0.6,2.3,1.2,4.6,1.8,6.8c0,0.1,0,0.1,0,0.2c0.3,1.1,0.6,2.1,1,3.2c0.6,1.9,1.1,3.8,1.7,5.7c0.4,1.2,0.8,2.5,1.3,3.7  c0.6,1.7,1.2,3.5,1.8,5.2c0,0.2,0.1,0.3,0.1,0.4c0.4,1,0.8,2,1.1,3c0.7,1.9,1.4,3.8,2.1,5.6c0.5,1.2,1,2.5,1.5,3.7  c0.7,1.7,1.4,3.5,2.2,5.2c0.1,0.3,0.3,0.7,0.4,1c0.4,0.8,0.8,1.6,1.1,2.4c0.9,2,1.8,4,2.8,5.9c0.6,1.2,1.2,2.4,1.8,3.5  c0.9,1.9,1.9,3.7,2.9,5.6c0.3,0.7,0.7,1.3,1,2c0.2,0.5,0.5,0.9,0.8,1.3c1.6,2.9,3.2,5.7,4.8,8.5c0.3,0.5,0.5,0.9,0.8,1.4  c1.9,3.2,3.9,6.3,6,9.5c0.2,0.3,0.4,0.6,0.6,0.9c0.5,0.8,1.1,1.6,1.7,2.4c1,1.4,2,2.9,3,4.3c0.8,1.2,1.7,2.3,2.5,3.5  c1,1.4,2,2.7,3.1,4.1c0.9,1.1,1.8,2.2,2.6,3.4c1,1.3,2.1,2.6,3.2,3.9c0.9,1.1,1.8,2.2,2.8,3.2c1.1,1.3,2.2,2.5,3.3,3.8  c0.5,0.5,1,1.1,1.5,1.7c0.4,0.4,0.7,0.7,1.1,1.1c2.1,2.2,4.2,4.4,6.4,6.5c0.5,0.5,0.9,0.9,1.4,1.4c2.6,2.5,5.2,4.9,7.9,7.3  c0.7,0.6,1.4,1.2,2.1,1.8c2.1,1.8,4.2,3.5,6.4,5.2c0.8,0.6,1.6,1.3,2.4,1.9c2.8,2.2,5.7,4.2,8.6,6.2c0.8,0.5,1.6,1.1,2.4,1.6  c0.8,0.5,1.5,0.9,2.3,1.4c1.2,0.8,2.5,1.6,3.8,2.3c1.1,0.7,2.3,1.3,3.5,2c1.2,0.7,2.5,1.4,3.8,2c1.1,0.6,2.3,1.2,3.5,1.7  c1.2,0.6,2.5,1.2,3.8,1.8c1.1,0.5,2.3,1,3.5,1.5c1.2,0.5,2.5,1,3.7,1.5c0.5,0.2,1,0.4,1.5,0.6c1,0.4,2.1,0.8,3.1,1.1  c0.4,0.1,0.7,0.3,1.1,0.4c2.1,0.7,4.1,1.3,6.2,1.9c0.5,0.1,1,0.3,1.5,0.4c1.8,0.5,3.5,0.9,5.3,1.3c0.4,0.1,0.8,0.2,1.1,0.3  c0.2,0,0.4,0.1,0.5,0.1c0.6,0.1,1.3,0.2,1.9,0.3c1.7,0.3,3.5,0.7,5.2,0.9c0.9,0.1,1.9,0.2,2.8,0.3c1.5,0.2,3.1,0.4,4.6,0.5  c0.4,0,0.8,0.1,1.3,0.1c0.6,0,1.2,0,1.8,0.1c1.3,0.1,2.5,0.1,3.8,0.1c1,0,2.1,0,3.1,0c1.2,0,2.5-0.1,3.7-0.1c0.5,0,1.1,0,1.7-0.1  c0.5,0,1-0.1,1.5-0.2c1.2-0.1,2.3-0.2,3.5-0.4c1-0.1,2.1-0.3,3.1-0.4c1.1-0.2,2.3-0.4,3.4-0.6c0.6-0.1,1.2-0.2,1.8-0.3  c0.4-0.1,0.8-0.2,1.2-0.3c1.1-0.3,2.3-0.5,3.4-0.8c1-0.3,2-0.5,3-0.8c1.1-0.3,2.2-0.7,3.3-1.1c0.6-0.2,1.3-0.4,2-0.6  s1.3-0.5,1.9-0.7l54.9-21.4c-1.3,0.5-2.6,0.9-3.8,1.3C607.3,807.7,606.2,808.1,605,808.5L605,808.5z"></path>			<linearGradient id="SVGID_00000051343658487806643150000008165530308635083672_" gradientUnits="userSpaceOnUse" x1="98.271" y1="2700.26" x2="149.341" y2="2458.3799" gradientTransform="matrix(0.9249 -0.3803 -0.3803 -0.9249 1434.4537 3043.0742)">		<stop offset="0" style="stop-color:#959DC7"></stop>		<stop offset="1" style="stop-color:#5662A6"></stop>	</linearGradient>	<path style="fill:url(#SVGID_00000051343658487806643150000008165530308635083672_);" d="M403.5,418.6c1.4-0.5,2.8-0.9,4.1-1.4  c1.2-0.4,2.5-0.7,3.7-1c1.4-0.4,2.8-0.7,4.2-1c1.3-0.3,2.5-0.5,3.8-0.8c1.4-0.3,2.8-0.5,4.2-0.7c1.3-0.2,2.6-0.4,3.9-0.5  c1.4-0.2,2.9-0.3,4.3-0.5c1.3-0.1,2.6-0.2,3.9-0.3c1.5-0.1,3.1-0.1,4.6-0.2c1.3,0,2.6,0,3.9,0c1.6,0,3.1,0.1,4.7,0.2  c1.7,0.1,3.4,0.2,5.1,0.3c0.4,0,0.8,0.1,1.2,0.1c2.5,0.2,4.9,0.6,7.4,0.9c0.5,0.1,0.9,0.1,1.4,0.2c2.5,0.4,5,0.9,7.5,1.4  c0.5,0.1,1,0.2,1.4,0.3c2.2,0.5,4.4,1,6.6,1.7c0.6,0.2,1.2,0.3,1.8,0.5c2.6,0.7,5.1,1.5,7.7,2.4c0.5,0.2,0.9,0.3,1.4,0.5  c1.9,0.7,3.9,1.4,5.8,2.2c1.5,0.6,3.1,1.3,4.7,1.9c1.4,0.6,2.9,1.2,4.3,1.9c1.6,0.7,3.1,1.5,4.7,2.2c1.4,0.7,2.9,1.4,4.3,2.2  c1.6,0.8,3.1,1.7,4.7,2.6c1.4,0.8,2.9,1.6,4.3,2.5c1.6,0.9,3.1,1.9,4.7,2.9c2,1.2,3.9,2.4,5.9,3.7c3.7,2.5,7.3,5.1,10.8,7.8  c1,0.8,2,1.6,3,2.4c2.7,2.1,5.4,4.3,8,6.5c0.9,0.8,1.8,1.5,2.7,2.2c3.4,2.9,6.7,6,9.9,9.1c0.6,0.5,1.1,1.1,1.7,1.7  c2.7,2.7,5.3,5.4,8,8.2c1.1,1.1,2.1,2.3,3.2,3.5c1.4,1.5,2.8,3.1,4.2,4.7c1.2,1.3,2.3,2.7,3.4,4c1.3,1.6,2.7,3.3,4,4.9  c1.1,1.4,2.2,2.8,3.3,4.2c1.3,1.7,2.6,3.4,3.9,5.1c1,1.4,2.1,2.8,3.1,4.3c1.3,1.8,2.5,3.6,3.7,5.4c0.9,1.4,1.9,2.8,2.8,4.2  c2.6,3.9,5,7.8,7.5,11.8c0.3,0.6,0.7,1.2,1,1.7c2.1,3.5,4.1,7,6,10.6c0.7,1.4,1.5,2.7,2.2,4.1c1.2,2.3,2.4,4.6,3.6,7  c0.7,1.5,1.5,2.9,2.2,4.4c1.2,2.5,2.3,4.9,3.4,7.4c0.6,1.4,1.3,2.8,1.9,4.2c1,2.2,1.8,4.3,2.7,6.5c0.6,1.5,1.3,3.1,1.9,4.6  c0.9,2.3,1.8,4.7,2.7,7.1c0.5,1.4,1.1,2.8,1.6,4.2c0.8,2.2,1.5,4.4,2.2,6.6c0.5,1.5,1.1,3.1,1.5,4.6c0.8,2.4,1.5,4.8,2.2,7.2  c0.4,1.3,0.8,2.7,1.2,4c0.8,3,1.6,5.9,2.4,8.9c0.2,0.8,0.5,1.7,0.7,2.5c0.9,3.8,1.8,7.6,2.6,11.4c0.1,0.6,0.2,1.3,0.4,1.9  c0.7,3.3,1.3,6.5,1.9,9.8c0.2,1.4,0.4,2.8,0.7,4.2c0.4,2.5,0.8,5.1,1.2,7.6c0.2,1.3,0.3,2.7,0.5,4c0.3,2.8,0.7,5.6,0.9,8.4  c0.2,1.6,0.3,3.1,0.4,4.7c0.2,2.6,0.4,5.1,0.5,7.7c0.1,1.5,0.1,2.9,0.2,4.4c0.2,4.1,0.3,8.2,0.2,12.2c0,0.7,0,1.4,0,2.2  c0,4.7-0.2,9.3-0.5,14c-0.1,1.9-0.3,3.8-0.4,5.6c-0.1,1.5-0.2,3-0.4,4.5c-0.2,2.1-0.5,4.2-0.7,6.3c-0.2,1.4-0.3,2.8-0.5,4.2  c-0.3,2.3-0.7,4.6-1.1,6.9c-0.2,1.2-0.4,2.3-0.6,3.4c-0.6,3.4-1.3,6.8-2.1,10.2c-13.1,56.6-44.5,94.7-84.7,110.3l54.9-21.4  c40.2-15.7,71.6-53.8,84.7-110.3c0.8-3.4,1.5-6.8,2.1-10.2c0.2-1.1,0.4-2.3,0.6-3.4c0.4-2.3,0.8-4.6,1.1-7c0.2-1.4,0.3-2.8,0.5-4.2  c0.3-2.1,0.5-4.2,0.7-6.4c0.2-1.5,0.2-3,0.4-4.5c0.1-1.4,0.3-2.9,0.4-4.3c0-0.5,0-0.9,0-1.3c0.3-4.6,0.5-9.3,0.5-14  c0-0.7,0-1.5,0-2.2c0-4.1-0.1-8.1-0.2-12.2c0-0.7,0-1.4,0-2c0-0.8-0.1-1.6-0.2-2.3c-0.1-2.6-0.3-5.1-0.5-7.7  c-0.1-1.6-0.2-3.1-0.4-4.7c-0.3-2.8-0.6-5.6-0.9-8.4c-0.1-1.1-0.2-2.1-0.4-3.2c0-0.3-0.1-0.6-0.1-0.8c-0.3-2.5-0.8-5-1.2-7.6  c-0.2-1.4-0.4-2.8-0.7-4.2c-0.6-3.3-1.2-6.6-1.9-9.9c-0.1-0.6-0.2-1.2-0.3-1.7c0,0,0-0.1,0-0.1c-0.8-3.8-1.7-7.6-2.6-11.4  c-0.2-0.9-0.5-1.8-0.7-2.7c-0.7-2.9-1.5-5.8-2.3-8.7c0-0.1,0-0.2-0.1-0.2c-0.4-1.3-0.8-2.6-1.2-3.9c-0.7-2.4-1.4-4.8-2.2-7.2  c-0.5-1.5-1-3.1-1.5-4.6c-0.7-2.2-1.5-4.4-2.2-6.6c-0.1-0.2-0.1-0.4-0.2-0.5c-0.4-1.2-0.9-2.4-1.4-3.7c-0.9-2.4-1.8-4.7-2.7-7.1  c-0.6-1.5-1.3-3.1-1.9-4.6c-0.9-2.2-1.8-4.4-2.8-6.5c-0.2-0.4-0.3-0.8-0.5-1.2c-0.4-1-0.9-2-1.4-3c-1.1-2.5-2.3-5-3.5-7.4  c-0.7-1.5-1.5-3-2.2-4.4c-1.2-2.3-2.4-4.7-3.6-7c-0.4-0.8-0.8-1.6-1.2-2.4c-0.3-0.6-0.6-1.1-0.9-1.7c-2-3.6-4-7.1-6-10.6  c-0.3-0.6-0.7-1.2-1-1.7c-2.4-4-4.9-7.9-7.5-11.8c-0.2-0.4-0.5-0.7-0.7-1.1c-0.7-1-1.4-2-2.1-3c-1.2-1.8-2.5-3.6-3.7-5.4  c-1-1.5-2.1-2.9-3.1-4.3c-1.3-1.7-2.5-3.4-3.8-5.1c-1.1-1.4-2.2-2.8-3.3-4.2c-1.3-1.7-2.7-3.3-4-4.9c-1.1-1.4-2.3-2.7-3.4-4  c-1.4-1.6-2.8-3.2-4.2-4.7c-0.6-0.7-1.2-1.4-1.8-2.1c-0.5-0.5-0.9-0.9-1.4-1.4c-2.6-2.8-5.3-5.5-8-8.2c-0.6-0.6-1.1-1.1-1.7-1.7  c-3.2-3.1-6.5-6.2-9.9-9.1c-0.9-0.8-1.8-1.5-2.7-2.2c-2.6-2.2-5.3-4.4-8-6.5c-1-0.8-2-1.6-3-2.4c-3.5-2.7-7.1-5.3-10.8-7.8  c-1-0.7-2-1.3-3-2c-1-0.6-1.9-1.1-2.8-1.7c-1.6-1-3.1-2-4.7-2.9c-1.4-0.9-2.9-1.7-4.3-2.5c-1.6-0.9-3.1-1.7-4.7-2.6  c-1.4-0.8-2.9-1.5-4.3-2.2c-1.6-0.8-3.1-1.5-4.7-2.2c-1.4-0.7-2.9-1.3-4.3-1.9c-1.6-0.7-3.1-1.3-4.7-1.9c-0.6-0.2-1.3-0.5-1.9-0.8  c-1.3-0.5-2.6-0.9-3.9-1.4c-0.5-0.2-0.9-0.3-1.4-0.5c-2.6-0.9-5.1-1.7-7.7-2.4c-0.6-0.2-1.2-0.3-1.8-0.5c-2.2-0.6-4.4-1.2-6.6-1.7  c-0.5-0.1-0.9-0.2-1.4-0.3c-0.2,0-0.4-0.1-0.7-0.1c-2.3-0.5-4.6-0.9-6.8-1.3c-0.5-0.1-0.9-0.1-1.4-0.2c-2.5-0.4-5-0.7-7.4-0.9  c-0.4,0-0.8-0.1-1.2-0.1c-0.9-0.1-1.9-0.2-2.8-0.2c-0.8,0-1.5,0-2.3-0.1c-1.6-0.1-3.1-0.1-4.7-0.2c-1.3,0-2.6,0-3.9,0  c-1.5,0-3.1,0.1-4.6,0.2c-0.7,0-1.4,0-2.1,0.1c-0.6,0-1.2,0.1-1.8,0.2c-1.5,0.1-2.9,0.3-4.3,0.5c-1.3,0.2-2.6,0.3-3.9,0.5  c-1.4,0.2-2.8,0.5-4.2,0.7c-0.8,0.1-1.5,0.2-2.3,0.4c-0.5,0.1-1,0.3-1.5,0.4c-1.4,0.3-2.8,0.7-4.2,1c-1.2,0.3-2.5,0.6-3.7,1  c-1.4,0.4-2.8,0.9-4.1,1.4c-0.8,0.3-1.6,0.5-2.4,0.8s-1.6,0.6-2.4,0.9l-54.9,21.4C400.3,419.6,401.9,419.1,403.5,418.6L403.5,418.6  z"></path>			<linearGradient id="SVGID_00000122000042277220547230000001312015626643152557_" gradientUnits="userSpaceOnUse" x1="187.2495" y1="2666.2085" x2="-131.4904" y2="2479.2986" gradientTransform="matrix(0.9249 -0.3803 -0.3803 -0.9249 1434.4537 3043.0742)">		<stop offset="0" style="stop-color:#DBDCED"></stop>		<stop offset="1" style="stop-color:#989ACB"></stop>	</linearGradient>	<path style="fill:url(#SVGID_00000122000042277220547230000001312015626643152557_);" d="M534,442.9c-95.5-64-193.9-24.7-220,87.7  c-26,112.5,30.3,255.5,125.7,319.5c95.5,64,194,24.7,220-87.7C685.7,649.9,629.4,506.9,534,442.9L534,442.9z M449.2,809.4  c-76.4-51.2-121.4-165.6-100.6-255.6c11.5-49.6,40.6-81.4,77.2-91.4c29.8-8.1,64.5-1.8,98.7,21.2  c76.4,51.2,121.4,165.6,100.6,255.6c-9.2,39.5-29.5,67.8-55.9,82.7C535.5,840.8,492,838.1,449.2,809.4L449.2,809.4z"></path>	<path class="st119" d="M625.2,739.2c-9.2,39.5-29.5,67.8-55.9,82.7c-29.8,8.1-64.5,1.8-98.8-21.2C394.1,749.5,349.1,635,369.9,545  c9.1-39.6,29.5-67.8,55.9-82.6c29.8-8.1,64.5-1.8,98.8,21.2C600.9,534.8,646,649.2,625.2,739.2L625.2,739.2z"></path></g></svg>