<svg xmlns="http://www.w3.org/2000/svg" xmlns:xlink="http://www.w3.org/1999/xlink" id="Layer_1" x="0px" y="0px" viewBox="0 0 2000 2000" style="enable-background:new 0 0 2000 2000;" xml:space="preserve"><style type="text/css">	.st0{fill-rule:evenodd;clip-rule:evenodd;fill:#0F596D;}	.st1{fill-rule:evenodd;clip-rule:evenodd;fill:#69C8E2;}	.st2{fill-rule:evenodd;clip-rule:evenodd;fill:#18B0E6;}	.st3{fill-rule:evenodd;clip-rule:evenodd;fill:#FEFFFE;}	.st4{fill:#FEFFFE;}	.st5{fill-rule:evenodd;clip-rule:evenodd;fill-opacity:0.25;}</style><g id="_1-recession-gap" transform="matrix(0.685325,0,0,0.685325,28.2358,-584.039)">	<g transform="matrix(0.605169,0,0,0.605169,404.186,440.722)">		<g transform="matrix(1.33367,-0.769997,0.924097,0.533528,217.91,26.1101)">			<path class="st0" d="M-895,2898.3c0-14.2-6.1-22.9-15.9-22.9c-83.1,0-459.8-228-459.8-228s-166.7,236.7-176.6,250.9    c-9.9,14.3-15.9,31.8-15.9,46.1c0,207,0,816.3,0,942.4c0,14.3,6.1,23,15.9,23h604.5c9.9,0,22-8.8,31.9-23    c9.9-14.2,180.5-261.4,180.5-261.4S-895,3024.5-895,2898.3z"></path>		</g>		<g transform="matrix(1.33367,-0.769997,0.924097,0.533528,217.91,-14.8919)">			<path class="st1" d="M-745.1,2682c0-14.2-6.1-22.9-15.9-22.9c-83.1,0-468.4,0-604.5,0c-9.9,0-22,8.8-31.9,22.9    c-9.9,14.3-15.9,31.8-15.9,46.1c0,207,0,816.3,0,942.4c0,14.3,6.1,23,15.9,23h604.5c9.9,0,22-8.8,31.9-23    c9.9-14.2,15.9-31.8,15.9-46C-745.1,3417.4-745.1,2808.1-745.1,2682z"></path>		</g>	</g>	<g transform="matrix(0.436605,0,0,0.436605,473.283,676.432)">		<g transform="matrix(1.33367,-0.769997,0.924097,0.533528,217.91,15.9128)">			<path class="st0" d="M-2230.8,3790.4c0-14.2-6.1-22.9-15.9-22.9c-83.1,0-507.4-162.5-507.4-162.5s-119.2,171.3-129,185.5    c-9.9,14.3-15.9,31.8-15.9,46.1c0,207,0,816.3,0,942.4c0,14.3,6.1,23,15.9,23h604.5c9.9,0,22-8.8,31.9-23    c9.9-14.2,63.4-86.5,63.4-100.7C-2183.4,4471.1-2230.8,3916.5-2230.8,3790.4z"></path>		</g>		<g transform="matrix(1.33367,-0.769997,0.924097,0.533528,217.91,-14.8919)">			<path class="st2" d="M-2118.2,3627.9c0-14.2-6.1-22.9-15.9-22.9c-83.1,0-468.4,0-604.5,0c-9.9,0-22,8.8-31.9,22.9    c-9.9,14.3-15.9,31.8-15.9,46.1c0,207,0,816.3,0,942.4c0,14.3,6.1,23,15.9,23h604.5c9.9,0,22-8.8,31.9-23    c9.9-14.2,15.9-31.8,15.9-46C-2118.2,4363.3-2118.2,3754-2118.2,3627.9z"></path>		</g>	</g>	<g transform="matrix(0.332175,0,0,0.332175,670.529,817.609)">		<g transform="matrix(1.33367,-0.769997,0.924097,0.533528,217.91,35.1929)">			<path class="st0" d="M-2816.2,6299.2c0-14.2-6.1-22.9-15.9-22.9c-83.1,0-419.6-286.4-419.6-286.4s-207,295.1-216.9,309.3    c-9.9,14.3-15.9,31.8-15.9,46.1c0,207,0,816.3,0,942.4c0,14.3,6.1,23,15.9,23h604.5c9.9,0,22-8.8,31.9-23    c9.9-14.2,217.5-314.1,217.5-314.1S-2816.2,6425.3-2816.2,6299.2z"></path>		</g>		<g transform="matrix(1.33367,-0.769997,0.924097,0.533528,217.91,-14.8919)">			<path class="st2" d="M-2633.1,6034.9c0-14.2-6.1-22.9-15.9-22.9c-83.1,0-468.4,0-604.5,0c-9.9,0-22,8.8-31.9,22.9    c-9.9,14.3-15.9,31.8-15.9,46.1c0,207,0,816.3,0,942.4c0,14.3,6.1,23,15.9,23h604.5c9.9,0,22-8.8,31.9-23    c9.9-14.2,15.9-31.8,15.9-46C-2633.1,6770.3-2633.1,6161-2633.1,6034.9z"></path>		</g>	</g>	<g transform="matrix(0.27853,0,0,0.277178,834.505,835.135)">		<g transform="matrix(1.33367,-0.769997,0.924097,0.533528,217.91,14.6913)">			<path class="st0" d="M-1958,7771c0-14.2-6.1-22.9-15.9-22.9c-83.1,0-433.4-66-569.5-66c-9.9,0-57,74.8-66.9,89    c-9.9,14.3-15.9,31.8-15.9,46.1c0,207,0,816.3,0,942.4c0,14.3,6.1,23,15.9,23h604.5c9.9,0,22-8.8,31.9-23    c9.9-14.2,132.3-189,132.3-189S-1958,7897.1-1958,7771z"></path>		</g>		<g transform="matrix(1.33367,-0.769997,0.924097,0.533528,217.91,-14.8919)">			<path class="st2" d="M-1849.8,7614.9c0-14.2-6.1-22.9-15.9-22.9c-83.1,0-468.4,0-604.5,0c-9.9,0-22,8.8-31.9,22.9    c-9.9,14.3-15.9,31.8-15.9,46.1c0,207,0,816.3,0,942.4c0,14.3,6.1,23,15.9,23h604.5c9.9,0,22-8.8,31.9-23    c9.9-14.2,15.9-31.8,15.9-46C-1849.8,8350.3-1849.8,7741-1849.8,7614.9z"></path>		</g>	</g>	<g>		<g transform="matrix(1,0,0,1,-3.41593,24.9386)">			<g transform="matrix(1,0,0,1,-31.6473,-11.0814)">				<g transform="matrix(0.866025,-0.5,1,0.57735,0,0)">					<polygon class="st0" points="-1976.4,2724.9 -1268.6,2724.9 -1268.6,3096.3 -1976.4,3096.3      "></polygon>				</g>				<g transform="matrix(0.748003,-0.431859,0.863719,0.498668,141.319,148.225)">					<path class="st3" d="M-1433.9,2982.1c0-3.6-2.6-5.8-6.8-5.8c-20.3,0-32.8-10.8-32.8-28.4c0-3.6-2.6-5.9-6.8-5.9h-605      c-4.2,0-9.3,2.3-13.5,5.9c-4.2,3.6-6.8,8.1-6.8,11.7c0,7.7-5.5,17.2-14.3,24.9c-8.9,7.7-19.8,12.4-28.7,12.4      c-4.2,0-9.3,2.3-13.5,5.8c-4.2,3.6-6.8,8.1-6.8,11.7c0,75.9,0,211.2,0,277.6c0,3.6,2.6,5.8,6.8,5.8c23.6,0,38.2,12.6,38.2,33.1      c0,3.6,2.6,5.8,6.8,5.8c121.8,0,458.7,0,599.6,0c4.2,0,9.3-2.3,13.5-5.8c4.2-3.6,6.8-8.1,6.8-11.7c0-7.7,5.5-17.2,14.3-24.8      c8.9-7.7,19.8-12.5,28.7-12.5c4.2,0,9.3-2.2,13.5-5.8c4.2-3.6,6.8-8.1,6.8-11.7C-1433.9,3186.7-1433.9,3046.6-1433.9,2982.1z       M-1461,2999.3v262.8c-12.1,4-24.5,11.1-35.4,20.6c-10.9,9.4-19.1,20.2-23.7,30.7h-577c-2.4-22.3-18.8-36.6-44.6-38.7      c0,0,0-258.1,0-258.1c12.1-4,24.5-11.1,35.4-20.6s19.1-20.2,23.7-30.7h582.4C-1497.8,2984.9-1483.4,2997.3-1461,2999.3z"></path>				</g>				<g transform="matrix(0.866025,-0.5,0.866025,0.5,13.618,13.3333)">					<path class="st4" d="M-1599.5,3453.5h-29.1c-0.9,0-1.3-0.5-1.3-1.3v-19.5c-11.2-3.4-20.5-9.9-27.7-19.6      c-7.3-9.7-10.9-20.8-10.9-33.1v-12.6c0-0.9,0.4-1.5,1.3-1.5h30.6c0.7,0,1,0.5,1,1.5v12.6c0,5.9,2.1,11.1,6.2,15.5      c4.2,4.3,9,6.5,14.6,6.5c5.8,0,10.6-2.2,14.6-6.5c3.9-4.4,5.9-9.3,5.9-14.6c0-7-4.4-12.9-13.1-17.8c-2.9-1.8-7.6-4.3-13.8-7.7      c-6.3-3.4-12.1-6.5-17.4-9.4c-10.5-5.9-18.1-13.4-22.9-22.6c-4.8-9.1-7.2-19.4-7.2-30.8c0-12.5,3.6-23.4,10.9-32.7      c7.3-9.3,16.3-15.6,27.3-18.8v-19.5c0-0.9,0.5-1.3,1.5-1.3h29.1c1.1,0,1.6,0.5,1.6,1.3v19.8c10.7,3.2,19.6,9.6,26.6,19      c7,9.4,10.6,20.2,10.6,32.2v22.4c0,0.7-0.3,1-1,1h-30.8c-0.7,0-1-0.3-1-1l-0.3-22.4c0-6.4-2.1-11.6-6.2-15.5      c-4.2-3.9-8.9-5.9-14.2-5.9c-5.6,0-10.3,2.1-14.2,6.4c-3.9,4.2-5.9,9.3-5.9,15.1c0,5.6,1.2,10.3,3.7,14.3      c2.5,3.9,6.9,7.8,13.3,11.6l27.8,15.4c9.2,4.9,16.4,11.1,21.7,18.4c5.3,7.4,7.9,16.6,7.9,27.7c0,12.8-3.5,23.8-10.4,33.1      c-6.9,9.3-15.9,15.7-26.9,19.3v19.8C-1597.9,3453.1-1598.4,3453.5-1599.5,3453.5z"></path>				</g>			</g>			<g transform="matrix(1,0,0,1,-31.6473,-18.2716)">				<g transform="matrix(0.866025,-0.5,1,0.57735,0,0)">					<polygon class="st2" points="-1935.9,2689.8 -1228.1,2689.8 -1228.1,3061.2 -1935.9,3061.2      "></polygon>				</g>				<g transform="matrix(0.748003,-0.431859,0.863719,0.498668,141.319,148.225)">					<path class="st3" d="M-1387.1,2941.5c0-3.6-2.6-5.8-6.8-5.8c-20.3,0-32.8-10.8-32.8-28.4c0-3.6-2.6-5.9-6.8-5.9h-605      c-4.2,0-9.3,2.3-13.5,5.9c-4.2,3.6-6.8,8.1-6.8,11.7c0,7.7-5.5,17.2-14.3,24.9c-8.9,7.7-19.8,12.4-28.7,12.4      c-4.2,0-9.3,2.3-13.5,5.8c-4.2,3.6-6.8,8.1-6.8,11.7c0,75.9,0,211.2,0,277.6c0,3.6,2.6,5.8,6.8,5.8c23.6,0,38.2,12.6,38.2,33.1      c0,3.6,2.6,5.8,6.8,5.8c121.8,0,458.7,0,599.6,0c4.2,0,9.3-2.3,13.5-5.8c4.2-3.6,6.8-8.1,6.8-11.7c0-7.7,5.5-17.2,14.3-24.8      c8.9-7.7,19.8-12.5,28.7-12.5c4.2,0,9.3-2.2,13.5-5.8c4.2-3.6,6.8-8.1,6.8-11.7C-1387.1,3146.1-1387.1,3006-1387.1,2941.5z       M-1414.1,2958.7v262.8c-12.1,4-24.5,11.1-35.4,20.6c-10.9,9.4-19.1,20.2-23.7,30.7h-577c-2.4-22.3-18.8-36.6-44.6-38.7      c0,0,0-258.1,0-258.1c12.1-4,24.5-11.1,35.4-20.6s19.1-20.2,23.7-30.7h582.4C-1450.9,2944.3-1436.6,2956.7-1414.1,2958.7z"></path>				</g>				<g transform="matrix(0.866025,-0.5,0.866025,0.5,13.618,13.3333)">					<path class="st4" d="M-1559,3413.1h-29.1c-0.9,0-1.3-0.5-1.3-1.3v-19.5c-11.2-3.4-20.5-9.9-27.7-19.6      c-7.3-9.7-10.9-20.8-10.9-33.1v-12.6c0-0.9,0.4-1.5,1.3-1.5h30.6c0.7,0,1,0.5,1,1.5v12.6c0,5.9,2.1,11.1,6.2,15.4      c4.2,4.3,9,6.5,14.6,6.5c5.8,0,10.6-2.2,14.6-6.5c3.9-4.4,5.9-9.3,5.9-14.6c0-7-4.4-12.9-13.1-17.8c-2.9-1.8-7.6-4.3-13.8-7.7      c-6.3-3.4-12.1-6.5-17.4-9.4c-10.5-5.9-18.1-13.4-22.9-22.6c-4.8-9.1-7.2-19.4-7.2-30.8c0-12.5,3.6-23.4,10.9-32.7      c7.3-9.3,16.3-15.6,27.3-18.8v-19.5c0-0.9,0.5-1.3,1.5-1.3h29.1c1.1,0,1.6,0.5,1.6,1.3v19.8c10.7,3.2,19.6,9.6,26.6,19      c7,9.4,10.6,20.2,10.6,32.2v22.4c0,0.7-0.3,1-1,1h-30.8c-0.7,0-1-0.3-1-1l-0.3-22.4c0-6.4-2.1-11.6-6.2-15.5      c-4.2-3.9-8.9-5.9-14.2-5.9c-5.6,0-10.3,2.1-14.2,6.4c-3.9,4.2-5.9,9.3-5.9,15.1c0,5.6,1.2,10.3,3.7,14.3      c2.5,3.9,6.9,7.8,13.3,11.6l27.8,15.4c9.2,4.9,16.4,11.1,21.7,18.4c5.3,7.4,7.9,16.6,7.9,27.7c0,12.8-3.5,23.8-10.4,33.1      c-6.9,9.3-15.9,15.7-26.9,19.3v19.8C-1557.4,3412.6-1557.9,3413.1-1559,3413.1z"></path>				</g>			</g>		</g>		<g transform="matrix(1,0,0,1,-2.47964,12.5662)">			<g transform="matrix(1,0,0,1,-31.6473,-11.0814)">				<g transform="matrix(0.866025,-0.5,1,0.57735,0,0)">					<polygon class="st0" points="-1903.7,2667.2 -1195.9,2667.2 -1195.9,3038.6 -1903.7,3038.6      "></polygon>				</g>				<g transform="matrix(0.748003,-0.431859,0.863719,0.498668,141.319,148.225)">					<path class="st3" d="M-1349.8,2915.3c0-3.6-2.6-5.8-6.8-5.8c-20.3,0-32.8-10.8-32.8-28.4c0-3.6-2.6-5.9-6.8-5.9h-605      c-4.2,0-9.3,2.3-13.5,5.9c-4.2,3.6-6.8,8.1-6.8,11.7c0,7.7-5.5,17.2-14.3,24.9c-8.9,7.7-19.8,12.4-28.7,12.4      c-4.2,0-9.3,2.3-13.5,5.8c-4.2,3.6-6.8,8.1-6.8,11.7c0,75.9,0,211.2,0,277.6c0,3.6,2.6,5.8,6.8,5.8c23.6,0,38.2,12.6,38.2,33.1      c0,3.6,2.6,5.8,6.8,5.8c121.8,0,458.7,0,599.6,0c4.2,0,9.3-2.3,13.5-5.8c4.2-3.6,6.8-8.1,6.8-11.7c0-7.7,5.5-17.2,14.3-24.8      c8.9-7.7,19.8-12.5,28.7-12.5c4.2,0,9.3-2.2,13.5-5.8c4.2-3.6,6.8-8.1,6.8-11.7C-1349.8,3119.8-1349.8,2979.8-1349.8,2915.3z       M-1376.8,2932.5v262.8c-12.1,4-24.5,11.1-35.4,20.6c-10.9,9.4-19.1,20.2-23.7,30.7h-577c-2.4-22.3-18.8-36.6-44.6-38.7      c0,0,0-258.1,0-258.1c12.1-4,24.5-11.1,35.4-20.6s19.1-20.2,23.7-30.7h582.4C-1413.6,2918.1-1399.2,2930.5-1376.8,2932.5z"></path>				</g>				<g transform="matrix(0.866025,-0.5,0.866025,0.5,13.618,13.3333)">					<path class="st4" d="M-1526.8,3386.9h-29.1c-0.9,0-1.3-0.5-1.3-1.3v-19.5c-11.2-3.4-20.5-9.9-27.7-19.6      c-7.3-9.7-10.9-20.8-10.9-33.1v-12.6c0-0.9,0.4-1.5,1.3-1.5h30.6c0.7,0,1,0.5,1,1.5v12.6c0,5.9,2.1,11.1,6.2,15.4      c4.2,4.3,9,6.5,14.6,6.5c5.8,0,10.6-2.2,14.6-6.5c3.9-4.4,5.9-9.3,5.9-14.6c0-7-4.4-12.9-13.1-17.8c-2.9-1.8-7.6-4.3-13.8-7.7      c-6.3-3.4-12.1-6.5-17.4-9.4c-10.5-5.9-18.1-13.4-22.9-22.6c-4.8-9.1-7.2-19.4-7.2-30.8c0-12.5,3.6-23.4,10.9-32.7      c7.3-9.3,16.3-15.6,27.3-18.8V3155c0-0.9,0.5-1.3,1.5-1.3h29.1c1.1,0,1.6,0.5,1.6,1.3v19.8c10.7,3.2,19.6,9.6,26.6,19      c7,9.4,10.6,20.2,10.6,32.2v22.4c0,0.7-0.3,1-1,1h-30.8c-0.7,0-1-0.3-1-1l-0.3-22.4c0-6.4-2.1-11.6-6.2-15.5      c-4.2-3.9-8.9-5.9-14.2-5.9c-5.6,0-10.3,2.1-14.2,6.4c-3.9,4.2-5.9,9.3-5.9,15.1c0,5.6,1.2,10.3,3.7,14.3      c2.5,3.9,6.9,7.8,13.3,11.6l27.8,15.4c9.2,4.9,16.4,11.1,21.7,18.4c5.3,7.4,7.9,16.6,7.9,27.7c0,12.8-3.5,23.8-10.4,33.1      c-6.9,9.3-15.9,15.7-26.9,19.3v19.8C-1525.1,3386.5-1525.7,3386.9-1526.8,3386.9z"></path>				</g>			</g>			<g transform="matrix(1,0,0,1,-31.6473,-18.2716)">				<g transform="matrix(0.866025,-0.5,1,0.57735,0,0)">					<polygon class="st2" points="-1863.2,2632.1 -1155.4,2632.1 -1155.4,3003.5 -1863.2,3003.5      "></polygon>				</g>				<g transform="matrix(0.748003,-0.431859,0.863719,0.498668,141.319,148.225)">					<path class="st3" d="M-1302.9,2874.7c0-3.6-2.6-5.8-6.8-5.8c-20.3,0-32.8-10.8-32.8-28.4c0-3.6-2.6-5.9-6.8-5.9h-605      c-4.2,0-9.3,2.3-13.5,5.9c-4.2,3.6-6.8,8.1-6.8,11.7c0,7.7-5.5,17.2-14.3,24.9c-8.9,7.7-19.8,12.4-28.7,12.4      c-4.2,0-9.3,2.3-13.5,5.8c-4.2,3.6-6.8,8.1-6.8,11.7c0,75.9,0,211.2,0,277.6c0,3.6,2.6,5.8,6.8,5.8c23.6,0,38.2,12.6,38.2,33.1      c0,3.6,2.6,5.8,6.8,5.8c121.8,0,458.7,0,599.6,0c4.2,0,9.3-2.3,13.5-5.8c4.2-3.6,6.8-8.1,6.8-11.7c0-7.7,5.5-17.2,14.3-24.8      c8.9-7.7,19.8-12.5,28.7-12.5c4.2,0,9.3-2.2,13.5-5.8c4.2-3.6,6.8-8.1,6.8-11.7C-1302.9,3079.3-1302.9,2939.2-1302.9,2874.7z       M-1329.9,2891.9v262.8c-12.1,4-24.5,11.1-35.4,20.6c-10.9,9.4-19.1,20.2-23.7,30.7h-577c-2.4-22.3-18.8-36.6-44.6-38.7      c0,0,0-258.1,0-258.1c12.1-4,24.5-11.1,35.4-20.6s19.1-20.2,23.7-30.7h582.4C-1366.7,2877.5-1352.4,2889.9-1329.9,2891.9z"></path>				</g>				<g transform="matrix(0.866025,-0.5,0.866025,0.5,13.618,13.3333)">					<path class="st4" d="M-1486.3,3346.4h-29.1c-0.9,0-1.3-0.5-1.3-1.3v-19.5c-11.2-3.4-20.5-9.9-27.7-19.6      c-7.3-9.7-10.9-20.8-10.9-33.1v-12.6c0-0.9,0.4-1.5,1.3-1.5h30.6c0.7,0,1,0.5,1,1.5v12.6c0,5.9,2.1,11.1,6.2,15.4      c4.2,4.3,9,6.5,14.6,6.5c5.8,0,10.6-2.2,14.6-6.5c3.9-4.4,5.9-9.3,5.9-14.6c0-7-4.4-12.9-13.1-17.8c-2.9-1.8-7.6-4.3-13.8-7.7      c-6.3-3.4-12.1-6.5-17.4-9.4c-10.5-5.9-18.1-13.4-22.9-22.6c-4.8-9.1-7.2-19.4-7.2-30.8c0-12.5,3.6-23.4,10.9-32.7      c7.3-9.3,16.3-15.6,27.3-18.8v-19.5c0-0.9,0.5-1.3,1.5-1.3h29.1c1.1,0,1.6,0.5,1.6,1.3v19.8c10.7,3.2,19.6,9.6,26.6,19      c7,9.4,10.6,20.2,10.6,32.2v22.4c0,0.7-0.3,1-1,1h-30.8c-0.7,0-1-0.3-1-1l-0.3-22.4c0-6.4-2.1-11.6-6.2-15.5      c-4.2-3.9-8.9-5.9-14.2-5.9c-5.6,0-10.3,2.1-14.2,6.4c-3.9,4.2-5.9,9.3-5.9,15.1c0,5.6,1.2,10.3,3.7,14.3      c2.5,3.9,6.9,7.8,13.3,11.6l27.8,15.4c9.2,4.9,16.4,11.1,21.7,18.4c5.3,7.4,7.9,16.6,7.9,27.7c0,12.8-3.5,23.8-10.4,33.1      c-6.9,9.3-15.9,15.7-26.9,19.3v19.8C-1484.7,3346-1485.2,3346.4-1486.3,3346.4z"></path>				</g>			</g>		</g>		<g transform="matrix(1,0,0,1,-1.54335,0.193704)">			<g transform="matrix(1,0,0,1,-31.6473,-11.0814)">				<g transform="matrix(0.866025,-0.5,1,0.57735,0,0)">					<polygon class="st0" points="-1831,2609.5 -1123.2,2609.5 -1123.2,2980.9 -1831,2980.9      "></polygon>				</g>				<g transform="matrix(0.748003,-0.431859,0.863719,0.498668,141.319,148.225)">					<path class="st3" d="M-1265.6,2848.5c0-3.6-2.6-5.8-6.8-5.8c-20.3,0-32.8-10.8-32.8-28.4c0-3.6-2.6-5.9-6.8-5.9h-605      c-4.2,0-9.3,2.3-13.5,5.9c-4.2,3.6-6.8,8.1-6.8,11.7c0,7.7-5.5,17.2-14.3,24.9c-8.9,7.7-19.8,12.4-28.7,12.4      c-4.2,0-9.3,2.3-13.5,5.8c-4.2,3.6-6.8,8.1-6.8,11.7c0,75.9,0,211.2,0,277.6c0,3.6,2.6,5.8,6.8,5.8c23.6,0,38.2,12.6,38.2,33.1      c0,3.6,2.6,5.8,6.8,5.8c121.8,0,458.7,0,599.6,0c4.2,0,9.3-2.3,13.5-5.8c4.2-3.6,6.8-8.1,6.8-11.7c0-7.7,5.5-17.2,14.3-24.8      c8.9-7.7,19.8-12.5,28.7-12.5c4.2,0,9.3-2.2,13.5-5.8c4.2-3.6,6.8-8.1,6.8-11.7C-1265.6,3053-1265.6,2913-1265.6,2848.5z       M-1292.6,2865.7v262.8c-12.1,4-24.5,11.1-35.4,20.6c-10.9,9.4-19.1,20.2-23.7,30.7h-577c-2.4-22.3-18.8-36.6-44.6-38.7      c0,0,0-258.1,0-258.1c12.1-4,24.5-11.1,35.4-20.6s19.1-20.2,23.7-30.7h582.4C-1329.4,2851.3-1315.1,2863.7-1292.6,2865.7z"></path>				</g>				<g transform="matrix(0.866025,-0.5,0.866025,0.5,13.618,13.3333)">					<path class="st4" d="M-1454.1,3320.3h-29.1c-0.9,0-1.3-0.5-1.3-1.3v-19.5c-11.2-3.4-20.5-9.9-27.7-19.6      c-7.3-9.7-10.9-20.8-10.9-33.1v-12.6c0-0.9,0.4-1.5,1.3-1.5h30.6c0.7,0,1,0.5,1,1.5v12.6c0,5.9,2.1,11.1,6.2,15.5      c4.2,4.3,9,6.5,14.6,6.5c5.8,0,10.6-2.2,14.6-6.5c3.9-4.4,5.9-9.3,5.9-14.6c0-7-4.4-12.9-13.1-17.8c-2.9-1.8-7.6-4.3-13.8-7.7      c-6.3-3.4-12.1-6.5-17.4-9.4c-10.5-5.9-18.1-13.4-22.9-22.6c-4.8-9.1-7.2-19.4-7.2-30.8c0-12.5,3.6-23.4,10.9-32.7      s16.3-15.6,27.3-18.8v-19.5c0-0.9,0.5-1.3,1.5-1.3h29.1c1.1,0,1.6,0.5,1.6,1.3v19.8c10.7,3.2,19.6,9.6,26.6,19      c7,9.4,10.6,20.2,10.6,32.2v22.4c0,0.7-0.3,1-1,1h-30.8c-0.7,0-1-0.3-1-1l-0.3-22.4c0-6.4-2.1-11.6-6.2-15.5      c-4.2-3.9-8.9-5.9-14.2-5.9c-5.6,0-10.3,2.1-14.2,6.4c-3.9,4.2-5.9,9.3-5.9,15.1c0,5.6,1.2,10.3,3.7,14.3      c2.5,3.9,6.9,7.8,13.3,11.6l27.8,15.4c9.2,4.9,16.4,11.1,21.7,18.4c5.3,7.4,7.9,16.6,7.9,27.7c0,12.8-3.5,23.8-10.4,33.1      s-15.9,15.7-26.9,19.3v19.8C-1452.4,3319.8-1453,3320.3-1454.1,3320.3z"></path>				</g>			</g>			<g transform="matrix(1,0,0,1,-31.6473,-18.2716)">				<g transform="matrix(0.866025,-0.5,1,0.57735,0,0)">					<polygon class="st2" points="-1790.5,2574.4 -1082.7,2574.4 -1082.7,2945.8 -1790.5,2945.8      "></polygon>				</g>				<g transform="matrix(0.748003,-0.431859,0.863719,0.498668,141.319,148.225)">					<path class="st3" d="M-1218.7,2807.9c0-3.6-2.6-5.8-6.8-5.8c-20.3,0-32.8-10.8-32.8-28.4c0-3.6-2.6-5.9-6.8-5.9h-605      c-4.2,0-9.3,2.3-13.5,5.9c-4.2,3.6-6.8,8.1-6.8,11.7c0,7.7-5.5,17.2-14.3,24.9c-8.9,7.7-19.8,12.4-28.7,12.4      c-4.2,0-9.3,2.3-13.5,5.8c-4.2,3.6-6.8,8.1-6.8,11.7c0,75.9,0,211.2,0,277.6c0,3.6,2.6,5.8,6.8,5.8c23.6,0,38.2,12.6,38.2,33.1      c0,3.6,2.6,5.8,6.8,5.8c121.8,0,458.7,0,599.6,0c4.2,0,9.3-2.3,13.5-5.8c4.2-3.6,6.8-8.1,6.8-11.7c0-7.7,5.5-17.2,14.3-24.8      c8.9-7.7,19.8-12.5,28.7-12.5c4.2,0,9.3-2.2,13.5-5.8c4.2-3.6,6.8-8.1,6.8-11.7C-1218.7,3012.4-1218.7,2872.4-1218.7,2807.9z       M-1245.7,2825.1v262.8c-12.1,4-24.5,11.1-35.4,20.6c-10.9,9.4-19.1,20.2-23.7,30.7h-577c-2.4-22.3-18.8-36.6-44.6-38.7      c0,0,0-258.1,0-258.1c12.1-4,24.5-11.1,35.4-20.6s19.1-20.2,23.7-30.7h582.4C-1282.5,2810.7-1268.2,2823.1-1245.7,2825.1z"></path>				</g>				<g transform="matrix(0.866025,-0.5,0.866025,0.5,13.618,13.3333)">					<path class="st4" d="M-1413.6,3279.8h-29.1c-0.9,0-1.3-0.5-1.3-1.3V3259c-11.2-3.4-20.5-9.9-27.7-19.6      c-7.3-9.7-10.9-20.8-10.9-33.1v-12.6c0-0.9,0.4-1.5,1.3-1.5h30.6c0.7,0,1,0.5,1,1.5v12.6c0,5.9,2.1,11.1,6.2,15.5      c4.2,4.3,9,6.5,14.6,6.5c5.8,0,10.6-2.2,14.6-6.5c3.9-4.4,5.9-9.3,5.9-14.6c0-7-4.4-12.9-13.1-17.8c-2.9-1.8-7.6-4.3-13.8-7.7      c-6.3-3.4-12.1-6.5-17.4-9.4c-10.5-5.9-18.1-13.4-22.9-22.6c-4.8-9.1-7.2-19.4-7.2-30.8c0-12.5,3.6-23.4,10.9-32.7      s16.3-15.6,27.3-18.8l0-19.5c0-0.9,0.5-1.3,1.5-1.3h29.1c1.1,0,1.6,0.5,1.6,1.3v19.8c10.7,3.2,19.6,9.6,26.6,19      c7,9.4,10.6,20.2,10.6,32.2v22.4c0,0.7-0.3,1-1,1h-30.8c-0.7,0-1-0.3-1-1l-0.3-22.4c0-6.4-2.1-11.6-6.2-15.5      c-4.2-3.9-8.9-5.9-14.2-5.9c-5.6,0-10.3,2.1-14.2,6.4c-3.9,4.2-5.9,9.3-5.9,15.1c0,5.6,1.2,10.3,3.7,14.3      c2.5,3.9,6.9,7.8,13.3,11.6l27.8,15.4c9.2,4.9,16.4,11.1,21.7,18.4c5.3,7.4,7.9,16.6,7.9,27.7c0,12.8-3.5,23.8-10.4,33.1      s-15.9,15.7-26.9,19.3v19.8C-1411.9,3279.3-1412.5,3279.8-1413.6,3279.8z"></path>				</g>			</g>		</g>	</g>	<g transform="matrix(0.866025,-0.5,1,0.57735,0,0)">		<path class="st5" d="M-1300.5,2542.2h-130.5l-6,378.5l-177.4,170h100.6l205.1-170L-1300.5,2542.2z"></path>	</g>	<g transform="matrix(0.853453,0,0,0.853453,195.308,278.657)">		<g transform="matrix(0.628822,0.363051,-3.49066e-17,1,413.033,-606.913)">			<path class="st0" d="M2353.3,2372.2l-331.9-402.2l-223.5,143.6c-33.7,21.7-77.9,17.4-106.9-10.1L1427.7,1853l-293.3,234.1    l-103.9,74.6l-4.6-210.5l352.6-281.4c33.9-27.1,82.7-25,114.2,4.9l268.7,255.7l231-148.5c37-23.7,86-16.1,114,17.8l381.7,462.5    l106.4-86.7l64.8,444.7l-108.2,78.4l-314.4-231.6L2353.3,2372.2z"></path>		</g>		<g transform="matrix(0.628822,0.363051,-3.49066e-17,1,402.774,-601.017)">			<path class="st2" d="M2261.4,2438.7l-331.9-402.2L1706,2180.1c-33.7,21.7-77.9,17.4-106.9-10.1l-263.3-250.5l-293.3,234.1    L934,2017.8l352.6-281.4c33.9-27.1,82.7-25,114.2,4.9l268.7,255.7l231-148.5c37-23.7,86-16.1,114,17.8l381.7,462.5l106.4-86.7    l64.8,444.7l-422.6-153.2L2261.4,2438.7z"></path>		</g>	</g></g></svg>